<svg xmlns="http://www.w3.org/2000/svg" width="390.625" height="335.2" viewBox="0 0 390.625 335.2">
  <path id="Caminho_17976" data-name="Caminho 17976" d="M3105.467,1108.319a3.617,3.617,0,0,0-4.566,0,2.5,2.5,0,0,0,0,3.917,3.617,3.617,0,0,0,4.566,0,2.5,2.5,0,0,0,0-3.917Zm-384.168-7.858a3.618,3.618,0,0,0-4.565,0,2.5,2.5,0,0,0,0,3.918,3.616,3.616,0,0,0,4.565,0,2.5,2.5,0,0,0,0-3.918Zm39.333,33.752a3.616,3.616,0,0,0-4.565,0,2.5,2.5,0,0,0,0,3.917,3.616,3.616,0,0,0,4.565,0,2.5,2.5,0,0,0,0-3.917Zm39.332,33.752a3.615,3.615,0,0,0-4.565,0,2.5,2.5,0,0,0,0,3.917,3.616,3.616,0,0,0,4.565,0,2.5,2.5,0,0,0,0-3.917Zm39.333,33.752a3.616,3.616,0,0,0-4.565,0,2.5,2.5,0,0,0,0,3.917,3.616,3.616,0,0,0,4.565,0,2.5,2.5,0,0,0,0-3.917Zm39.332,33.752a3.615,3.615,0,0,0-4.565,0,2.5,2.5,0,0,0,0,3.917,3.616,3.616,0,0,0,4.565,0,2.5,2.5,0,0,0,0-3.917Zm39.333,33.751a3.618,3.618,0,0,0-4.566,0,2.5,2.5,0,0,0,0,3.918,3.617,3.617,0,0,0,4.566,0,2.5,2.5,0,0,0,0-3.918ZM2752.55,1073.645a3.616,3.616,0,0,0-4.565,0,2.5,2.5,0,0,0,0,3.917,3.616,3.616,0,0,0,4.565,0,2.5,2.5,0,0,0,0-3.917Zm39.332,33.752a3.615,3.615,0,0,0-4.565,0,2.5,2.5,0,0,0,0,3.917,3.615,3.615,0,0,0,4.565,0,2.5,2.5,0,0,0,0-3.917Zm39.333,33.752a3.616,3.616,0,0,0-4.565,0,2.5,2.5,0,0,0,0,3.917,3.616,3.616,0,0,0,4.565,0,2.5,2.5,0,0,0,0-3.917Zm39.333,33.752a3.616,3.616,0,0,0-4.565,0,2.5,2.5,0,0,0,0,3.917,3.616,3.616,0,0,0,4.565,0,2.5,2.5,0,0,0,0-3.917Zm39.333,33.752a3.617,3.617,0,0,0-4.566,0,2.5,2.5,0,0,0,0,3.917,3.617,3.617,0,0,0,4.566,0,2.5,2.5,0,0,0,0-3.917Zm39.332,33.752a3.617,3.617,0,0,0-4.566,0,2.5,2.5,0,0,0,0,3.918,3.619,3.619,0,0,0,4.566,0,2.5,2.5,0,0,0,0-3.918ZM2783.8,1046.828a3.616,3.616,0,0,0-4.565,0,2.5,2.5,0,0,0,0,3.917,3.616,3.616,0,0,0,4.565,0,2.5,2.5,0,0,0,0-3.917Zm39.332,33.751a3.617,3.617,0,0,0-4.565,0,2.5,2.5,0,0,0,0,3.918,3.616,3.616,0,0,0,4.565,0,2.5,2.5,0,0,0,0-3.918Zm39.333,33.752a3.616,3.616,0,0,0-4.565,0,2.5,2.5,0,0,0,0,3.917,3.616,3.616,0,0,0,4.565,0,2.5,2.5,0,0,0,0-3.917Zm39.332,33.752a3.616,3.616,0,0,0-4.565,0,2.5,2.5,0,0,0,0,3.917,3.616,3.616,0,0,0,4.565,0,2.5,2.5,0,0,0,0-3.917Zm39.333,33.752a3.617,3.617,0,0,0-4.566,0,2.5,2.5,0,0,0,0,3.918,3.619,3.619,0,0,0,4.566,0,2.5,2.5,0,0,0,0-3.918Zm39.332,33.752a3.617,3.617,0,0,0-4.566,0,2.5,2.5,0,0,0,0,3.917,3.617,3.617,0,0,0,4.566,0,2.5,2.5,0,0,0,0-3.917Zm-165.412-195.575a3.616,3.616,0,0,0-4.565,0,2.5,2.5,0,0,0,0,3.917,3.616,3.616,0,0,0,4.565,0,2.5,2.5,0,0,0,0-3.917Zm39.332,33.752a3.616,3.616,0,0,0-4.565,0,2.5,2.5,0,0,0,0,3.917,3.616,3.616,0,0,0,4.565,0,2.5,2.5,0,0,0,0-3.917Zm39.333,33.752a3.616,3.616,0,0,0-4.565,0,2.5,2.5,0,0,0,0,3.917,3.616,3.616,0,0,0,4.565,0,2.5,2.5,0,0,0,0-3.917Zm39.332,33.752a3.615,3.615,0,0,0-4.565,0,2.5,2.5,0,0,0,0,3.917,3.615,3.615,0,0,0,4.565,0,2.5,2.5,0,0,0,0-3.917Zm39.333,33.752a3.617,3.617,0,0,0-4.566,0,2.5,2.5,0,0,0,0,3.917,3.617,3.617,0,0,0,4.566,0,2.5,2.5,0,0,0,0-3.917Zm39.333,33.752a3.617,3.617,0,0,0-4.566,0,2.5,2.5,0,0,0,0,3.917,3.617,3.617,0,0,0,4.566,0,2.5,2.5,0,0,0,0-3.917ZM2846.3,993.194a3.616,3.616,0,0,0-4.565,0,2.5,2.5,0,0,0,0,3.917,3.616,3.616,0,0,0,4.565,0,2.5,2.5,0,0,0,0-3.917Zm39.333,33.752a3.616,3.616,0,0,0-4.565,0,2.5,2.5,0,0,0,0,3.917,3.616,3.616,0,0,0,4.565,0,2.5,2.5,0,0,0,0-3.917Zm39.332,33.752a3.616,3.616,0,0,0-4.565,0,2.5,2.5,0,0,0,0,3.917,3.616,3.616,0,0,0,4.565,0,2.5,2.5,0,0,0,0-3.917Zm39.333,33.752a3.617,3.617,0,0,0-4.566,0,2.5,2.5,0,0,0,0,3.917,3.617,3.617,0,0,0,4.566,0,2.5,2.5,0,0,0,0-3.917Zm39.332,33.752a3.617,3.617,0,0,0-4.566,0,2.5,2.5,0,0,0,0,3.917,3.617,3.617,0,0,0,4.566,0,2.5,2.5,0,0,0,0-3.917Zm39.333,33.752a3.617,3.617,0,0,0-4.566,0,2.5,2.5,0,0,0,0,3.918,3.619,3.619,0,0,0,4.566,0,2.5,2.5,0,0,0,0-3.918ZM2877.553,966.377a3.619,3.619,0,0,0-4.566,0,2.5,2.5,0,0,0,0,3.918,3.617,3.617,0,0,0,4.566,0,2.5,2.5,0,0,0,0-3.918Zm39.333,33.752a3.616,3.616,0,0,0-4.565,0,2.5,2.5,0,0,0,0,3.917,3.616,3.616,0,0,0,4.565,0,2.5,2.5,0,0,0,0-3.917Zm39.332,33.752a3.616,3.616,0,0,0-4.565,0,2.5,2.5,0,0,0,0,3.917,3.615,3.615,0,0,0,4.565,0,2.5,2.5,0,0,0,0-3.917Zm39.333,33.752a3.617,3.617,0,0,0-4.566,0,2.5,2.5,0,0,0,0,3.917,3.617,3.617,0,0,0,4.566,0,2.5,2.5,0,0,0,0-3.917Zm39.331,33.752a3.616,3.616,0,0,0-4.565,0,2.5,2.5,0,0,0,0,3.917,3.616,3.616,0,0,0,4.565,0,2.5,2.5,0,0,0,0-3.917Zm39.333,33.752a3.617,3.617,0,0,0-4.566,0,2.5,2.5,0,0,0,0,3.918,3.619,3.619,0,0,0,4.566,0,2.5,2.5,0,0,0,0-3.918ZM2908.8,939.56a3.618,3.618,0,0,0-4.565,0,2.5,2.5,0,0,0,0,3.918,3.616,3.616,0,0,0,4.565,0,2.5,2.5,0,0,0,0-3.918Zm39.333,33.752a3.616,3.616,0,0,0-4.565,0,2.5,2.5,0,0,0,0,3.917,3.616,3.616,0,0,0,4.565,0,2.5,2.5,0,0,0,0-3.917Zm39.332,33.752a3.616,3.616,0,0,0-4.565,0,2.5,2.5,0,0,0,0,3.917,3.616,3.616,0,0,0,4.565,0,2.5,2.5,0,0,0,0-3.917Zm39.333,33.752a3.617,3.617,0,0,0-4.566,0,2.5,2.5,0,0,0,0,3.918,3.619,3.619,0,0,0,4.566,0,2.5,2.5,0,0,0,0-3.918Zm39.332,33.752a3.616,3.616,0,0,0-4.565,0,2.5,2.5,0,0,0,0,3.917,3.616,3.616,0,0,0,4.565,0A2.5,2.5,0,0,0,3066.134,1074.567Z" transform="translate(-2715.788 -938.749)" fill="#009fd4" fill-rule="evenodd"/>
</svg>
