<svg xmlns="http://www.w3.org/2000/svg" width="16.744" height="29.5" viewBox="0 0 16.744 29.5">
  <path fill="#fff" d="M10.843,29.5H6.118a1.433,1.433,0,0,1-1.431-1.431V17.413H1.931A1.433,1.433,0,0,1,.5,15.982V11.416A1.433,1.433,0,0,1,1.931,9.985H4.687V7.7A7.785,7.785,0,0,1,6.746,2.121,7.415,7.415,0,0,1,12.213,0l3.6.006a1.433,1.433,0,0,1,1.429,1.431V5.676a1.432,1.432,0,0,1-1.431,1.431H13.388c-.74,0-.928.148-.968.194-.066.075-.145.289-.145.877V9.985h3.357a1.454,1.454,0,0,1,.708.18,1.436,1.436,0,0,1,.736,1.252l0,4.566a1.432,1.432,0,0,1-1.431,1.431H12.274V28.069A1.433,1.433,0,0,1,10.843,29.5ZM6.417,27.771h4.127V16.639a.957.957,0,0,1,.955-.955h3.845l0-3.969H11.5a.956.956,0,0,1-.955-.955V8.179a2.945,2.945,0,0,1,.579-2.022,2.931,2.931,0,0,1,2.264-.779h2.127V1.734l-3.3-.005c-3.574,0-5.794,2.288-5.794,5.97v3.061a.957.957,0,0,1-.955.955H2.23v3.969H5.462a.956.956,0,0,1,.955.955Zm9.4-26.036h0Zm0,0" transform="translate(-0.5 0)"/>
</svg>
