<svg xmlns="http://www.w3.org/2000/svg" width="79.244" height="88.057" viewBox="0 0 79.244 88.057">
  <path d="M78.612,11.837,74.849,8.524l3.763-3.313A1.857,1.857,0,0,0,77.385,1.96H61.813V1.291a1.291,1.291,0,1,0-2.581,0V18.7l-10.6,5.755a4.083,4.083,0,0,0-.419-1.356L46.72,20.18a4.083,4.083,0,0,0-5.489-1.771L40.077,19a4.078,4.078,0,0,0-1.771,5.489L39.8,27.406a4.053,4.053,0,0,0,1.47,1.6,11.306,11.306,0,0,0-1.556,3.744l-.278.985a1.29,1.29,0,0,0,.891,1.593,1.271,1.271,0,0,0,.351.049,1.291,1.291,0,0,0,1.242-.94l.278-.983c.566-1.995.913-3.063,2.019-3.663L46.2,28.711l.245-.125c.081-.042.157-.089.234-.135l14.13-7.673A5.462,5.462,0,0,1,58.2,25.164l-9.188,5.583-.032.019L46.122,32.5a1.291,1.291,0,0,0,1.233,2.264l-2.17,6.56-1.586.65-4.313,1.768,1.243-4.394a1.291,1.291,0,0,0-2.484-.7l-1.964,6.945a1.239,1.239,0,0,0-.046.281l-.514,9.44a4.319,4.319,0,0,1-.105,1.392L29.707,68.714H25.559a4.411,4.411,0,0,0-4.406,4.406v3.725a4.371,4.371,0,0,0-1.825-.4H8.795a4.41,4.41,0,0,0-4.406,4.406v4.622h-3.1a1.291,1.291,0,0,0,0,2.581H77.383a1.291,1.291,0,0,0,0-2.581H74.027V52.21A4.411,4.411,0,0,0,69.621,47.8H61.813V25.29a8.048,8.048,0,0,0,1.3-6.9,1.291,1.291,0,0,0-1.3-.947V15.089H77.384a1.858,1.858,0,0,0,1.228-3.252Zm-38.1,10.334a1.487,1.487,0,0,1,.742-.873l1.155-.591a1.5,1.5,0,0,1,2.015.65l1.494,2.916a1.5,1.5,0,0,1-.5,1.924L45,26.425l-.887.455a1.5,1.5,0,0,1-2.015-.65L40.6,23.313a1.488,1.488,0,0,1-.092-1.142ZM37.917,69.111a4.381,4.381,0,0,0-1.417-.378l1.417-1.882Zm6.128-10.4a4.863,4.863,0,0,0,.93-2.312c.035-.167.672-3.645.672-3.645s.6.376.666.4a.137.137,0,0,1,.079.113l.7,7.137H42.769Zm7.632-7.123L50.587,60.4h-.9l-.726-7.383a2.719,2.719,0,0,0-1.52-2.182l-1.3-.823.865-4.792s3.643,4.327,3.727,4.437c.754.98,1.012,1.373.942,1.931Zm-13.94,6.246a7,7,0,0,0,.361-2.4l.469-8.61,5.969-2.446-1.085,6.01c0,.016-.007.033-.009.049l-.9,4.969A4.917,4.917,0,0,1,42,57.13L33.284,68.714h-.719ZM6.97,80.853a1.826,1.826,0,0,1,1.825-1.824H19.328a1.827,1.827,0,0,1,1.825,1.824v4.623H6.97Zm16.764,0V73.119a1.827,1.827,0,0,1,1.825-1.825H36.093a1.826,1.826,0,0,1,1.825,1.825V85.476H23.735V80.853ZM71.446,52.21V85.476H57.263V77.738a1.291,1.291,0,0,0-2.582,0v7.738H40.5V64.811a1.826,1.826,0,0,1,1.825-1.824H52.857a1.826,1.826,0,0,1,1.825,1.824v6.47a1.291,1.291,0,1,0,2.581,0V52.21a1.827,1.827,0,0,1,1.825-1.825H69.621a1.827,1.827,0,0,1,1.825,1.825ZM59.088,47.8a4.411,4.411,0,0,0-4.406,4.406V60.8a4.369,4.369,0,0,0-1.5-.384l1.053-8.513c.207-1.659-.64-2.759-1.458-3.823-.087-.113-5.1-6.069-5.1-6.069l3.078-9.3,8.477-5.15V47.8Zm2.726-35.3V4.542H75.467L72.526,7.131a1.857,1.857,0,0,0,0,2.788l2.941,2.589H61.813Zm0,0" fill="#1e2040"/>
</svg>
