<svg xmlns="http://www.w3.org/2000/svg" width="31.393" height="31.399" viewBox="0 0 31.393 31.399">
  <g id="brands-and-logotypes" transform="translate(-0.449)">
    <path id="Caminho_3" data-name="Caminho 3" d="M31.762,9.231a11.473,11.473,0,0,0-.73-3.809A8.043,8.043,0,0,0,26.438.828,11.5,11.5,0,0,0,22.629.1C20.948.018,20.414,0,16.151,0s-4.8.018-6.471.092a11.477,11.477,0,0,0-3.809.73A7.661,7.661,0,0,0,3.086,2.638,7.731,7.731,0,0,0,1.277,5.416a11.5,11.5,0,0,0-.73,3.809c-.08,1.681-.1,2.214-.1,6.477s.018,4.8.092,6.471a11.473,11.473,0,0,0,.73,3.809,8.042,8.042,0,0,0,4.594,4.594,11.5,11.5,0,0,0,3.809.73c1.674.074,2.208.092,6.471.092s4.8-.018,6.471-.092a11.47,11.47,0,0,0,3.809-.73,8.031,8.031,0,0,0,4.594-4.594,11.512,11.512,0,0,0,.73-3.809c.074-1.675.092-2.208.092-6.471s-.006-4.8-.08-6.471Zm-2.828,12.82a8.606,8.606,0,0,1-.54,2.914,5.209,5.209,0,0,1-2.981,2.981,8.637,8.637,0,0,1-2.914.54c-1.656.074-2.153.092-6.342.092s-4.692-.018-6.342-.092a8.6,8.6,0,0,1-2.914-.54,4.832,4.832,0,0,1-1.8-1.172,4.882,4.882,0,0,1-1.172-1.8,8.638,8.638,0,0,1-.54-2.914c-.074-1.656-.092-2.153-.092-6.342s.018-4.692.092-6.342a8.6,8.6,0,0,1,.54-2.914A4.772,4.772,0,0,1,5.1,4.656a4.874,4.874,0,0,1,1.8-1.171,8.643,8.643,0,0,1,2.914-.54c1.656-.074,2.153-.092,6.342-.092s4.692.018,6.342.092a8.606,8.606,0,0,1,2.914.54,4.828,4.828,0,0,1,1.8,1.171,4.881,4.881,0,0,1,1.172,1.8,8.641,8.641,0,0,1,.54,2.914c.074,1.656.092,2.153.092,6.342s-.018,4.68-.092,6.336Zm0,0" fill="#fff"/>
    <path id="Caminho_4" data-name="Caminho 4" d="M133.015,124.5a8.066,8.066,0,1,0,8.066,8.066A8.068,8.068,0,0,0,133.015,124.5Zm0,13.3a5.232,5.232,0,1,1,5.232-5.232A5.233,5.233,0,0,1,133.015,137.8Zm0,0" transform="translate(-116.864 -116.863)" fill="#fff"/>
    <path id="Caminho_5" data-name="Caminho 5" d="M366.216,90.485a1.883,1.883,0,1,1-1.883-1.883A1.883,1.883,0,0,1,366.216,90.485Zm0,0" transform="translate(-339.797 -83.167)" fill="#fff"/>
  </g>
</svg>
