<svg xmlns="http://www.w3.org/2000/svg" xmlns:xlink="http://www.w3.org/1999/xlink" width="660.029" height="633.286" viewBox="0 0 760.029 683.286">
  <defs>
    <linearGradient id="linear-gradient" y1="0.5" x2="1" y2="0.5" gradientUnits="objectBoundingBox">
      <stop offset="0" stop-color="#5581e8"/>
      <stop offset="0.351" stop-color="#3f51a1"/>
      <stop offset="0.652" stop-color="#2f2c6c"/>
      <stop offset="0.877" stop-color="#25164b"/>
      <stop offset="1" stop-color="#220e3f"/>
    </linearGradient>
    <linearGradient id="linear-gradient-2" y1="0.5" x2="1" y2="0.5" gradientUnits="objectBoundingBox">
      <stop offset="0" stop-color="#ff6996"/>
      <stop offset="0.014" stop-color="#a54461"/>
      <stop offset="0.028" stop-color="#4d1f2d"/>
      <stop offset="0.039" stop-color="#15080c"/>
      <stop offset="0.044"/>
      <stop offset="0.053" stop-color="#030101"/>
      <stop offset="0.059" stop-color="#0c0507"/>
      <stop offset="0.065" stop-color="#1d0b10"/>
      <stop offset="0.071" stop-color="#34151e"/>
      <stop offset="0.076" stop-color="#51212f"/>
      <stop offset="0.081" stop-color="#712e42"/>
      <stop offset="0.098" stop-color="#6c2c3f"/>
      <stop offset="0.116" stop-color="#602738"/>
      <stop offset="0.134" stop-color="#4c1f2c"/>
      <stop offset="0.152" stop-color="#2f131b"/>
      <stop offset="0.17" stop-color="#0b0406"/>
      <stop offset="0.175"/>
      <stop offset="0.194" stop-color="#030101"/>
      <stop offset="0.21" stop-color="#0c0507"/>
      <stop offset="0.223" stop-color="#1d0b11"/>
      <stop offset="0.236" stop-color="#34151e"/>
      <stop offset="0.248" stop-color="#522130"/>
      <stop offset="0.26" stop-color="#763045"/>
      <stop offset="0.271" stop-color="#a2425f"/>
      <stop offset="0.281" stop-color="#d3567c"/>
      <stop offset="0.29" stop-color="#ff6996"/>
      <stop offset="0.317" stop-color="#bd4d6f"/>
      <stop offset="0.342" stop-color="#86364e"/>
      <stop offset="0.355" stop-color="#712e42"/>
      <stop offset="0.366" stop-color="#712e42"/>
      <stop offset="0.49" stop-color="#712e42"/>
      <stop offset="0.5" stop-color="#752f44"/>
      <stop offset="0.51" stop-color="#81344b"/>
      <stop offset="0.521" stop-color="#953d57"/>
      <stop offset="0.531" stop-color="#b24968"/>
      <stop offset="0.542" stop-color="#d6587e"/>
      <stop offset="0.552" stop-color="#ff6996"/>
      <stop offset="0.577" stop-color="#bd4d6f"/>
      <stop offset="0.601" stop-color="#86364e"/>
      <stop offset="0.613" stop-color="#712e42"/>
      <stop offset="0.623" stop-color="#552231"/>
      <stop offset="0.637" stop-color="#36161f"/>
      <stop offset="0.652" stop-color="#1e0c11"/>
      <stop offset="0.668" stop-color="#0d0507"/>
      <stop offset="0.685" stop-color="#030101"/>
      <stop offset="0.706"/>
      <stop offset="0.811" stop-color="#712e42"/>
      <stop offset="0.827" stop-color="#752f44"/>
      <stop offset="0.844" stop-color="#81344b"/>
      <stop offset="0.86" stop-color="#953d57"/>
      <stop offset="0.877" stop-color="#b24968"/>
      <stop offset="0.894" stop-color="#d6587e"/>
      <stop offset="0.909" stop-color="#ff6996"/>
      <stop offset="0.938" stop-color="#a54461"/>
      <stop offset="0.968" stop-color="#4d1f2d"/>
      <stop offset="0.99" stop-color="#15080c"/>
      <stop offset="1"/>
    </linearGradient>
    <linearGradient id="linear-gradient-3" y1="0.5" x2="1" y2="0.5" gradientUnits="objectBoundingBox">
      <stop offset="0" stop-color="#3f5faa"/>
      <stop offset="0.29" stop-color="#547ee3"/>
      <stop offset="0.694" stop-color="#3f5faa"/>
      <stop offset="0.996" stop-color="#547ee3"/>
    </linearGradient>
    <radialGradient id="radial-gradient" cx="-0.257" cy="0.129" r="1.211" gradientTransform="translate(-0.025) scale(1.05 1)" gradientUnits="objectBoundingBox">
      <stop offset="0" stop-color="#25528d"/>
      <stop offset="1" stop-color="#220e3f"/>
    </radialGradient>
  </defs>
  <g transform="translate(0 278.648)" opacity="0.87" style="mix-blend-mode: multiply;isolation: isolate">
    <path d="M2457.906,1409.3l-426.27-221.491a5.009,5.009,0,0,1,0-8.494l19.289-21.515,270.969-148.7a13.46,13.46,0,0,1,13.263,0L2750.411,1240.8c6.168,3.443,6.168,13.263,0,16.7L2478.34,1409.3A20.731,20.731,0,0,1,2457.906,1409.3Z" transform="translate(-2029.284 -1007.356)" fill="#fff" opacity="0.46"/>
    <path d="M2322.939,1010.174a13.43,13.43,0,0,1,13.2,0l413.856,230.318c6.137,3.413,6.137,13.151,0,16.563l-270.936,150.263a20.692,20.692,0,0,1-20.332,0l-424.365-220.311a4.958,4.958,0,0,1,0-8.422l19.358-21.093Z" transform="translate(-2030.499 -1007.838)" fill="#f5f5f5" opacity="0.481"/>
    <path d="M2323.983,1011.245a13.407,13.407,0,0,1,13.132,0l412.457,228.944c6.106,3.385,6.106,13.039,0,16.422l-269.8,148.723a20.651,20.651,0,0,1-20.231,0L2037.081,1186.2a4.907,4.907,0,0,1,0-8.351l19.426-20.67Z" transform="translate(-2031.713 -1008.32)" fill="#ebebeb" opacity="0.502"/>
    <path d="M2325.027,1012.316a13.385,13.385,0,0,1,13.066,0l411.059,227.569c6.076,3.356,6.076,12.928,0,16.282L2480.488,1403.35a20.613,20.613,0,0,1-20.13,0L2039.8,1185.4a4.856,4.856,0,0,1,0-8.279l19.494-20.248Z" transform="translate(-2032.927 -1008.803)" fill="#e2e2e2" opacity="0.522"/>
    <path d="M2326.072,1013.387a13.355,13.355,0,0,1,13,0l409.661,226.195c6.045,3.326,6.045,12.816,0,16.141L2481.2,1401.366a20.577,20.577,0,0,1-20.029,0L2042.526,1184.6a4.8,4.8,0,0,1,0-8.208l19.563-19.825Z" transform="translate(-2034.142 -1009.285)" fill="#d8d8d8" opacity="0.543"/>
    <path d="M2327.116,1014.458a13.332,13.332,0,0,1,12.935,0l408.262,224.821c6.015,3.3,6.015,12.7,0,16l-266.393,144.1a20.537,20.537,0,0,1-19.928,0l-416.744-215.587a4.754,4.754,0,0,1,0-8.136l19.631-19.4Z" transform="translate(-2035.356 -1009.767)" fill="#cecece" opacity="0.564"/>
    <path d="M2328.159,1015.529a13.313,13.313,0,0,1,12.87,0l406.863,223.446c5.984,3.269,5.984,12.593,0,15.86L2482.635,1397.4a20.5,20.5,0,0,1-19.827,0L2047.97,1182.992a4.7,4.7,0,0,1,0-8.064l19.7-18.981Z" transform="translate(-2036.57 -1010.25)" fill="#c4c4c4" opacity="0.585"/>
    <path d="M2329.2,1016.6a13.284,13.284,0,0,1,12.8,0l405.466,222.072c5.954,3.239,5.954,12.481,0,15.719l-264.122,141.022a20.464,20.464,0,0,1-19.725,0l-412.934-213.226a4.652,4.652,0,0,1,0-7.993l19.768-18.559Z" transform="translate(-2037.785 -1010.732)" fill="#bababa" opacity="0.605"/>
    <path d="M2330.248,1017.672a13.262,13.262,0,0,1,12.738,0l404.067,220.7c5.923,3.211,5.923,12.37,0,15.579L2484.067,1393.43a20.426,20.426,0,0,1-19.625,0l-411.028-212.045a4.6,4.6,0,0,1,0-7.922l19.837-18.136Z" transform="translate(-2038.999 -1011.214)" fill="#b1b1b1" opacity="0.626"/>
    <path d="M2331.292,1018.742a13.24,13.24,0,0,1,12.673,0l402.668,219.324c5.893,3.181,5.893,12.257,0,15.438l-261.85,137.942a20.394,20.394,0,0,1-19.524,0l-409.123-210.864a4.551,4.551,0,0,1,0-7.85l19.905-17.714Z" transform="translate(-2040.214 -1011.696)" fill="#a7a7a7" opacity="0.647"/>
    <path d="M2332.336,1019.814a13.215,13.215,0,0,1,12.607,0l401.271,217.949c5.862,3.152,5.862,12.146,0,15.3l-260.714,136.4a20.359,20.359,0,0,1-19.423,0l-407.217-209.683a4.5,4.5,0,0,1,0-7.778l19.973-17.292Z" transform="translate(-2041.428 -1012.179)" fill="#9d9d9d" opacity="0.668"/>
    <path d="M2333.38,1020.885a13.2,13.2,0,0,1,12.542,0l399.872,216.575c5.832,3.124,5.832,12.034,0,15.156l-259.579,134.862a20.326,20.326,0,0,1-19.322,0l-405.312-208.5a4.45,4.45,0,0,1,0-7.707l20.041-16.869Z" transform="translate(-2042.642 -1012.661)" fill="#939393" opacity="0.688"/>
    <path d="M2334.424,1021.956a13.173,13.173,0,0,1,12.476,0l398.473,215.2c5.8,3.095,5.8,11.923,0,15.016l-258.443,133.322a20.292,20.292,0,0,1-19.221,0L2064.3,1178.172a4.4,4.4,0,0,1,0-7.635l20.109-16.447Z" transform="translate(-2043.857 -1013.143)" fill="#898989" opacity="0.709"/>
    <path d="M2335.469,1023.027a13.15,13.15,0,0,1,12.41,0l397.075,213.826a8.554,8.554,0,0,1,0,14.875L2487.647,1383.51a20.257,20.257,0,0,1-19.12,0l-401.5-206.14a4.349,4.349,0,0,1,0-7.564l20.178-16.026Z" transform="translate(-2045.071 -1013.626)" fill="gray" opacity="0.73"/>
    <path d="M2336.513,1024.1a13.131,13.131,0,0,1,12.344,0l395.677,212.451a8.457,8.457,0,0,1,0,14.735l-256.171,130.241a20.224,20.224,0,0,1-19.019,0l-399.6-204.96a4.3,4.3,0,0,1,0-7.493l20.246-15.6Z" transform="translate(-2046.286 -1014.108)" fill="#767676" opacity="0.751"/>
    <path d="M2337.557,1025.169a13.111,13.111,0,0,1,12.28,0l394.279,211.077a8.358,8.358,0,0,1,0,14.594l-255.036,128.7a20.191,20.191,0,0,1-18.918,0l-397.692-203.779a4.25,4.25,0,0,1,0-7.421l20.315-15.181Z" transform="translate(-2047.5 -1014.59)" fill="#6c6c6c" opacity="0.772"/>
    <path d="M2338.6,1026.241a13.089,13.089,0,0,1,12.214,0l392.88,209.7a8.26,8.26,0,0,1,0,14.454l-253.9,127.161a20.162,20.162,0,0,1-18.817,0l-395.787-202.6a4.2,4.2,0,0,1,0-7.349l20.384-14.758Z" transform="translate(-2048.714 -1015.073)" fill="#626262" opacity="0.792"/>
    <path d="M2339.645,1027.311a13.069,13.069,0,0,1,12.148,0l391.482,208.328a8.162,8.162,0,0,1,0,14.313l-252.764,125.621a20.131,20.131,0,0,1-18.716,0l-393.881-201.417a4.151,4.151,0,0,1,0-7.278l20.452-14.336Z" transform="translate(-2049.929 -1015.555)" fill="#585858" opacity="0.813"/>
    <path d="M2340.689,1028.382a13.053,13.053,0,0,1,12.083,0l390.083,206.954a8.065,8.065,0,0,1,0,14.172l-251.629,124.08a20.1,20.1,0,0,1-18.615,0l-391.976-200.236a4.1,4.1,0,0,1,0-7.206l20.52-13.914Z" transform="translate(-2051.143 -1016.038)" fill="#4e4e4e" opacity="0.834"/>
    <path d="M2341.733,1029.454a13.033,13.033,0,0,1,12.017,0l388.685,205.58a7.967,7.967,0,0,1,0,14.031l-250.492,122.541a20.075,20.075,0,0,1-18.514,0L2083.359,1172.55a4.051,4.051,0,0,1,0-7.135l20.589-13.492Z" transform="translate(-2052.358 -1016.52)" fill="#454545" opacity="0.855"/>
    <path d="M2342.778,1030.525a13.014,13.014,0,0,1,11.951,0l387.287,204.205a7.871,7.871,0,0,1,0,13.891l-249.357,121a20.045,20.045,0,0,1-18.413,0l-388.166-197.875a4,4,0,0,1,0-7.064l20.657-13.069Z" transform="translate(-2053.572 -1017.002)" fill="#3b3b3b" opacity="0.875"/>
    <path d="M2343.822,1031.6a13,13,0,0,1,11.886,0L2741.6,1234.427a7.774,7.774,0,0,1,0,13.75l-248.221,119.461a20.02,20.02,0,0,1-18.312,0L2088.8,1170.943a3.953,3.953,0,0,1,0-6.992l20.725-12.647Z" transform="translate(-2054.787 -1017.485)" fill="#313131" opacity="0.896"/>
    <path d="M2344.866,1032.667a12.976,12.976,0,0,1,11.82,0l384.491,201.456a7.678,7.678,0,0,1,0,13.61l-247.086,117.92a19.991,19.991,0,0,1-18.21,0L2091.525,1170.14a3.9,3.9,0,0,1,0-6.92l20.794-12.225Z" transform="translate(-2056.001 -1017.967)" fill="#272727" opacity="0.917"/>
    <path d="M2345.91,1033.738a12.962,12.962,0,0,1,11.754,0l383.092,200.082a7.581,7.581,0,0,1,0,13.469l-245.95,116.38a19.965,19.965,0,0,1-18.109,0l-382.449-194.332a3.855,3.855,0,0,1,0-6.849l20.862-11.8Z" transform="translate(-2057.216 -1018.449)" fill="#1d1d1d" opacity="0.938"/>
    <path d="M2346.954,1034.809a12.949,12.949,0,0,1,11.689,0l381.694,198.708a7.486,7.486,0,0,1,0,13.329l-244.814,114.84a19.942,19.942,0,0,1-18.008,0L2096.97,1168.534a3.806,3.806,0,0,1,0-6.777l20.93-11.38Z" transform="translate(-2058.43 -1018.932)" fill="#141414" opacity="0.958"/>
    <path d="M2348,1035.88a12.929,12.929,0,0,1,11.623,0l380.3,197.333a7.39,7.39,0,0,1,0,13.188l-243.678,113.3a19.919,19.919,0,0,1-17.907,0L2099.692,1167.73a3.757,3.757,0,0,1,0-6.705l21-10.959Z" transform="translate(-2059.644 -1019.414)" fill="#0a0a0a" opacity="0.979"/>
    <path d="M2479.148,1357.717l-376.734-190.79a3.709,3.709,0,0,1,0-6.635l246.629-123.342a12.917,12.917,0,0,1,11.558,0l378.9,195.959a7.294,7.294,0,0,1,0,13.046l-242.542,111.76A19.9,19.9,0,0,1,2479.148,1357.717Z" transform="translate(-2060.859 -1019.896)"/>
  </g>
  <g transform="translate(21.483 0)">
    <g transform="translate(0 282.819)">
      <path d="M2465.954,1370.468l-393.721-196.475c-2.957-1.478-7.219-11.519-1.4-14.966l266.732-121.768a13.971,13.971,0,0,1,12.5,0l392.506,184.793c5.813,2.907,4.67,22.135-1.142,25.042l-256.216,123.374A21.521,21.521,0,0,1,2465.954,1370.468Z" transform="translate(-2067.937 -1024.155)" fill="#4358ab"/>
      <path d="M2466.293,1354.408l-394.919-197.5a4.011,4.011,0,0,1,0-7.175l266.732-133.4a13.971,13.971,0,0,1,12.5,0l391.364,195.724a7.889,7.889,0,0,1,0,14.111L2485.55,1354.408A21.516,21.516,0,0,1,2466.293,1354.408Z" transform="translate(-2068.479 -1014.861)" fill="url(#linear-gradient)"/>
      <path d="M2466.293,1354.408l-394.919-197.5a4.011,4.011,0,0,1,0-7.175l266.732-133.4a13.971,13.971,0,0,1,12.5,0l391.364,195.724a7.889,7.889,0,0,1,0,14.111L2485.55,1354.408A21.516,21.516,0,0,1,2466.293,1354.408Z" transform="translate(-2068.479 -1014.861)" fill="url(#linear-gradient-2)" style="mix-blend-mode: color-dodge;isolation: isolate"/>
      <path d="M2828.887,1231.039l-356.141-178.124c-6.529-3.265-17.114-3.265-23.643,0l-92.178,46.1c-6.527,3.265-6.527,8.56,0,11.824l356.141,178.125c6.529,3.265,17.114,3.265,23.644,0l92.177-46.1C2835.416,1239.6,2835.416,1234.3,2828.887,1231.039Z" transform="translate(-2194.135 -1030.677)" fill="#162359"/>
      <g transform="translate(158.561 24.672)">
        <g transform="translate(9.708)">
            <path d="M2627.3,1116.748l-14.317-7.16,14.317-7.161,14.317,7.161Z" transform="translate(-2478.32 -1078.431)" fill="url(#linear-gradient-3)"/>
            <path d="M2540.967,1073.573l-14.316-7.16,14.316-7.16,14.318,7.16Z" transform="translate(-2439.971 -1059.252)" fill="url(#linear-gradient-3)"/>
            <path d="M2445.284,1142.711l-35.6-17.8,14.316-7.161,35.6,17.8Z" transform="translate(-2388.013 -1085.236)" fill="url(#linear-gradient-3)"/>
            <path d="M2386.429,1152.276l-15.736-7.871,14.318-7.16,15.738,7.87Z" transform="translate(-2370.693 -1093.898)" fill="url(#linear-gradient-3)"/>
            <path d="M2430.524,1174.328l-15.736-7.868,14.318-7.16,15.736,7.868Z" transform="translate(-2390.281 -1103.694)" fill="url(#linear-gradient-3)"/>
            <path d="M2474.62,1196.38l-15.736-7.871,14.316-7.159,15.737,7.87Z" transform="translate(-2409.868 -1113.489)" fill="url(#linear-gradient-3)"/>
            <path d="M2904.539,1411.386l-15.737-7.87,14.317-7.161,15.739,7.871Z" transform="translate(-2600.843 -1208.997)" fill="url(#linear-gradient-3)"/>
            <path d="M2948.635,1433.439l-15.737-7.87,14.317-7.159,15.736,7.867Z" transform="translate(-2620.431 -1218.795)" fill="url(#linear-gradient-3)"/>
            <path d="M2992.729,1455.49l-15.738-7.87,14.317-7.161,15.739,7.869Z" transform="translate(-2640.017 -1228.589)" fill="url(#linear-gradient-3)"/>
            <path d="M2703.355,1310.773l-200.38-100.21,14.318-7.161,200.379,100.211Z" transform="translate(-2429.454 -1123.285)" fill="url(#linear-gradient-3)"/>
            <path d="M3017.582,1428.925l-35.6-17.806,14.317-7.159,35.6,17.8Z" transform="translate(-2642.234 -1212.375)" fill="url(#linear-gradient-3)"/>
            <path d="M2753.267,1296.735l-263.518-131.786,14.318-7.161,263.515,131.789Z" transform="translate(-2423.579 -1103.023)" fill="url(#linear-gradient-3)"/>
            <path d="M2669.073,1137.638l-14.319-7.16,14.319-7.161,14.317,7.161Z" transform="translate(-2496.876 -1087.711)" fill="url(#linear-gradient-3)"/>
            <path d="M2710.847,1158.529l-14.317-7.16,14.317-7.161,14.317,7.161Z" transform="translate(-2515.434 -1096.991)" fill="url(#linear-gradient-3)"/>
            <path d="M2752.62,1179.422l-14.316-7.16,14.316-7.159,14.317,7.159Z" transform="translate(-2533.99 -1106.272)" fill="url(#linear-gradient-3)"/>
            <path d="M2824.1,1215.17l-14.319-7.162,14.319-7.159,14.318,7.159Z" transform="translate(-2565.74 -1122.151)" fill="url(#linear-gradient-3)"/>
            <path d="M2865.873,1236.062l-14.317-7.161,14.317-7.161,14.318,7.161Z" transform="translate(-2584.298 -1131.432)" fill="url(#linear-gradient-3)"/>
            <path d="M2907.647,1256.953l-14.317-7.161,14.317-7.161,14.318,7.161Z" transform="translate(-2602.854 -1140.711)" fill="url(#linear-gradient-3)"/>
            <path d="M2949.422,1277.844l-14.319-7.16,14.319-7.16,14.316,7.16Z" transform="translate(-2621.41 -1149.992)" fill="url(#linear-gradient-3)"/>
            <path d="M3020.9,1313.59l-14.317-7.16,14.317-7.16,14.317,7.16Z" transform="translate(-2653.163 -1165.871)" fill="url(#linear-gradient-3)"/>
            <path d="M3062.672,1334.48l-14.317-7.16,14.317-7.16,14.32,7.16Z" transform="translate(-2671.718 -1175.151)" fill="url(#linear-gradient-3)"/>
            <path d="M3104.447,1355.374l-14.317-7.162,14.317-7.161,14.318,7.161Z" transform="translate(-2690.275 -1184.431)" fill="url(#linear-gradient-3)"/>
            <path d="M3146.221,1376.264,3131.9,1369.1l14.318-7.16,14.317,7.16Z" transform="translate(-2708.832 -1193.711)" fill="url(#linear-gradient-3)"/>
            <path d="M2841.337,1262.786l-353.677-176.876,14.317-7.161,353.677,176.877Z" transform="translate(-2422.651 -1067.913)" fill="url(#linear-gradient-3)"/>
            <path d="M2802.348,1282.285l-353.679-176.876,14.318-7.162,353.678,176.877Z" transform="translate(-2405.331 -1076.574)" fill="url(#linear-gradient-3)"/>
        </g>
        <g transform="translate(0 113.692)">
          <path d="M2496.526,1376.176l-140.142-67.19c-2.17-1.084-5.585-4.856-.533-8.43l72.847-36.432a2.944,2.944,0,0,1,2.635,0l140.675,70.352a2.946,2.946,0,0,1,0,5.268l-72.848,36.432A2.945,2.945,0,0,1,2496.526,1376.176Z" transform="translate(-2353.227 -1263.812)" fill="#29376e"/>
          <path d="M2497.324,1381.387l-140.676-70.353a2.946,2.946,0,0,1,0-5.268l72.847-36.43a2.943,2.943,0,0,1,2.635,0l140.675,70.352a2.946,2.946,0,0,1,0,5.269l-72.847,36.431A2.945,2.945,0,0,1,2497.324,1381.387Z" transform="translate(-2354.024 -1266.127)" opacity="0.41" fill="url(#linear-gradient-2)" style="mix-blend-mode: color-dodge;isolation: isolate"/>
        </g>
      </g>
      <path d="M3215.633,1427.294l-26.3,13.153v-4.989l26.3-13.152Z" transform="translate(-2566.073 -1195.853)" fill="#162359"/>
      <path d="M3155.286,1456.851l-26.3,13.153v-4.988l26.3-13.153Z" transform="translate(-2539.266 -1208.983)" fill="#162359"/>
      <path d="M3268.51,1405.637a8.266,8.266,0,0,1-4.394,6.592c-2.426,1.214-4.395.231-4.395-2.2a8.271,8.271,0,0,1,4.395-6.592C3266.543,1402.226,3268.51,1403.21,3268.51,1405.637Z" transform="translate(-2597.341 -1187.241)" fill="#162359"/>
    </g>
    <g transform="translate(280.546)">
      <path d="M2960.25,980.846l-366.737-190.2c-5.039-2.535-7.575-7.931-6.552-13.94l35.7-245.442c2.018-11.849,6.267-31.085,28.439-23.569l379.18,194.932c4.979,2.533,7.464,7.914,6.421,13.9l-48.016,260.314C2986.651,988.528,2970.012,985.756,2960.25,980.846Z" transform="translate(-2578.94 -506)" fill="#324280"/>
      <path d="M3024.856,720.417l-44.984,248.038c-1.572,18.161-7.354,21.336-13.846,19.963-3.941-.833-8.15-3.347-11.835-5.2l-374.7-188.45c-5.041-2.533-7.578-7.932-6.559-13.937l44.355-250.263c2.018-11.85,4.739-27.511,25.963-14.829L3018.434,706.52a12.363,12.363,0,0,1,2.2,1.432C3024.12,710.8,3025.732,715.395,3024.856,720.417Z" transform="translate(-2572.708 -508.234)" fill="#11162b"/>
      <path d="M2967.7,986.621,2595.48,800.027c-3.517-1.791-7.894-6.248-7.3-9.9l45.716-257.86c.465-2.853,3.352-3.89,6.45-2.325l378.965,191.584c3.225,1.662,5.343,5.616,4.737,8.836l-49.467,253.107C2974,986.589,2970.915,988,2967.7,986.621Z" transform="translate(-2579.557 -516.312)" fill="url(#radial-gradient)" style="mix-blend-mode: screen;isolation: isolate"/>
    </g>
  </g>
</svg>
