<svg xmlns="http://www.w3.org/2000/svg" width="36.044" height="29.5" viewBox="0 0 36.044 29.5">
  <path id="social-media_1_" data-name="social-media (1)" d="M36.044,3.94c-2.267.1-2.218.1-2.474.117L34.912.223S30.721,1.765,29.658,2.04a8.41,8.41,0,0,0-9.9-.8,6.859,6.859,0,0,0-3.3,7.053A18.3,18.3,0,0,1,4.6,1.624L3.61.43,2.867,1.795a8.246,8.246,0,0,0-.878,5.551,7.975,7.975,0,0,0,.773,2.167l-.853-.331-.1,1.425A7.6,7.6,0,0,0,3.1,15.128a8.039,8.039,0,0,0,1,1.239L3.661,16.3,4.2,17.932A7.939,7.939,0,0,0,8.28,22.661c-1.9.808-3.441,1.323-5.968,2.154L0,25.576l2.136,1.168A22.416,22.416,0,0,0,8.67,29.121c6.319.991,13.434.184,18.224-4.13,4.034-3.633,5.358-8.8,5.083-14.181a3.36,3.36,0,0,1,.628-2.188c.895-1.194,3.433-4.675,3.439-4.683ZM30.917,7.358a5.473,5.473,0,0,0-1.047,3.561c.277,5.425-1.2,9.633-4.388,12.5C21.757,26.779,15.748,28.1,9,27.037a16.348,16.348,0,0,1-3.532-1.05,56.007,56.007,0,0,0,6.4-2.629l3.689-1.746-4.073-.261A5.76,5.76,0,0,1,6.9,18.746a7.3,7.3,0,0,0,1.55-.258l3.884-1.082-3.917-.959a5.834,5.834,0,0,1-3.563-2.478,5.974,5.974,0,0,1-.772-1.7,9.778,9.778,0,0,0,1.589.254l3.625.359L6.429,10.635A6.046,6.046,0,0,1,4.138,4.265a21.012,21.012,0,0,0,14.806,6.373,12.5,12.5,0,0,0-.216-1.791,4.849,4.849,0,0,1,2.131-5.8,6.308,6.308,0,0,1,7.442.616,1.89,1.89,0,0,0,1.734.464,14.6,14.6,0,0,0,1.429-.434l-.911,2.6h1.163l-.8,1.069Zm0,0" transform="translate(0 0)" fill="#fff"/>
</svg>
