<svg xmlns="http://www.w3.org/2000/svg" xmlns:xlink="http://www.w3.org/1999/xlink" width="248" height="257" viewBox="0 0 248 257">
  <defs>
    <clipPath id="clip-path">
      <rect id="Ret칙ngulo_43" data-name="Ret칙ngulo 43" width="248" height="257" transform="translate(41 766)" fill="#fff" stroke="#707070" stroke-width="1"/>
    </clipPath>
  </defs>
  <g id="Grupo_de_m치scara_1" data-name="Grupo de m치scara 1" transform="translate(-41 -766)" clip-path="url(#clip-path)">
    <g id="Grupo_2318" data-name="Grupo 2318" transform="translate(68.205 3763.568) rotate(-90)">
      <path id="Caminho_3104" data-name="Caminho 3104" d="M2965.136,44.019a3.505,3.505,0,1,0,3.506,3.506A3.507,3.507,0,0,0,2965.136,44.019Z" fill="#12b0ff" fill-rule="evenodd"/>
      <path id="Caminho_3105" data-name="Caminho 3105" d="M2943.1,44.019a3.505,3.505,0,1,0,3.5,3.506A3.506,3.506,0,0,0,2943.1,44.019Z" fill="#12b0ff" fill-rule="evenodd"/>
      <path id="Caminho_3106" data-name="Caminho 3106" d="M2921.06,44.019a3.505,3.505,0,1,0,3.506,3.506A3.506,3.506,0,0,0,2921.06,44.019Z" fill="#12b0ff" fill-rule="evenodd"/>
      <path id="Caminho_3107" data-name="Caminho 3107" d="M2899.023,44.019a3.505,3.505,0,1,0,3.505,3.506A3.506,3.506,0,0,0,2899.023,44.019Z" fill="#12b0ff" fill-rule="evenodd"/>
      <path id="Caminho_3108" data-name="Caminho 3108" d="M2876.985,44.019a3.505,3.505,0,1,0,3.506,3.506A3.506,3.506,0,0,0,2876.985,44.019Z" fill="#12b0ff" fill-rule="evenodd"/>
      <path id="Caminho_3109" data-name="Caminho 3109" d="M2854.947,44.019a3.505,3.505,0,1,0,3.5,3.506A3.506,3.506,0,0,0,2854.947,44.019Z" fill="#12b0ff" fill-rule="evenodd"/>
      <path id="Caminho_3110" data-name="Caminho 3110" d="M2832.909,44.019a3.505,3.505,0,1,0,3.506,3.506A3.507,3.507,0,0,0,2832.909,44.019Z" fill="#12b0ff" fill-rule="evenodd"/>
      <path id="Caminho_3111" data-name="Caminho 3111" d="M2810.872,44.019a3.505,3.505,0,1,0,3.5,3.506A3.506,3.506,0,0,0,2810.872,44.019Z" fill="#12b0ff" fill-rule="evenodd"/>
      <path id="Caminho_3112" data-name="Caminho 3112" d="M2788.833,44.019a3.505,3.505,0,1,0,3.506,3.506A3.506,3.506,0,0,0,2788.833,44.019Z" fill="#12b0ff" fill-rule="evenodd"/>
      <path id="Caminho_3113" data-name="Caminho 3113" d="M2766.8,44.019a3.505,3.505,0,1,0,3.505,3.506A3.506,3.506,0,0,0,2766.8,44.019Z" fill="#12b0ff" fill-rule="evenodd"/>
      <path id="Caminho_3114" data-name="Caminho 3114" d="M2744.758,44.019a3.505,3.505,0,1,0,3.506,3.506A3.506,3.506,0,0,0,2744.758,44.019Z" fill="#12b0ff" fill-rule="evenodd"/>
      <path id="Caminho_3115" data-name="Caminho 3115" d="M2722.719,44.019a3.505,3.505,0,1,0,3.506,3.506A3.505,3.505,0,0,0,2722.719,44.019Z" fill="#12b0ff" fill-rule="evenodd"/>
      <path id="Caminho_3116" data-name="Caminho 3116" d="M2700.682,44.019a3.505,3.505,0,1,0,3.507,3.506A3.506,3.506,0,0,0,2700.682,44.019Z" fill="#12b0ff" fill-rule="evenodd"/>
      <path id="Caminho_3117" data-name="Caminho 3117" d="M2678.644,44.019a3.505,3.505,0,1,0,3.506,3.506A3.506,3.506,0,0,0,2678.644,44.019Z" fill="#12b0ff" fill-rule="evenodd"/>
      <path id="Caminho_3118" data-name="Caminho 3118" d="M2656.606,44.019a3.505,3.505,0,1,0,3.507,3.506A3.507,3.507,0,0,0,2656.606,44.019Z" fill="#12b0ff" fill-rule="evenodd"/>
      <path id="Caminho_3119" data-name="Caminho 3119" d="M2634.568,44.019a3.505,3.505,0,1,0,3.506,3.506A3.506,3.506,0,0,0,2634.568,44.019Z" fill="#12b0ff" fill-rule="evenodd"/>
      <path id="Caminho_3120" data-name="Caminho 3120" d="M2612.531,44.019a3.505,3.505,0,1,0,3.5,3.506A3.506,3.506,0,0,0,2612.531,44.019Z" fill="#12b0ff" fill-rule="evenodd"/>
      <path id="Caminho_3121" data-name="Caminho 3121" d="M2590.492,44.019A3.505,3.505,0,1,0,2594,47.525,3.506,3.506,0,0,0,2590.492,44.019Z" fill="#12b0ff" fill-rule="evenodd"/>
      <path id="Caminho_3122" data-name="Caminho 3122" d="M2568.455,44.019a3.505,3.505,0,1,0,3.5,3.506A3.506,3.506,0,0,0,2568.455,44.019Z" fill="#12b0ff" fill-rule="evenodd"/>
      <path id="Caminho_3123" data-name="Caminho 3123" d="M2546.417,44.019a3.505,3.505,0,1,0,3.506,3.506A3.505,3.505,0,0,0,2546.417,44.019Z" fill="#12b0ff" fill-rule="evenodd"/>
      <path id="Caminho_3124" data-name="Caminho 3124" d="M2524.379,44.019a3.505,3.505,0,1,0,3.507,3.506A3.506,3.506,0,0,0,2524.379,44.019Z" fill="#12b0ff" fill-rule="evenodd"/>
      <path id="Caminho_3125" data-name="Caminho 3125" d="M2965.136,64.429a3.506,3.506,0,1,0,3.506,3.5A3.506,3.506,0,0,0,2965.136,64.429Z" fill="#12b0ff" fill-rule="evenodd"/>
      <path id="Caminho_3126" data-name="Caminho 3126" d="M2943.1,64.429a3.506,3.506,0,1,0,3.5,3.5A3.506,3.506,0,0,0,2943.1,64.429Z" fill="#12b0ff" fill-rule="evenodd"/>
      <path id="Caminho_3127" data-name="Caminho 3127" d="M2921.06,64.429a3.506,3.506,0,1,0,3.506,3.5A3.5,3.5,0,0,0,2921.06,64.429Z" fill="#12b0ff" fill-rule="evenodd"/>
      <path id="Caminho_3128" data-name="Caminho 3128" d="M2899.023,64.429a3.506,3.506,0,1,0,3.505,3.5A3.5,3.5,0,0,0,2899.023,64.429Z" fill="#12b0ff" fill-rule="evenodd"/>
      <path id="Caminho_3129" data-name="Caminho 3129" d="M2876.985,64.429a3.506,3.506,0,1,0,3.506,3.5A3.5,3.5,0,0,0,2876.985,64.429Z" fill="#12b0ff" fill-rule="evenodd"/>
      <path id="Caminho_3130" data-name="Caminho 3130" d="M2854.947,64.429a3.506,3.506,0,1,0,3.5,3.5A3.5,3.5,0,0,0,2854.947,64.429Z" fill="#12b0ff" fill-rule="evenodd"/>
      <path id="Caminho_3131" data-name="Caminho 3131" d="M2832.909,64.429a3.506,3.506,0,1,0,3.506,3.5A3.506,3.506,0,0,0,2832.909,64.429Z" fill="#12b0ff" fill-rule="evenodd"/>
      <path id="Caminho_3132" data-name="Caminho 3132" d="M2810.872,64.429a3.506,3.506,0,1,0,3.5,3.5A3.5,3.5,0,0,0,2810.872,64.429Z" fill="#12b0ff" fill-rule="evenodd"/>
      <path id="Caminho_3133" data-name="Caminho 3133" d="M2788.833,64.429a3.506,3.506,0,1,0,3.506,3.5A3.506,3.506,0,0,0,2788.833,64.429Z" fill="#12b0ff" fill-rule="evenodd"/>
      <path id="Caminho_3134" data-name="Caminho 3134" d="M2766.8,64.429a3.506,3.506,0,1,0,3.505,3.5A3.5,3.5,0,0,0,2766.8,64.429Z" fill="#12b0ff" fill-rule="evenodd"/>
      <path id="Caminho_3135" data-name="Caminho 3135" d="M2744.758,64.429a3.506,3.506,0,1,0,3.506,3.5A3.505,3.505,0,0,0,2744.758,64.429Z" fill="#12b0ff" fill-rule="evenodd"/>
      <path id="Caminho_3136" data-name="Caminho 3136" d="M2722.719,64.429a3.506,3.506,0,1,0,3.506,3.5A3.5,3.5,0,0,0,2722.719,64.429Z" fill="#12b0ff" fill-rule="evenodd"/>
      <path id="Caminho_3137" data-name="Caminho 3137" d="M2700.682,64.429a3.506,3.506,0,1,0,3.507,3.5A3.506,3.506,0,0,0,2700.682,64.429Z" fill="#12b0ff" fill-rule="evenodd"/>
      <path id="Caminho_3138" data-name="Caminho 3138" d="M2678.644,64.429a3.506,3.506,0,1,0,3.506,3.5A3.5,3.5,0,0,0,2678.644,64.429Z" fill="#12b0ff" fill-rule="evenodd"/>
      <path id="Caminho_3139" data-name="Caminho 3139" d="M2656.606,64.429a3.506,3.506,0,1,0,3.507,3.5A3.506,3.506,0,0,0,2656.606,64.429Z" fill="#12b0ff" fill-rule="evenodd"/>
      <path id="Caminho_3140" data-name="Caminho 3140" d="M2634.568,64.429a3.506,3.506,0,1,0,3.506,3.5A3.5,3.5,0,0,0,2634.568,64.429Z" fill="#12b0ff" fill-rule="evenodd"/>
      <path id="Caminho_3141" data-name="Caminho 3141" d="M2612.531,64.429a3.506,3.506,0,1,0,3.5,3.5A3.506,3.506,0,0,0,2612.531,64.429Z" fill="#12b0ff" fill-rule="evenodd"/>
      <path id="Caminho_3142" data-name="Caminho 3142" d="M2590.492,64.429a3.506,3.506,0,1,0,3.506,3.5A3.505,3.505,0,0,0,2590.492,64.429Z" fill="#12b0ff" fill-rule="evenodd"/>
      <path id="Caminho_3143" data-name="Caminho 3143" d="M2568.455,64.429a3.506,3.506,0,1,0,3.5,3.5A3.5,3.5,0,0,0,2568.455,64.429Z" fill="#12b0ff" fill-rule="evenodd"/>
      <path id="Caminho_3144" data-name="Caminho 3144" d="M2546.417,64.429a3.506,3.506,0,1,0,3.506,3.5A3.5,3.5,0,0,0,2546.417,64.429Z" fill="#12b0ff" fill-rule="evenodd"/>
      <path id="Caminho_3145" data-name="Caminho 3145" d="M2524.379,64.429a3.506,3.506,0,1,0,3.507,3.5A3.5,3.5,0,0,0,2524.379,64.429Z" fill="#12b0ff" fill-rule="evenodd"/>
      <path id="Caminho_3146" data-name="Caminho 3146" d="M2965.136,84.838a3.507,3.507,0,1,0,3.506,3.506A3.507,3.507,0,0,0,2965.136,84.838Z" fill="#12b0ff" fill-rule="evenodd"/>
      <path id="Caminho_3147" data-name="Caminho 3147" d="M2943.1,84.838a3.507,3.507,0,1,0,3.5,3.506A3.506,3.506,0,0,0,2943.1,84.838Z" fill="#12b0ff" fill-rule="evenodd"/>
      <path id="Caminho_3148" data-name="Caminho 3148" d="M2921.06,84.838a3.507,3.507,0,1,0,3.506,3.506A3.506,3.506,0,0,0,2921.06,84.838Z" fill="#12b0ff" fill-rule="evenodd"/>
      <path id="Caminho_3149" data-name="Caminho 3149" d="M2899.023,84.838a3.507,3.507,0,1,0,3.505,3.506A3.506,3.506,0,0,0,2899.023,84.838Z" fill="#12b0ff" fill-rule="evenodd"/>
      <path id="Caminho_3150" data-name="Caminho 3150" d="M2876.985,84.838a3.507,3.507,0,1,0,3.506,3.506A3.506,3.506,0,0,0,2876.985,84.838Z" fill="#12b0ff" fill-rule="evenodd"/>
      <path id="Caminho_3151" data-name="Caminho 3151" d="M2854.947,84.838a3.507,3.507,0,1,0,3.5,3.506A3.506,3.506,0,0,0,2854.947,84.838Z" fill="#12b0ff" fill-rule="evenodd"/>
      <path id="Caminho_3152" data-name="Caminho 3152" d="M2832.909,84.838a3.507,3.507,0,1,0,3.506,3.506A3.507,3.507,0,0,0,2832.909,84.838Z" fill="#12b0ff" fill-rule="evenodd"/>
      <path id="Caminho_3153" data-name="Caminho 3153" d="M2810.872,84.838a3.507,3.507,0,1,0,3.5,3.506A3.506,3.506,0,0,0,2810.872,84.838Z" fill="#12b0ff" fill-rule="evenodd"/>
      <path id="Caminho_3154" data-name="Caminho 3154" d="M2788.833,84.838a3.507,3.507,0,1,0,3.506,3.506A3.506,3.506,0,0,0,2788.833,84.838Z" fill="#12b0ff" fill-rule="evenodd"/>
      <path id="Caminho_3155" data-name="Caminho 3155" d="M2766.8,84.838a3.507,3.507,0,1,0,3.505,3.506A3.506,3.506,0,0,0,2766.8,84.838Z" fill="#12b0ff" fill-rule="evenodd"/>
      <path id="Caminho_3156" data-name="Caminho 3156" d="M2744.758,84.838a3.507,3.507,0,1,0,3.506,3.506A3.506,3.506,0,0,0,2744.758,84.838Z" fill="#12b0ff" fill-rule="evenodd"/>
      <path id="Caminho_3157" data-name="Caminho 3157" d="M2722.719,84.838a3.507,3.507,0,1,0,3.506,3.506A3.505,3.505,0,0,0,2722.719,84.838Z" fill="#12b0ff" fill-rule="evenodd"/>
      <path id="Caminho_3158" data-name="Caminho 3158" d="M2700.682,84.838a3.507,3.507,0,1,0,3.507,3.506A3.506,3.506,0,0,0,2700.682,84.838Z" fill="#12b0ff" fill-rule="evenodd"/>
      <path id="Caminho_3159" data-name="Caminho 3159" d="M2678.644,84.838a3.507,3.507,0,1,0,3.506,3.506A3.506,3.506,0,0,0,2678.644,84.838Z" fill="#12b0ff" fill-rule="evenodd"/>
      <path id="Caminho_3160" data-name="Caminho 3160" d="M2656.606,84.838a3.507,3.507,0,1,0,3.507,3.506A3.507,3.507,0,0,0,2656.606,84.838Z" fill="#12b0ff" fill-rule="evenodd"/>
      <path id="Caminho_3161" data-name="Caminho 3161" d="M2634.568,84.838a3.507,3.507,0,1,0,3.506,3.506A3.506,3.506,0,0,0,2634.568,84.838Z" fill="#12b0ff" fill-rule="evenodd"/>
      <path id="Caminho_3162" data-name="Caminho 3162" d="M2612.531,84.838a3.507,3.507,0,1,0,3.5,3.506A3.506,3.506,0,0,0,2612.531,84.838Z" fill="#12b0ff" fill-rule="evenodd"/>
      <path id="Caminho_3163" data-name="Caminho 3163" d="M2590.492,84.838A3.507,3.507,0,1,0,2594,88.344,3.506,3.506,0,0,0,2590.492,84.838Z" fill="#12b0ff" fill-rule="evenodd"/>
      <path id="Caminho_3164" data-name="Caminho 3164" d="M2568.455,84.838a3.507,3.507,0,1,0,3.5,3.506A3.506,3.506,0,0,0,2568.455,84.838Z" fill="#12b0ff" fill-rule="evenodd"/>
      <path id="Caminho_3165" data-name="Caminho 3165" d="M2546.417,84.838a3.507,3.507,0,1,0,3.506,3.506A3.505,3.505,0,0,0,2546.417,84.838Z" fill="#12b0ff" fill-rule="evenodd"/>
      <path id="Caminho_3166" data-name="Caminho 3166" d="M2524.379,84.838a3.507,3.507,0,1,0,3.507,3.506A3.506,3.506,0,0,0,2524.379,84.838Z" fill="#12b0ff" fill-rule="evenodd"/>
      <path id="Caminho_3167" data-name="Caminho 3167" d="M2965.136,105.248a3.507,3.507,0,1,0,3.506,3.506A3.508,3.508,0,0,0,2965.136,105.248Z" fill="#12b0ff" fill-rule="evenodd"/>
      <path id="Caminho_3168" data-name="Caminho 3168" d="M2943.1,105.248a3.507,3.507,0,1,0,3.5,3.506A3.507,3.507,0,0,0,2943.1,105.248Z" fill="#12b0ff" fill-rule="evenodd"/>
      <path id="Caminho_3169" data-name="Caminho 3169" d="M2921.06,105.248a3.507,3.507,0,1,0,3.506,3.506A3.506,3.506,0,0,0,2921.06,105.248Z" fill="#12b0ff" fill-rule="evenodd"/>
      <path id="Caminho_3170" data-name="Caminho 3170" d="M2899.023,105.248a3.507,3.507,0,1,0,3.505,3.506A3.506,3.506,0,0,0,2899.023,105.248Z" fill="#12b0ff" fill-rule="evenodd"/>
      <path id="Caminho_3171" data-name="Caminho 3171" d="M2876.985,105.248a3.507,3.507,0,1,0,3.506,3.506A3.506,3.506,0,0,0,2876.985,105.248Z" fill="#12b0ff" fill-rule="evenodd"/>
      <path id="Caminho_3172" data-name="Caminho 3172" d="M2854.947,105.248a3.507,3.507,0,1,0,3.5,3.506A3.506,3.506,0,0,0,2854.947,105.248Z" fill="#12b0ff" fill-rule="evenodd"/>
      <path id="Caminho_3173" data-name="Caminho 3173" d="M2832.909,105.248a3.507,3.507,0,1,0,3.506,3.506A3.508,3.508,0,0,0,2832.909,105.248Z" fill="#12b0ff" fill-rule="evenodd"/>
      <path id="Caminho_3174" data-name="Caminho 3174" d="M2810.872,105.248a3.507,3.507,0,1,0,3.5,3.506A3.506,3.506,0,0,0,2810.872,105.248Z" fill="#12b0ff" fill-rule="evenodd"/>
      <path id="Caminho_3175" data-name="Caminho 3175" d="M2788.833,105.248a3.507,3.507,0,1,0,3.506,3.506A3.507,3.507,0,0,0,2788.833,105.248Z" fill="#12b0ff" fill-rule="evenodd"/>
      <path id="Caminho_3176" data-name="Caminho 3176" d="M2766.8,105.248a3.507,3.507,0,1,0,3.505,3.506A3.506,3.506,0,0,0,2766.8,105.248Z" fill="#12b0ff" fill-rule="evenodd"/>
      <path id="Caminho_3177" data-name="Caminho 3177" d="M2744.758,105.248a3.507,3.507,0,1,0,3.506,3.506A3.507,3.507,0,0,0,2744.758,105.248Z" fill="#12b0ff" fill-rule="evenodd"/>
      <path id="Caminho_3178" data-name="Caminho 3178" d="M2722.719,105.248a3.507,3.507,0,1,0,3.506,3.506A3.506,3.506,0,0,0,2722.719,105.248Z" fill="#12b0ff" fill-rule="evenodd"/>
      <path id="Caminho_3179" data-name="Caminho 3179" d="M2700.682,105.248a3.507,3.507,0,1,0,3.507,3.506A3.507,3.507,0,0,0,2700.682,105.248Z" fill="#12b0ff" fill-rule="evenodd"/>
      <path id="Caminho_3180" data-name="Caminho 3180" d="M2678.644,105.248a3.507,3.507,0,1,0,3.506,3.506A3.506,3.506,0,0,0,2678.644,105.248Z" fill="#12b0ff" fill-rule="evenodd"/>
      <path id="Caminho_3181" data-name="Caminho 3181" d="M2656.606,105.248a3.507,3.507,0,1,0,3.507,3.506A3.508,3.508,0,0,0,2656.606,105.248Z" fill="#12b0ff" fill-rule="evenodd"/>
      <path id="Caminho_3182" data-name="Caminho 3182" d="M2634.568,105.248a3.507,3.507,0,1,0,3.506,3.506A3.506,3.506,0,0,0,2634.568,105.248Z" fill="#12b0ff" fill-rule="evenodd"/>
      <path id="Caminho_3183" data-name="Caminho 3183" d="M2612.531,105.248a3.507,3.507,0,1,0,3.5,3.506A3.507,3.507,0,0,0,2612.531,105.248Z" fill="#12b0ff" fill-rule="evenodd"/>
      <path id="Caminho_3184" data-name="Caminho 3184" d="M2590.492,105.248a3.507,3.507,0,1,0,3.506,3.506A3.507,3.507,0,0,0,2590.492,105.248Z" fill="#12b0ff" fill-rule="evenodd"/>
      <path id="Caminho_3185" data-name="Caminho 3185" d="M2568.455,105.248a3.507,3.507,0,1,0,3.5,3.506A3.506,3.506,0,0,0,2568.455,105.248Z" fill="#12b0ff" fill-rule="evenodd"/>
      <path id="Caminho_3186" data-name="Caminho 3186" d="M2546.417,105.248a3.507,3.507,0,1,0,3.506,3.506A3.506,3.506,0,0,0,2546.417,105.248Z" fill="#12b0ff" fill-rule="evenodd"/>
      <path id="Caminho_3187" data-name="Caminho 3187" d="M2524.379,105.248a3.507,3.507,0,1,0,3.507,3.506A3.506,3.506,0,0,0,2524.379,105.248Z" fill="#12b0ff" fill-rule="evenodd"/>
      <path id="Caminho_3188" data-name="Caminho 3188" d="M2965.136,125.658a3.507,3.507,0,1,0,3.506,3.507A3.508,3.508,0,0,0,2965.136,125.658Z" fill="#12b0ff" fill-rule="evenodd"/>
      <path id="Caminho_3189" data-name="Caminho 3189" d="M2943.1,125.658a3.507,3.507,0,1,0,3.5,3.507A3.507,3.507,0,0,0,2943.1,125.658Z" fill="#12b0ff" fill-rule="evenodd"/>
      <path id="Caminho_3190" data-name="Caminho 3190" d="M2921.06,125.658a3.507,3.507,0,1,0,3.506,3.507A3.506,3.506,0,0,0,2921.06,125.658Z" fill="#12b0ff" fill-rule="evenodd"/>
      <path id="Caminho_3191" data-name="Caminho 3191" d="M2899.023,125.658a3.507,3.507,0,1,0,3.505,3.507A3.506,3.506,0,0,0,2899.023,125.658Z" fill="#12b0ff" fill-rule="evenodd"/>
      <path id="Caminho_3192" data-name="Caminho 3192" d="M2876.985,125.658a3.507,3.507,0,1,0,3.506,3.507A3.506,3.506,0,0,0,2876.985,125.658Z" fill="#12b0ff" fill-rule="evenodd"/>
      <path id="Caminho_3193" data-name="Caminho 3193" d="M2854.947,125.658a3.507,3.507,0,1,0,3.5,3.507A3.507,3.507,0,0,0,2854.947,125.658Z" fill="#12b0ff" fill-rule="evenodd"/>
      <path id="Caminho_3194" data-name="Caminho 3194" d="M2832.909,125.658a3.507,3.507,0,1,0,3.506,3.507A3.508,3.508,0,0,0,2832.909,125.658Z" fill="#12b0ff" fill-rule="evenodd"/>
      <path id="Caminho_3195" data-name="Caminho 3195" d="M2810.872,125.658a3.507,3.507,0,1,0,3.5,3.507A3.507,3.507,0,0,0,2810.872,125.658Z" fill="#12b0ff" fill-rule="evenodd"/>
      <path id="Caminho_3196" data-name="Caminho 3196" d="M2788.833,125.658a3.507,3.507,0,1,0,3.506,3.507A3.507,3.507,0,0,0,2788.833,125.658Z" fill="#12b0ff" fill-rule="evenodd"/>
      <path id="Caminho_3197" data-name="Caminho 3197" d="M2766.8,125.658a3.507,3.507,0,1,0,3.505,3.507A3.506,3.506,0,0,0,2766.8,125.658Z" fill="#12b0ff" fill-rule="evenodd"/>
      <path id="Caminho_3198" data-name="Caminho 3198" d="M2744.758,125.658a3.507,3.507,0,1,0,3.506,3.507A3.507,3.507,0,0,0,2744.758,125.658Z" fill="#12b0ff" fill-rule="evenodd"/>
      <path id="Caminho_3199" data-name="Caminho 3199" d="M2722.719,125.658a3.507,3.507,0,1,0,3.506,3.507A3.506,3.506,0,0,0,2722.719,125.658Z" fill="#12b0ff" fill-rule="evenodd"/>
      <path id="Caminho_3200" data-name="Caminho 3200" d="M2700.682,125.658a3.507,3.507,0,1,0,3.507,3.507A3.507,3.507,0,0,0,2700.682,125.658Z" fill="#12b0ff" fill-rule="evenodd"/>
      <path id="Caminho_3201" data-name="Caminho 3201" d="M2678.644,125.658a3.507,3.507,0,1,0,3.506,3.507A3.506,3.506,0,0,0,2678.644,125.658Z" fill="#12b0ff" fill-rule="evenodd"/>
      <path id="Caminho_3202" data-name="Caminho 3202" d="M2656.606,125.658a3.507,3.507,0,1,0,3.507,3.507A3.508,3.508,0,0,0,2656.606,125.658Z" fill="#12b0ff" fill-rule="evenodd"/>
      <path id="Caminho_3203" data-name="Caminho 3203" d="M2634.568,125.658a3.507,3.507,0,1,0,3.506,3.507A3.506,3.506,0,0,0,2634.568,125.658Z" fill="#12b0ff" fill-rule="evenodd"/>
      <path id="Caminho_3204" data-name="Caminho 3204" d="M2612.531,125.658a3.507,3.507,0,1,0,3.5,3.507A3.507,3.507,0,0,0,2612.531,125.658Z" fill="#12b0ff" fill-rule="evenodd"/>
      <path id="Caminho_3205" data-name="Caminho 3205" d="M2590.492,125.658a3.507,3.507,0,1,0,3.506,3.507A3.507,3.507,0,0,0,2590.492,125.658Z" fill="#12b0ff" fill-rule="evenodd"/>
      <path id="Caminho_3206" data-name="Caminho 3206" d="M2568.455,125.658a3.507,3.507,0,1,0,3.5,3.507A3.507,3.507,0,0,0,2568.455,125.658Z" fill="#12b0ff" fill-rule="evenodd"/>
      <path id="Caminho_3207" data-name="Caminho 3207" d="M2546.417,125.658a3.507,3.507,0,1,0,3.506,3.507A3.506,3.506,0,0,0,2546.417,125.658Z" fill="#12b0ff" fill-rule="evenodd"/>
      <path id="Caminho_3208" data-name="Caminho 3208" d="M2524.379,125.658a3.507,3.507,0,1,0,3.507,3.507A3.506,3.506,0,0,0,2524.379,125.658Z" fill="#12b0ff" fill-rule="evenodd"/>
      <path id="Caminho_3209" data-name="Caminho 3209" d="M2965.136,146.069a3.506,3.506,0,1,0,3.506,3.506A3.507,3.507,0,0,0,2965.136,146.069Z" fill="#12b0ff" fill-rule="evenodd"/>
      <path id="Caminho_3210" data-name="Caminho 3210" d="M2943.1,146.069a3.506,3.506,0,1,0,3.5,3.506A3.506,3.506,0,0,0,2943.1,146.069Z" fill="#12b0ff" fill-rule="evenodd"/>
      <path id="Caminho_3211" data-name="Caminho 3211" d="M2921.06,146.069a3.506,3.506,0,1,0,3.506,3.506A3.506,3.506,0,0,0,2921.06,146.069Z" fill="#12b0ff" fill-rule="evenodd"/>
      <path id="Caminho_3212" data-name="Caminho 3212" d="M2899.023,146.069a3.506,3.506,0,1,0,3.505,3.506A3.506,3.506,0,0,0,2899.023,146.069Z" fill="#12b0ff" fill-rule="evenodd"/>
      <path id="Caminho_3213" data-name="Caminho 3213" d="M2876.985,146.069a3.506,3.506,0,1,0,3.506,3.506A3.506,3.506,0,0,0,2876.985,146.069Z" fill="#12b0ff" fill-rule="evenodd"/>
      <path id="Caminho_3214" data-name="Caminho 3214" d="M2854.947,146.069a3.506,3.506,0,1,0,3.5,3.506A3.506,3.506,0,0,0,2854.947,146.069Z" fill="#12b0ff" fill-rule="evenodd"/>
      <path id="Caminho_3215" data-name="Caminho 3215" d="M2832.909,146.069a3.506,3.506,0,1,0,3.506,3.506A3.507,3.507,0,0,0,2832.909,146.069Z" fill="#12b0ff" fill-rule="evenodd"/>
      <path id="Caminho_3216" data-name="Caminho 3216" d="M2810.872,146.069a3.506,3.506,0,1,0,3.5,3.506A3.506,3.506,0,0,0,2810.872,146.069Z" fill="#12b0ff" fill-rule="evenodd"/>
      <path id="Caminho_3217" data-name="Caminho 3217" d="M2788.833,146.069a3.506,3.506,0,1,0,3.506,3.506A3.506,3.506,0,0,0,2788.833,146.069Z" fill="#12b0ff" fill-rule="evenodd"/>
      <path id="Caminho_3218" data-name="Caminho 3218" d="M2766.8,146.069a3.506,3.506,0,1,0,3.505,3.506A3.506,3.506,0,0,0,2766.8,146.069Z" fill="#12b0ff" fill-rule="evenodd"/>
      <path id="Caminho_3219" data-name="Caminho 3219" d="M2744.758,146.069a3.506,3.506,0,1,0,3.506,3.506A3.506,3.506,0,0,0,2744.758,146.069Z" fill="#12b0ff" fill-rule="evenodd"/>
      <path id="Caminho_3220" data-name="Caminho 3220" d="M2722.719,146.069a3.506,3.506,0,1,0,3.506,3.506A3.505,3.505,0,0,0,2722.719,146.069Z" fill="#12b0ff" fill-rule="evenodd"/>
      <path id="Caminho_3221" data-name="Caminho 3221" d="M2700.682,146.069a3.506,3.506,0,1,0,3.507,3.506A3.506,3.506,0,0,0,2700.682,146.069Z" fill="#12b0ff" fill-rule="evenodd"/>
      <path id="Caminho_3222" data-name="Caminho 3222" d="M2678.644,146.069a3.506,3.506,0,1,0,3.506,3.506A3.506,3.506,0,0,0,2678.644,146.069Z" fill="#12b0ff" fill-rule="evenodd"/>
      <path id="Caminho_3223" data-name="Caminho 3223" d="M2656.606,146.069a3.506,3.506,0,1,0,3.507,3.506A3.507,3.507,0,0,0,2656.606,146.069Z" fill="#12b0ff" fill-rule="evenodd"/>
      <path id="Caminho_3224" data-name="Caminho 3224" d="M2634.568,146.069a3.506,3.506,0,1,0,3.506,3.506A3.506,3.506,0,0,0,2634.568,146.069Z" fill="#12b0ff" fill-rule="evenodd"/>
      <path id="Caminho_3225" data-name="Caminho 3225" d="M2612.531,146.069a3.506,3.506,0,1,0,3.5,3.506A3.506,3.506,0,0,0,2612.531,146.069Z" fill="#12b0ff" fill-rule="evenodd"/>
      <path id="Caminho_3226" data-name="Caminho 3226" d="M2590.492,146.069a3.506,3.506,0,1,0,3.506,3.506A3.506,3.506,0,0,0,2590.492,146.069Z" fill="#12b0ff" fill-rule="evenodd"/>
      <path id="Caminho_3227" data-name="Caminho 3227" d="M2568.455,146.069a3.506,3.506,0,1,0,3.5,3.506A3.506,3.506,0,0,0,2568.455,146.069Z" fill="#12b0ff" fill-rule="evenodd"/>
      <path id="Caminho_3228" data-name="Caminho 3228" d="M2546.417,146.069a3.506,3.506,0,1,0,3.506,3.506A3.505,3.505,0,0,0,2546.417,146.069Z" fill="#12b0ff" fill-rule="evenodd"/>
      <path id="Caminho_3229" data-name="Caminho 3229" d="M2524.379,146.069a3.506,3.506,0,1,0,3.507,3.506A3.506,3.506,0,0,0,2524.379,146.069Z" fill="#12b0ff" fill-rule="evenodd"/>
      <path id="Caminho_3230" data-name="Caminho 3230" d="M2965.136,166.479a3.506,3.506,0,1,0,3.506,3.5A3.506,3.506,0,0,0,2965.136,166.479Z" fill="#12b0ff" fill-rule="evenodd"/>
      <path id="Caminho_3231" data-name="Caminho 3231" d="M2943.1,166.479a3.506,3.506,0,1,0,3.5,3.5A3.506,3.506,0,0,0,2943.1,166.479Z" fill="#12b0ff" fill-rule="evenodd"/>
      <path id="Caminho_3232" data-name="Caminho 3232" d="M2921.06,166.479a3.506,3.506,0,1,0,3.506,3.5A3.5,3.5,0,0,0,2921.06,166.479Z" fill="#12b0ff" fill-rule="evenodd"/>
      <path id="Caminho_3233" data-name="Caminho 3233" d="M2899.023,166.479a3.506,3.506,0,1,0,3.505,3.5A3.5,3.5,0,0,0,2899.023,166.479Z" fill="#12b0ff" fill-rule="evenodd"/>
      <path id="Caminho_3234" data-name="Caminho 3234" d="M2876.985,166.479a3.506,3.506,0,1,0,3.506,3.5A3.5,3.5,0,0,0,2876.985,166.479Z" fill="#12b0ff" fill-rule="evenodd"/>
      <path id="Caminho_3235" data-name="Caminho 3235" d="M2854.947,166.479a3.506,3.506,0,1,0,3.5,3.5A3.5,3.5,0,0,0,2854.947,166.479Z" fill="#12b0ff" fill-rule="evenodd"/>
      <path id="Caminho_3236" data-name="Caminho 3236" d="M2832.909,166.479a3.506,3.506,0,1,0,3.506,3.5A3.506,3.506,0,0,0,2832.909,166.479Z" fill="#12b0ff" fill-rule="evenodd"/>
      <path id="Caminho_3237" data-name="Caminho 3237" d="M2810.872,166.479a3.506,3.506,0,1,0,3.5,3.5A3.5,3.5,0,0,0,2810.872,166.479Z" fill="#12b0ff" fill-rule="evenodd"/>
      <path id="Caminho_3238" data-name="Caminho 3238" d="M2788.833,166.479a3.506,3.506,0,1,0,3.506,3.5A3.506,3.506,0,0,0,2788.833,166.479Z" fill="#12b0ff" fill-rule="evenodd"/>
      <path id="Caminho_3239" data-name="Caminho 3239" d="M2766.8,166.479a3.506,3.506,0,1,0,3.505,3.5A3.5,3.5,0,0,0,2766.8,166.479Z" fill="#12b0ff" fill-rule="evenodd"/>
      <path id="Caminho_3240" data-name="Caminho 3240" d="M2744.758,166.479a3.506,3.506,0,1,0,3.506,3.5A3.505,3.505,0,0,0,2744.758,166.479Z" fill="#12b0ff" fill-rule="evenodd"/>
      <path id="Caminho_3241" data-name="Caminho 3241" d="M2722.719,166.479a3.506,3.506,0,1,0,3.506,3.5A3.5,3.5,0,0,0,2722.719,166.479Z" fill="#12b0ff" fill-rule="evenodd"/>
      <path id="Caminho_3242" data-name="Caminho 3242" d="M2700.682,166.479a3.506,3.506,0,1,0,3.507,3.5A3.506,3.506,0,0,0,2700.682,166.479Z" fill="#12b0ff" fill-rule="evenodd"/>
      <path id="Caminho_3243" data-name="Caminho 3243" d="M2678.644,166.479a3.506,3.506,0,1,0,3.506,3.5A3.5,3.5,0,0,0,2678.644,166.479Z" fill="#12b0ff" fill-rule="evenodd"/>
      <path id="Caminho_3244" data-name="Caminho 3244" d="M2656.606,166.479a3.506,3.506,0,1,0,3.507,3.5A3.506,3.506,0,0,0,2656.606,166.479Z" fill="#12b0ff" fill-rule="evenodd"/>
      <path id="Caminho_3245" data-name="Caminho 3245" d="M2634.568,166.479a3.506,3.506,0,1,0,3.506,3.5A3.5,3.5,0,0,0,2634.568,166.479Z" fill="#12b0ff" fill-rule="evenodd"/>
      <path id="Caminho_3246" data-name="Caminho 3246" d="M2612.531,166.479a3.506,3.506,0,1,0,3.5,3.5A3.506,3.506,0,0,0,2612.531,166.479Z" fill="#12b0ff" fill-rule="evenodd"/>
      <path id="Caminho_3247" data-name="Caminho 3247" d="M2590.492,166.479a3.506,3.506,0,1,0,3.506,3.5A3.505,3.505,0,0,0,2590.492,166.479Z" fill="#12b0ff" fill-rule="evenodd"/>
      <path id="Caminho_3248" data-name="Caminho 3248" d="M2568.455,166.479a3.506,3.506,0,1,0,3.5,3.5A3.5,3.5,0,0,0,2568.455,166.479Z" fill="#12b0ff" fill-rule="evenodd"/>
      <path id="Caminho_3249" data-name="Caminho 3249" d="M2546.417,166.479a3.506,3.506,0,1,0,3.506,3.5A3.5,3.5,0,0,0,2546.417,166.479Z" fill="#12b0ff" fill-rule="evenodd"/>
      <path id="Caminho_3250" data-name="Caminho 3250" d="M2524.379,166.479a3.506,3.506,0,1,0,3.507,3.5A3.5,3.5,0,0,0,2524.379,166.479Z" fill="#12b0ff" fill-rule="evenodd"/>
      <path id="Caminho_3251" data-name="Caminho 3251" d="M2525.708,23.869h-2.659a3.507,3.507,0,1,0,2.659,0Z" fill="#12b0ff" fill-rule="evenodd"/>
      <path id="Caminho_3252" data-name="Caminho 3252" d="M2547.746,23.869h-2.658a3.506,3.506,0,1,0,2.658,0Z" fill="#12b0ff" fill-rule="evenodd"/>
      <path id="Caminho_3253" data-name="Caminho 3253" d="M2569.784,23.869h-2.659a3.505,3.505,0,1,0,2.659,0Z" fill="#12b0ff" fill-rule="evenodd"/>
      <path id="Caminho_3254" data-name="Caminho 3254" d="M2591.821,23.869h-2.658a3.506,3.506,0,1,0,2.658,0Z" fill="#12b0ff" fill-rule="evenodd"/>
      <path id="Caminho_3255" data-name="Caminho 3255" d="M2613.86,23.869H2611.2a3.5,3.5,0,1,0,2.658,0Z" fill="#12b0ff" fill-rule="evenodd"/>
      <path id="Caminho_3256" data-name="Caminho 3256" d="M2635.9,23.869h-2.658a3.506,3.506,0,1,0,2.658,0Z" fill="#12b0ff" fill-rule="evenodd"/>
      <path id="Caminho_3257" data-name="Caminho 3257" d="M2657.935,23.869h-2.657a3.506,3.506,0,1,0,2.657,0Z" fill="#12b0ff" fill-rule="evenodd"/>
      <path id="Caminho_3258" data-name="Caminho 3258" d="M2679.972,23.869h-2.657a3.506,3.506,0,1,0,2.657,0Z" fill="#12b0ff" fill-rule="evenodd"/>
      <path id="Caminho_3259" data-name="Caminho 3259" d="M2702.011,23.869h-2.658a3.507,3.507,0,1,0,2.658,0Z" fill="#12b0ff" fill-rule="evenodd"/>
      <path id="Caminho_3260" data-name="Caminho 3260" d="M2724.048,23.869h-2.658a3.506,3.506,0,1,0,2.658,0Z" fill="#12b0ff" fill-rule="evenodd"/>
      <path id="Caminho_3261" data-name="Caminho 3261" d="M2746.087,23.869h-2.66a3.507,3.507,0,1,0,2.66,0Z" fill="#12b0ff" fill-rule="evenodd"/>
      <path id="Caminho_3262" data-name="Caminho 3262" d="M2768.125,23.869h-2.659a3.505,3.505,0,1,0,2.659,0Z" fill="#12b0ff" fill-rule="evenodd"/>
      <path id="Caminho_3263" data-name="Caminho 3263" d="M2790.162,23.869H2787.5a3.506,3.506,0,1,0,2.658,0Z" fill="#12b0ff" fill-rule="evenodd"/>
      <path id="Caminho_3264" data-name="Caminho 3264" d="M2812.2,23.869h-2.66a3.506,3.506,0,1,0,2.66,0Z" fill="#12b0ff" fill-rule="evenodd"/>
      <path id="Caminho_3265" data-name="Caminho 3265" d="M2834.238,23.869h-2.658a3.506,3.506,0,1,0,2.658,0Z" fill="#12b0ff" fill-rule="evenodd"/>
      <path id="Caminho_3266" data-name="Caminho 3266" d="M2856.276,23.869h-2.659a3.505,3.505,0,1,0,2.659,0Z" fill="#12b0ff" fill-rule="evenodd"/>
      <path id="Caminho_3267" data-name="Caminho 3267" d="M2878.313,23.869h-2.657a3.506,3.506,0,1,0,2.657,0Z" fill="#12b0ff" fill-rule="evenodd"/>
      <path id="Caminho_3268" data-name="Caminho 3268" d="M2900.352,23.869h-2.659a3.505,3.505,0,1,0,2.659,0Z" fill="#12b0ff" fill-rule="evenodd"/>
      <path id="Caminho_3269" data-name="Caminho 3269" d="M2922.389,23.869h-2.658a3.506,3.506,0,1,0,2.658,0Z" fill="#12b0ff" fill-rule="evenodd"/>
      <path id="Caminho_3270" data-name="Caminho 3270" d="M2944.428,23.869h-2.658a3.5,3.5,0,1,0,2.658,0Z" fill="#12b0ff" fill-rule="evenodd"/>
      <path id="Caminho_3271" data-name="Caminho 3271" d="M2966.466,23.869h-2.659a3.506,3.506,0,1,0,2.659,0Z" fill="#12b0ff" fill-rule="evenodd"/>
    </g>
  </g>
</svg>
