<svg xmlns="http://www.w3.org/2000/svg" width="34.899" height="34.899" viewBox="0 0 34.899 34.899">
  <g id="social-media_2_" data-name="social-media (2)" transform="translate(0)">
    <path id="Caminho_6" data-name="Caminho 6" d="M29.942,4.957A16.812,16.812,0,0,0,17.975,0h0A16.927,16.927,0,0,0,2.934,24.686L.089,32.813A1.569,1.569,0,0,0,1.564,34.9a1.581,1.581,0,0,0,.523-.089l8.127-2.844A16.925,16.925,0,0,0,29.942,4.957ZM28.495,27.444a14.883,14.883,0,0,1-17.5,2.618,1.576,1.576,0,0,0-1.257-.1L2.35,32.548l2.584-7.383a1.577,1.577,0,0,0-.1-1.258A14.879,14.879,0,0,1,17.974,2.047h0a14.877,14.877,0,0,1,10.52,25.4Zm0,0" transform="translate(0)" fill="#fff"/>
    <path id="Caminho_7" data-name="Caminho 7" d="M142.932,124.465a2,2,0,0,0-2.824,0l-.852.851a12.4,12.4,0,0,1-4.978-4.977l.852-.852a2,2,0,0,0,0-2.824l-2.295-2.295a2,2,0,0,0-2.824,0l-1.836,1.836c-1.051,1.051-1.1,2.859-.148,5.09A22.341,22.341,0,0,0,138.3,131.567a7.41,7.41,0,0,0,2.857.681,3.043,3.043,0,0,0,2.233-.829l1.836-1.836h0a2,2,0,0,0,0-2.824Zm-.988,5.507c-.3.3-1.223.405-2.836-.286a20.349,20.349,0,0,1-9.2-9.2c-.691-1.613-.586-2.536-.286-2.836l1.8-1.8,2.224,2.224-1.066,1.066a1.562,1.562,0,0,0-.289,1.819,14.44,14.44,0,0,0,6.342,6.342,1.562,1.562,0,0,0,1.819-.289l1.066-1.066,2.224,2.224Zm0,0" transform="translate(-118.667 -106.03)" fill="#fff"/>
  </g>
</svg>
