<svg xmlns="http://www.w3.org/2000/svg" width="62" height="62" viewBox="0 0 62 62">
  <g transform="translate(-1 -1)">
    <path d="M5,11H7v2H5Z" fill="#1e2040"/>
    <path d="M9,11H35v2H9Z" fill="#1e2040"/>
    <path d="M11,29h2v2H11v8h2v2H11v8H35V41H33V39h2V31H33V29h2V21H11ZM33,47H13V43H33Zm-2-6H15V39H31Zm2-4H13V33H33Zm-2-6H15V29H31ZM13,23H33v4H13Z" fill="#1e2040"/>
    <path d="M63,13V1H53V6H50a5.006,5.006,0,0,0-5,5V31H39V12a5.006,5.006,0,0,0-5-5H6a5.006,5.006,0,0,0-5,5V50a5.006,5.006,0,0,0,5,5H34a5.006,5.006,0,0,0,5-5V33h6V53a5.006,5.006,0,0,0,5,5h3v5H63V51H53v5H50a3,3,0,0,1-3-3V42h6v5H63V35H53v5H47V23h6v6H63V17H53v4H47V11a3,3,0,0,1,3-3h3v5ZM3,50V16a4.98,4.98,0,0,0,3,1H7V53H6A3,3,0,0,1,3,50Zm34,0a3,3,0,0,1-3,3H9V17H34a3,3,0,0,1,3,3Zm0-34a4.98,4.98,0,0,0-3-1H6A3,3,0,0,1,6,9H34a3,3,0,0,1,3,3ZM55,53h6v8H55Zm0-16h6v8H55Zm0-18h6v8H55ZM55,3h6v8H55Z" fill="#1e2040"/>
  </g>
</svg>
