<svg xmlns="http://www.w3.org/2000/svg" width="54.621" height="54.814" viewBox="0 0 54.621 54.814">
  <g id="computer" transform="translate(-0.904)">
    <path d="M51.974,75.234H44.065a.8.8,0,1,0,0,1.605h7.909a1.947,1.947,0,0,1,1.945,1.945v28.343H2.509V78.785a1.947,1.947,0,0,1,1.945-1.945h8.275a.8.8,0,1,0,0-1.605H4.455A3.555,3.555,0,0,0,.9,78.785v30.927a3.555,3.555,0,0,0,3.551,3.551H17.932v3.614l-2.181,3.041A1.313,1.313,0,0,0,16.819,122H39.5a1.313,1.313,0,0,0,1.067-2.078l-2.084-2.906a.8.8,0,0,0-.1-.276v-3.473H51.974a3.555,3.555,0,0,0,3.551-3.551V78.785A3.555,3.555,0,0,0,51.974,75.234Zm0,36.423H34.257a.8.8,0,0,0,0,1.605h2.527v3.07H35.368a.8.8,0,0,0,0,1.605h1.806l1.759,2.453H17.388l1.759-2.453h1.914a.8.8,0,0,0,0-1.605H19.538v-3.07h11.3a.8.8,0,0,0,0-1.605H4.455a1.947,1.947,0,0,1-1.945-1.945v-.979h51.41v.979A1.947,1.947,0,0,1,51.974,111.657Z" transform="translate(0 -67.182)" fill="#1e2040"/>
    <path d="M285.058,272.074a.8.8,0,0,0-.841.762l-.167,3.387a.8.8,0,0,0,.762.841h.04a.8.8,0,0,0,.8-.763l.167-3.387A.8.8,0,0,0,285.058,272.074Z" transform="translate(-252.84 -242.953)" fill="#1e2040"/>
    <path d="M86.923,4.911a2.459,2.459,0,0,0,2.32-1.653H93a8.112,8.112,0,0,0-3.278,6.514v7.946h-.2a1.846,1.846,0,0,0-1.844,1.844v2a1.846,1.846,0,0,0,1.844,1.844h2a1.846,1.846,0,0,0,1.844-1.844v-2a1.846,1.846,0,0,0-1.844-1.844h-.2V9.772a6.521,6.521,0,0,1,6.514-6.514h3.439L98.92,6.015a.8.8,0,1,0,1.221,1.043l2.02-2.364V8.065a2.641,2.641,0,1,0,1.605,0v-3.5l5.615,6.572-3.169,5.725h-6.39l-3.169-5.725,1.131-1.324a.8.8,0,0,0-1.221-1.043l-1.172,1.372a1.521,1.521,0,0,0-.173,1.717l2.833,5.118a2.75,2.75,0,0,0-1.959,2.63v2.445a2.75,2.75,0,0,0,1.976,2.635l.427,8.658a.8.8,0,0,0,.8.763h.04a.8.8,0,0,0,.762-.841L99.68,24.8h6.567l-.082,1.661a.8.8,0,0,0,.762.841h.04a.8.8,0,0,0,.8-.763l.091-1.851a2.75,2.75,0,0,0,1.976-2.635V19.611a2.75,2.75,0,0,0-1.869-2.6l2.849-5.147a1.521,1.521,0,0,0-.173-1.717l-5.884-6.888H108.2a6.521,6.521,0,0,1,6.514,6.514v7.946h-.2a1.846,1.846,0,0,0-1.844,1.844v2a1.846,1.846,0,0,0,1.844,1.844h2a1.846,1.846,0,0,0,1.844-1.844v-2a1.846,1.846,0,0,0-1.844-1.844h-.2V9.772a8.112,8.112,0,0,0-3.278-6.514h3.752a2.455,2.455,0,1,0,0-1.605H89.243a2.455,2.455,0,1,0-2.32,3.258Zm4.835,14.652v2a.239.239,0,0,1-.239.239h-2a.239.239,0,0,1-.239-.239v-2a.239.239,0,0,1,.239-.239h2A.239.239,0,0,1,91.758,19.563Zm16.472,2.493a1.141,1.141,0,0,1-1.14,1.14H98.837a1.141,1.141,0,0,1-1.14-1.14V19.611a1.141,1.141,0,0,1,1.14-1.14h8.253a1.141,1.141,0,0,1,1.14,1.14Zm8.522-2.493v2a.239.239,0,0,1-.239.239h-2a.239.239,0,0,1-.239-.239v-2a.239.239,0,0,1,.239-.239h2A.239.239,0,0,1,116.753,19.563Zm2.358-17.957a.85.85,0,1,1-.85.85A.851.851,0,0,1,119.111,1.605Zm-16.147,10.01A1.035,1.035,0,1,1,104,10.581,1.036,1.036,0,0,1,102.964,11.616ZM86.923,1.605a.85.85,0,1,1-.85.85A.851.851,0,0,1,86.923,1.605Z" transform="translate(-74.62)" fill="#1e2040"/>
  </g>
</svg>
