<svg id="web" xmlns="http://www.w3.org/2000/svg" width="51.6" height="45.525" viewBox="0 0 51.6 45.525">
  <path d="M121.363,192.081a.848.848,0,0,1-.551-.2l-5.513-4.694a.852.852,0,0,1,0-1.3l5.513-4.694a.852.852,0,1,1,1.1,1.3l-4.751,4.046,4.751,4.046a.852.852,0,0,1-.553,1.5Zm0,0" transform="translate(-101.005 -158.963)" />
  <path d="M250.56,192.081a.852.852,0,0,1-.553-1.5l4.75-4.046-4.751-4.046a.852.852,0,0,1,1.1-1.3l5.513,4.694a.852.852,0,0,1,0,1.3l-5.513,4.694A.848.848,0,0,1,250.56,192.081Zm0,0" transform="translate(-219.319 -158.963)" />
  <path d="M189.807,171.041a.867.867,0,0,1-.177-.019.852.852,0,0,1-.658-1.009l3.436-16.312a.852.852,0,1,1,1.667.351l-3.436,16.312A.852.852,0,0,1,189.807,171.041Zm0,0" transform="translate(-165.959 -134.402)" />
  <path d="M45.88,45.525H5.72A5.726,5.726,0,0,1,0,39.806V5.72A5.727,5.727,0,0,1,5.72,0H45.88A5.727,5.727,0,0,1,51.6,5.72V39.806A5.726,5.726,0,0,1,45.88,45.525ZM5.72,1.7A4.021,4.021,0,0,0,1.7,5.72V39.806A4.021,4.021,0,0,0,5.72,43.822H45.88A4.021,4.021,0,0,0,49.9,39.806V5.72A4.021,4.021,0,0,0,45.88,1.7Zm0,0" />
  <path d="M50.748,99.794H.852a.852.852,0,0,1,0-1.7h49.9a.852.852,0,0,1,0,1.7Zm0,0" transform="translate(0 -86.153)" />
  <path d="M100.146,39.681a2.7,2.7,0,1,1,2.7-2.7A2.7,2.7,0,0,1,100.146,39.681Zm0-3.688a.992.992,0,1,0,.992.992A.993.993,0,0,0,100.146,35.993Zm0,0" transform="translate(-85.59 -30.116)" />
  <path d="M32.083,39.466a2.7,2.7,0,1,1,2.7-2.7A2.7,2.7,0,0,1,32.083,39.466Zm0-3.688a.992.992,0,1,0,.992.992A.994.994,0,0,0,32.083,35.778Zm0,0" transform="translate(-25.81 -29.928)" />
  <path d="M168.211,39.9a2.7,2.7,0,1,1,2.7-2.7A2.7,2.7,0,0,1,168.211,39.9Zm0-3.688a.992.992,0,1,0,.992.992A.993.993,0,0,0,168.211,36.207Zm0,0" transform="translate(-145.373 -30.305)" />
</svg>
