<svg xmlns="http://www.w3.org/2000/svg" width="74.695" height="63" viewBox="0 0 74.695 63">
  <g id="commerce-and-shopping" transform="translate(0 -40.081)">
    <g id="Grupo_5237" data-name="Grupo 5237" transform="translate(0 40.081)">
      <g id="Grupo_5236" data-name="Grupo 5236">
        <path id="Caminho_25404" data-name="Caminho 25404" d="M70.092,40.081H4.6a4.608,4.608,0,0,0-4.6,4.6V89.123a4.608,4.608,0,0,0,4.6,4.6h22.15l-.9,7.167H22.144a1.094,1.094,0,0,0,0,2.188H52.55a1.094,1.094,0,0,0,0-2.188H48.839l-.9-7.167h22.15a4.608,4.608,0,0,0,4.6-4.6V44.683A4.608,4.608,0,0,0,70.092,40.081Zm-42.03,60.812.9-7.167h4.027l.4,1.58a4.09,4.09,0,0,0,7.935,0l.4-1.58h4.027l.9,7.167Zm7.179-7.167h4.214l-.262,1.049a1.9,1.9,0,0,1-3.69,0Zm37.266-4.6h0a2.417,2.417,0,0,1-2.414,2.414H4.6a2.417,2.417,0,0,1-2.414-2.414V44.683A2.417,2.417,0,0,1,4.6,42.269H70.092a2.417,2.417,0,0,1,2.414,2.414V89.123Z" transform="translate(0 -40.081)" fill="#1e2040"/>
      </g>
    </g>
    <g id="Grupo_5239" data-name="Grupo 5239" transform="translate(4.678 44.759)">
      <g id="Grupo_5238" data-name="Grupo 5238" transform="translate(0 0)">
        <path id="Caminho_25405" data-name="Caminho 25405" d="M89.292,72.146H33.158a1.094,1.094,0,0,0-1.094,1.094v42.1a1.094,1.094,0,0,0,1.094,1.094H35.5a1.094,1.094,0,0,0,0-2.188H34.252V74.334h55.04a1.094,1.094,0,0,0,0-2.188Z" transform="translate(-32.064 -72.146)" fill="#1e2040"/>
      </g>
    </g>
    <g id="Grupo_5241" data-name="Grupo 5241" transform="translate(11.695 44.759)">
      <g id="Grupo_5240" data-name="Grupo 5240" transform="translate(0 0)">
        <path id="Caminho_25406" data-name="Caminho 25406" d="M137.39,72.146h-2.339a1.094,1.094,0,1,0,0,2.188H136.3v39.912H81.256a1.094,1.094,0,1,0,0,2.188H137.39a1.094,1.094,0,0,0,1.094-1.094V73.24A1.094,1.094,0,0,0,137.39,72.146Z" transform="translate(-80.162 -72.146)" fill="#1e2040"/>
      </g>
    </g>
    <g id="Grupo_5243" data-name="Grupo 5243" transform="translate(19.881 51.775)">
      <g id="Grupo_5242" data-name="Grupo 5242" transform="translate(0 0)">
        <path id="Caminho_25407" data-name="Caminho 25407" d="M168.637,125.339a1.094,1.094,0,0,0-.812-.419L142.1,123.75h-.06a2.267,2.267,0,0,0-.91-1.224l-3.151-2.1a1.094,1.094,0,0,0-1.214,1.821l3.151,2.1a.076.076,0,0,1,.031.042l4.013,14.046a3.445,3.445,0,0,0,.6,1.171l-1.468,2.937a2.249,2.249,0,0,0,.1,2.2,2.272,2.272,0,0,0,.561.618,3.433,3.433,0,1,0,6.179.456H159.9a3.433,3.433,0,1,0,6.271-.284,1.093,1.093,0,0,0-.734-1.9H145.109a.075.075,0,0,1-.067-.109l1.353-2.705a3.435,3.435,0,0,0,.856.109,3.527,3.527,0,0,0,.409-.024l15.375-1.809a4.591,4.591,0,0,0,3.975-3.669l1.839-9.2A1.094,1.094,0,0,0,168.637,125.339Zm-5.54,20.48a1.245,1.245,0,1,1-1.245,1.245A1.246,1.246,0,0,1,163.1,145.819Zm-16.372,0a1.245,1.245,0,1,1-1.245,1.245A1.246,1.246,0,0,1,146.726,145.819Zm-2.683-15.052-1.371-4.8,4.374.2.758,4.6Zm3.362,7.961a1.239,1.239,0,0,1-1.342-.894l-1.394-4.879h3.5l.919,5.575Zm6.414-.755-2.558.3-.877-5.319h3.435Zm0-7.207h-3.8l-.742-4.5,4.537.206Zm5.541,6.555-3.353.394v-4.761h3.748Zm.593-6.555h-3.946v-4.193l4.308.2Zm4.911,4.228a2.408,2.408,0,0,1-2.085,1.924l-1.2.141.372-4.105h3.32Zm.846-4.228h-3.56l.353-3.9,3.951.18Z" transform="translate(-136.276 -120.241)" fill="#1e2040"/>
      </g>
    </g>
  </g>
</svg>
