<svg xmlns="http://www.w3.org/2000/svg" width="58.476" height="70.814" viewBox="0 20 58.476 58.814">
    <path d="M57.62,179.081H53.9V147.894a3.607,3.607,0,0,0-3.6-3.6H39.309a.857.857,0,1,0,0,1.713H50.3a1.892,1.892,0,0,1,1.89,1.89v31.187H49.253a7.2,7.2,0,0,0,.067-.974,7.274,7.274,0,0,0-7.265-7.265,7.166,7.166,0,0,0-1.607.183,5.417,5.417,0,0,0-4.8-2.93,5.289,5.289,0,0,0-1.917.357,4.519,4.519,0,0,0-8.983,0,5.289,5.289,0,0,0-1.917-.357,5.417,5.417,0,0,0-4.8,2.93,7.16,7.16,0,0,0-1.607-.183,7.274,7.274,0,0,0-7.265,7.265,7.2,7.2,0,0,0,.067.974H6.291V147.894A1.892,1.892,0,0,1,8.181,146H19.167a.857.857,0,1,0,0-1.713H8.181a3.607,3.607,0,0,0-3.6,3.6v31.187H.857a.857.857,0,0,0-.857.857v1.831a2.691,2.691,0,0,0,2.688,2.688h53.1a2.691,2.691,0,0,0,2.688-2.688v-1.831A.857.857,0,0,0,57.62,179.081Zm-.857,2.688a.976.976,0,0,1-.974.974H2.688a.976.976,0,0,1-.974-.974v-.974H12.758a.857.857,0,1,0,0-1.713h-1.8a5.5,5.5,0,0,1-.088-.974,5.539,5.539,0,0,1,7.367-5.242.857.857,0,0,0,1.091-.532,3.712,3.712,0,0,1,3.5-2.525,3.664,3.664,0,0,1,2.378.886.857.857,0,0,0,1.369-.911,2.752,2.752,0,0,1-.144-.831,2.805,2.805,0,1,1,5.611,0,2.752,2.752,0,0,1-.144.831.857.857,0,0,0,1.369.911,3.664,3.664,0,0,1,2.378-.886,3.712,3.712,0,0,1,3.5,2.525.857.857,0,0,0,1.091.532,5.543,5.543,0,0,1,7.279,6.216h-31.1a.857.857,0,1,0,0,1.713H56.763Z" transform="translate(0 -113.61)" fill="#1e2040"/>
    <path d="M153.142,41.212a3.61,3.61,0,0,0-.835,2.307v2.668a.857.857,0,0,0,1.278.746l6.1-3.442q.349.637.739,1.252l-.767,3.067a.857.857,0,0,0,.831,1.064h7.324a.857.857,0,0,0,.831-1.064l-.767-3.067q.39-.615.739-1.252l6.1,3.442a.857.857,0,0,0,1.278-.746V43.518a3.61,3.61,0,0,0-.835-2.307l-4.066-4.878a23.377,23.377,0,0,0,.324-3.88,22.989,22.989,0,0,0-1.8-8.975,22.065,22.065,0,0,0-4.867-7.2.857.857,0,0,0-1.2,0,22.062,22.062,0,0,0-4.867,7.2,22.989,22.989,0,0,0-1.8,8.975,23.38,23.38,0,0,0,.323,3.875Zm.878,3.508v-1.2a1.894,1.894,0,0,1,.438-1.21l3.211-3.853a22.713,22.713,0,0,0,1.249,3.5Zm7.565,2.441.487-1.949h4.156l.487,1.949Zm12.257-4.852a1.894,1.894,0,0,1,.438,1.21v1.2l-4.9-2.764a22.721,22.721,0,0,0,1.249-3.5ZM164.15,18.118a20.456,20.456,0,0,1,3.527,5.239h-7.053A20.456,20.456,0,0,1,164.15,18.118Zm-4.24,6.952h8.481a21.466,21.466,0,0,1,1.312,7.383A21.179,21.179,0,0,1,166.633,43.5h-4.966A21.179,21.179,0,0,1,158.6,32.453a21.469,21.469,0,0,1,1.312-7.383Z" transform="translate(-134.912)" fill="#1e2040"/>
    <path d="M231.658,123.845a3.6,3.6,0,1,0-3.6,3.6A3.607,3.607,0,0,0,231.658,123.845Zm-5.493,0a1.89,1.89,0,1,1,1.89,1.89A1.892,1.892,0,0,1,226.165,123.845Z" transform="translate(-198.817 -92.308)" fill="#1e2040"/>
</svg>
