<svg xmlns="http://www.w3.org/2000/svg" width="57.3" height="57.3" viewBox="0 0 57.3 57.3">
  <g id="multimedia" transform="translate(-1 -1)">
    <path d="M11,45h1.848v1.848H11Z" transform="translate(-0.758 -3.335)"/>
    <path d="M15,45h1.848v1.848H15Z" transform="translate(-1.061 -3.335)"/>
    <path d="M7,45H8.848v1.848H7Z" transform="translate(-0.455 -3.335)"/>
    <path d="M53.679,8.394H50.855a6.067,6.067,0,0,0,.052-.711V7.469a3.7,3.7,0,0,0-3.3-3.676A10.284,10.284,0,0,0,35.269,2.466a5.892,5.892,0,0,0-2.847,5.028v.189a6.067,6.067,0,0,0,.052.711H5.621A4.626,4.626,0,0,0,1,13.015V42.589A4.626,4.626,0,0,0,5.621,47.21h16.6a5.275,5.275,0,0,1-2.122,3.7H15.787a2.776,2.776,0,0,0-2.773,2.773v1.848A2.776,2.776,0,0,0,15.787,58.3H43.513a2.776,2.776,0,0,0,2.773-2.773V53.679a2.776,2.776,0,0,0-2.773-2.773H39.2a5.275,5.275,0,0,1-2.122-3.7h16.6A4.626,4.626,0,0,0,58.3,42.589V13.015A4.626,4.626,0,0,0,53.679,8.394Zm0,1.848a2.776,2.776,0,0,1,2.773,2.773V37.968H54.6V26.5a6.306,6.306,0,0,0-5.267-6.218l-3.975-.662V18.053a5.534,5.534,0,0,0,1.764-3.19h1.008a2.776,2.776,0,0,0,2.773-2.773,2.745,2.745,0,0,0-.628-1.735c.018-.039.042-.075.06-.114Zm-8.84,11.17.382.064-.542,4.336-1.794-1.794Zm-3.175-3.783a3.7,3.7,0,0,1-3.7-3.7V11.12a7.161,7.161,0,0,0,3.7-1.5,7.161,7.161,0,0,0,3.7,1.5v2.812A3.7,3.7,0,0,1,41.665,17.629Zm0,1.848a5.523,5.523,0,0,0,1.848-.323V20.1l-1.848,2.465L39.816,20.1v-.946A5.523,5.523,0,0,0,41.665,19.477ZM38.49,21.412l1.955,2.606-1.794,1.794-.542-4.336Zm-2.206.368,1,8.012,4.38-4.38,4.38,4.38,1-8.012,1.987.331A4.456,4.456,0,0,1,52.755,26.5V37.968H30.574V26.5A4.454,4.454,0,0,1,34.3,22.11ZM47.21,11.166h.924a.924.924,0,0,1,0,1.848H47.21ZM34.271,7.493A4.035,4.035,0,0,1,36.22,4.051a8.435,8.435,0,0,1,10.336,1.3l.271.271h.383a1.85,1.85,0,0,1,1.848,1.848v.213A4.2,4.2,0,0,1,48.7,9.376a2.755,2.755,0,0,0-.563-.058H47.21V9.311H46.127a5.352,5.352,0,0,1-3.81-1.578l-.653-.653-.653.653A5.35,5.35,0,0,1,37.2,9.311H36.119v.006H35.2a2.755,2.755,0,0,0-.563.058,4.2,4.2,0,0,1-.361-1.693Zm.924,5.521a.924.924,0,0,1,0-1.848h.924v1.848ZM5.621,10.242H32.99c.018.039.041.075.06.114a2.743,2.743,0,0,0-.628,1.735A2.776,2.776,0,0,0,35.2,14.863H36.2a5.534,5.534,0,0,0,1.764,3.19v1.572l-3.976.663A6.3,6.3,0,0,0,28.726,26.5V37.968H2.848V13.015a2.776,2.776,0,0,1,2.773-2.773ZM44.437,53.679v1.848a.926.926,0,0,1-.924.924H15.787a.926.926,0,0,1-.924-.924V53.679a.926.926,0,0,1,.924-.924H43.513A.926.926,0,0,1,44.437,53.679Zm-7.828-2.773H22.691a7.114,7.114,0,0,0,1.379-3.7h11.16A7.123,7.123,0,0,0,36.609,50.906Zm17.07-5.545H5.621a2.776,2.776,0,0,1-2.773-2.773V39.816h53.6v2.773A2.776,2.776,0,0,1,53.679,45.361Z"/>
    <path d="M13.42,26.242a2.444,2.444,0,0,0,1.082-.255l4.4-2.2a2.42,2.42,0,0,0,0-4.329l-4.4-2.2A2.42,2.42,0,0,0,11,19.42v4.4a2.422,2.422,0,0,0,2.42,2.42Zm-.571-6.822a.571.571,0,0,1,.826-.511l4.4,2.2a.571.571,0,0,1,0,1.022l-4.4,2.2a.587.587,0,0,1-.826-.511Z" transform="translate(-0.758 -1.213)"/>
    <path d="M7.773,29.635H22.56a2.776,2.776,0,0,0,2.773-2.773V15.773A2.776,2.776,0,0,0,22.56,13H7.773A2.776,2.776,0,0,0,5,15.773v11.09A2.776,2.776,0,0,0,7.773,29.635ZM6.848,15.773a.926.926,0,0,1,.924-.924H22.56a.926.926,0,0,1,.924.924v11.09a.926.926,0,0,1-.924.924H7.773a.926.926,0,0,1-.924-.924Z" transform="translate(-0.303 -0.91)"/>
    <path d="M5,33H6.848v1.848H5Z" transform="translate(-0.303 -2.426)"/>
    <path d="M9,33H25.635v1.848H9Z" transform="translate(-0.606 -2.426)"/>
    <path d="M5,37H25.332v1.848H5Z" transform="translate(-0.303 -2.729)"/>
  </g>
</svg>
