<svg xmlns="http://www.w3.org/2000/svg" xmlns:xlink="http://www.w3.org/1999/xlink" width="1916" height="1000" viewBox="0 0 1916 1000">
  <defs>
    <clipPath id="clip-path">
      <rect id="Retângulo_44" data-name="Retângulo 44" width="1916" height="1000" transform="translate(-0.078 0)" fill="none"/>
    </clipPath>
    <linearGradient id="linear-gradient" x1="0.044" y1="0.269" x2="0.14" y2="0.269" gradientUnits="objectBoundingBox">
      <stop offset="0"/>
      <stop offset="0.179" stop-color="#000001"/>
      <stop offset="0.243" stop-color="#000208"/>
      <stop offset="0.289" stop-color="#000614"/>
      <stop offset="0.326" stop-color="#000c25"/>
      <stop offset="0.358" stop-color="#00133b"/>
      <stop offset="0.386" stop-color="#001c56"/>
      <stop offset="0.412" stop-color="#002777"/>
      <stop offset="0.435" stop-color="#00339c"/>
      <stop offset="0.457" stop-color="#0041c7"/>
      <stop offset="0.476" stop-color="#0050f5"/>
      <stop offset="0.48" stop-color="#0054ff"/>
      <stop offset="0.48" stop-color="#095aff"/>
      <stop offset="0.483" stop-color="#3778ff"/>
      <stop offset="0.485" stop-color="#6295ff"/>
      <stop offset="0.488" stop-color="#87afff"/>
      <stop offset="0.491" stop-color="#a8c4ff"/>
      <stop offset="0.495" stop-color="#c3d7ff"/>
      <stop offset="0.498" stop-color="#d9e5ff"/>
      <stop offset="0.503" stop-color="#eaf1ff"/>
      <stop offset="0.509" stop-color="#f6f9ff"/>
      <stop offset="0.516" stop-color="#fdfdff"/>
      <stop offset="0.538" stop-color="#fff"/>
      <stop offset="0.559" stop-color="#fdfdff"/>
      <stop offset="0.567" stop-color="#f6f9ff"/>
      <stop offset="0.572" stop-color="#eaf1ff"/>
      <stop offset="0.577" stop-color="#d9e5ff"/>
      <stop offset="0.58" stop-color="#c3d7ff"/>
      <stop offset="0.584" stop-color="#a8c4ff"/>
      <stop offset="0.587" stop-color="#87afff"/>
      <stop offset="0.589" stop-color="#6295ff"/>
      <stop offset="0.592" stop-color="#3778ff"/>
      <stop offset="0.594" stop-color="#095aff"/>
      <stop offset="0.595" stop-color="#0054ff"/>
      <stop offset="0.598" stop-color="#0050f5"/>
      <stop offset="0.614" stop-color="#0041c7"/>
      <stop offset="0.632" stop-color="#00339c"/>
      <stop offset="0.652" stop-color="#002777"/>
      <stop offset="0.674" stop-color="#001c56"/>
      <stop offset="0.698" stop-color="#00133b"/>
      <stop offset="0.724" stop-color="#000c25"/>
      <stop offset="0.756" stop-color="#000614"/>
      <stop offset="0.795" stop-color="#000208"/>
      <stop offset="0.849" stop-color="#000001"/>
      <stop offset="1"/>
    </linearGradient>
  </defs>
  <g id="Grupo_2322" data-name="Grupo 2322" transform="translate(0.078)">
    <g id="Grupo_2321" data-name="Grupo 2321" transform="translate(0)" clip-path="url(#clip-path)">
      <g id="Grupo_2320" data-name="Grupo 2320" transform="translate(529.984 330.694)" opacity="0.74" style="mix-blend-mode: multiply;isolation: isolate">
        <path id="Caminho_19179" data-name="Caminho 19179" d="M2752.9,878.564l-1393.839,697.2h58.053S2752.9,908.436,2752.9,906.182Z" transform="translate(-1359.06 -856.019)" fill="#fff"/>
        <path id="Caminho_19180" data-name="Caminho 19180" d="M2752.9,878.405l-1393.839,697.2h58.053S2752.9,908.277,2752.9,906.022Z" transform="translate(-1359.06 -855.948)" fill="#fefefe"/>
        <path id="Caminho_19181" data-name="Caminho 19181" d="M2752.9,878.246l-1393.839,697.2h58.053S2752.9,908.118,2752.9,905.863Z" transform="translate(-1359.06 -855.878)" fill="#fdfdfd"/>
        <path id="Caminho_19182" data-name="Caminho 19182" d="M2752.9,878.087l-1393.839,697.2h58.053S2752.9,907.959,2752.9,905.7Z" transform="translate(-1359.06 -855.807)" fill="#fcfcfc"/>
        <path id="Caminho_19183" data-name="Caminho 19183" d="M2752.9,877.928l-1393.839,697.2h58.053S2752.9,907.8,2752.9,905.545Z" transform="translate(-1359.06 -855.736)" fill="#fbfbfb"/>
        <path id="Caminho_19184" data-name="Caminho 19184" d="M2752.9,877.769,1359.06,1574.97h58.053S2752.9,907.641,2752.9,905.386Z" transform="translate(-1359.06 -855.666)" fill="#fafafa"/>
        <path id="Caminho_19185" data-name="Caminho 19185" d="M2752.9,877.609l-1393.839,697.2h58.053S2752.9,907.481,2752.9,905.227Z" transform="translate(-1359.06 -855.595)" fill="#f9f9f9"/>
        <path id="Caminho_19186" data-name="Caminho 19186" d="M2752.9,877.45l-1393.839,697.2h58.053S2752.9,907.322,2752.9,905.068Z" transform="translate(-1359.06 -855.524)" fill="#f8f8f8"/>
        <path id="Caminho_19187" data-name="Caminho 19187" d="M2752.9,877.291l-1393.839,697.2h58.053S2752.9,907.163,2752.9,904.909Z" transform="translate(-1359.06 -855.453)" fill="#f7f7f7"/>
        <path id="Caminho_19188" data-name="Caminho 19188" d="M2752.9,877.132l-1393.839,697.2h58.053S2752.9,907,2752.9,904.75Z" transform="translate(-1359.06 -855.383)" fill="#f6f6f6"/>
        <path id="Caminho_19189" data-name="Caminho 19189" d="M2752.9,876.973l-1393.839,697.2h58.053S2752.9,906.845,2752.9,904.591Z" transform="translate(-1359.06 -855.312)" fill="#f5f5f5"/>
        <path id="Caminho_19190" data-name="Caminho 19190" d="M2752.9,876.814l-1393.839,697.2h58.053S2752.9,906.686,2752.9,904.432Z" transform="translate(-1359.06 -855.242)" fill="#f4f4f4"/>
        <path id="Caminho_19191" data-name="Caminho 19191" d="M2752.9,876.655l-1393.839,697.2h58.053S2752.9,906.527,2752.9,904.273Z" transform="translate(-1359.06 -855.171)" fill="#f3f3f3"/>
        <path id="Caminho_19192" data-name="Caminho 19192" d="M2752.9,876.5,1359.06,1573.7h58.053S2752.9,906.368,2752.9,904.114Z" transform="translate(-1359.06 -855.1)" fill="#f2f2f2"/>
        <path id="Caminho_19193" data-name="Caminho 19193" d="M2752.9,876.337l-1393.839,697.2h58.053S2752.9,906.209,2752.9,903.955Z" transform="translate(-1359.06 -855.03)" fill="#f1f1f1"/>
        <path id="Caminho_19194" data-name="Caminho 19194" d="M2752.9,876.178l-1393.839,697.2h58.053S2752.9,906.05,2752.9,903.8Z" transform="translate(-1359.06 -854.959)" fill="#f0f0f0"/>
        <path id="Caminho_19195" data-name="Caminho 19195" d="M2752.9,876.019,1359.06,1573.22h58.053S2752.9,905.891,2752.9,903.636Z" transform="translate(-1359.06 -854.888)" fill="#efefef"/>
        <path id="Caminho_19196" data-name="Caminho 19196" d="M2752.9,875.86l-1393.839,697.2h58.053S2752.9,905.732,2752.9,903.477Z" transform="translate(-1359.06 -854.818)" fill="#eee"/>
        <path id="Caminho_19197" data-name="Caminho 19197" d="M2752.9,875.7,1359.06,1572.9h58.053S2752.9,905.573,2752.9,903.318Z" transform="translate(-1359.06 -854.747)" fill="#ededed"/>
        <path id="Caminho_19198" data-name="Caminho 19198" d="M2752.9,875.541l-1393.839,697.2h58.053S2752.9,905.414,2752.9,903.159Z" transform="translate(-1359.06 -854.676)" fill="#ececec"/>
        <path id="Caminho_19199" data-name="Caminho 19199" d="M2752.9,875.382l-1393.839,697.2h58.053S2752.9,905.254,2752.9,903Z" transform="translate(-1359.06 -854.606)" fill="#ebebeb"/>
        <path id="Caminho_19200" data-name="Caminho 19200" d="M2752.9,875.223l-1393.839,697.2h58.053S2752.9,905.095,2752.9,902.841Z" transform="translate(-1359.06 -854.535)" fill="#eaeaea"/>
        <path id="Caminho_19201" data-name="Caminho 19201" d="M2752.9,875.064l-1393.839,697.2h58.053S2752.9,904.936,2752.9,902.682Z" transform="translate(-1359.06 -854.464)" fill="#e9e9e9"/>
        <path id="Caminho_19202" data-name="Caminho 19202" d="M2752.9,874.905l-1393.839,697.2h58.053S2752.9,904.777,2752.9,902.523Z" transform="translate(-1359.06 -854.394)" fill="#e8e8e8"/>
        <path id="Caminho_19203" data-name="Caminho 19203" d="M2752.9,874.746l-1393.839,697.2h58.053S2752.9,904.618,2752.9,902.364Z" transform="translate(-1359.06 -854.323)" fill="#e7e7e7"/>
        <path id="Caminho_19204" data-name="Caminho 19204" d="M2752.9,874.587l-1393.839,697.2h58.053S2752.9,904.459,2752.9,902.2Z" transform="translate(-1359.06 -854.252)" fill="#e6e6e6"/>
        <path id="Caminho_19205" data-name="Caminho 19205" d="M2752.9,874.428l-1393.839,697.2h58.053S2752.9,904.3,2752.9,902.046Z" transform="translate(-1359.06 -854.182)" fill="#e5e5e5"/>
        <path id="Caminho_19206" data-name="Caminho 19206" d="M2752.9,874.269,1359.06,1571.47h58.053S2752.9,904.141,2752.9,901.887Z" transform="translate(-1359.06 -854.111)" fill="#e4e4e4"/>
        <path id="Caminho_19207" data-name="Caminho 19207" d="M2752.9,874.11l-1393.839,697.2h58.053S2752.9,903.982,2752.9,901.727Z" transform="translate(-1359.06 -854.04)" fill="#e3e3e3"/>
        <path id="Caminho_19208" data-name="Caminho 19208" d="M2752.9,873.951l-1393.839,697.2h58.053S2752.9,903.823,2752.9,901.568Z" transform="translate(-1359.06 -853.97)" fill="#e2e2e2"/>
        <path id="Caminho_19209" data-name="Caminho 19209" d="M2752.9,873.792l-1393.839,697.2h58.053S2752.9,903.664,2752.9,901.409Z" transform="translate(-1359.06 -853.899)" fill="#e1e1e1"/>
        <path id="Caminho_19210" data-name="Caminho 19210" d="M2752.9,873.633l-1393.839,697.2h58.053S2752.9,903.505,2752.9,901.25Z" transform="translate(-1359.06 -853.829)" fill="#e0e0e0"/>
        <path id="Caminho_19211" data-name="Caminho 19211" d="M2752.9,873.474l-1393.839,697.2h58.053S2752.9,903.346,2752.9,901.091Z" transform="translate(-1359.06 -853.758)" fill="#dfdfdf"/>
        <path id="Caminho_19212" data-name="Caminho 19212" d="M2752.9,873.314l-1393.839,697.2h58.053S2752.9,903.186,2752.9,900.932Z" transform="translate(-1359.06 -853.687)" fill="#dedede"/>
        <path id="Caminho_19213" data-name="Caminho 19213" d="M2752.9,873.155l-1393.839,697.2h58.053S2752.9,903.027,2752.9,900.773Z" transform="translate(-1359.06 -853.616)" fill="#ddd"/>
        <path id="Caminho_19214" data-name="Caminho 19214" d="M2752.9,873,1359.06,1570.2h58.053S2752.9,902.868,2752.9,900.614Z" transform="translate(-1359.06 -853.546)" fill="#dcdcdc"/>
        <path id="Caminho_19215" data-name="Caminho 19215" d="M2752.9,872.837l-1393.839,697.2h58.053S2752.9,902.709,2752.9,900.455Z" transform="translate(-1359.06 -853.475)" fill="#dbdbdb"/>
        <path id="Caminho_19216" data-name="Caminho 19216" d="M2752.9,872.678l-1393.839,697.2h58.053S2752.9,902.55,2752.9,900.3Z" transform="translate(-1359.06 -853.404)" fill="#dadada"/>
        <path id="Caminho_19217" data-name="Caminho 19217" d="M2752.9,872.519,1359.06,1569.72h58.053S2752.9,902.391,2752.9,900.137Z" transform="translate(-1359.06 -853.334)" fill="#d9d9d9"/>
        <path id="Caminho_19218" data-name="Caminho 19218" d="M2752.9,872.36l-1393.839,697.2h58.053S2752.9,902.232,2752.9,899.978Z" transform="translate(-1359.06 -853.263)" fill="#d8d8d8"/>
        <path id="Caminho_19219" data-name="Caminho 19219" d="M2752.9,872.2,1359.06,1569.4h58.053S2752.9,902.073,2752.9,899.819Z" transform="translate(-1359.06 -853.193)" fill="#d7d7d7"/>
        <path id="Caminho_19220" data-name="Caminho 19220" d="M2752.9,872.042l-1393.839,697.2h58.053S2752.9,901.914,2752.9,899.66Z" transform="translate(-1359.06 -853.122)" fill="#d6d6d6"/>
        <path id="Caminho_19221" data-name="Caminho 19221" d="M2752.9,871.883l-1393.839,697.2h58.053S2752.9,901.755,2752.9,899.5Z" transform="translate(-1359.06 -853.051)" fill="#d5d5d5"/>
        <path id="Caminho_19222" data-name="Caminho 19222" d="M2752.9,871.724l-1393.839,697.2h58.053S2752.9,901.6,2752.9,899.341Z" transform="translate(-1359.06 -852.981)" fill="#d4d4d4"/>
        <path id="Caminho_19223" data-name="Caminho 19223" d="M2752.9,871.565l-1393.839,697.2h58.053S2752.9,901.437,2752.9,899.182Z" transform="translate(-1359.06 -852.91)" fill="#d3d3d3"/>
        <path id="Caminho_19224" data-name="Caminho 19224" d="M2752.9,871.406l-1393.839,697.2h58.053S2752.9,901.278,2752.9,899.023Z" transform="translate(-1359.06 -852.839)" fill="#d2d2d2"/>
        <path id="Caminho_19225" data-name="Caminho 19225" d="M2752.9,871.246l-1393.839,697.2h58.053S2752.9,901.119,2752.9,898.864Z" transform="translate(-1359.06 -852.768)" fill="#d1d1d1"/>
        <path id="Caminho_19226" data-name="Caminho 19226" d="M2752.9,871.087l-1393.839,697.2h58.053S2752.9,900.959,2752.9,898.7Z" transform="translate(-1359.06 -852.698)" fill="#d0d0d0"/>
        <path id="Caminho_19227" data-name="Caminho 19227" d="M2752.9,870.928l-1393.839,697.2h58.053S2752.9,900.8,2752.9,898.546Z" transform="translate(-1359.06 -852.627)" fill="#cfcfcf"/>
        <path id="Caminho_19228" data-name="Caminho 19228" d="M2752.9,870.769,1359.06,1567.97h58.053S2752.9,900.641,2752.9,898.387Z" transform="translate(-1359.06 -852.556)" fill="#cecece"/>
        <path id="Caminho_19229" data-name="Caminho 19229" d="M2752.9,870.61l-1393.839,697.2h58.053S2752.9,900.482,2752.9,898.228Z" transform="translate(-1359.06 -852.486)" fill="#cdcdcd"/>
        <path id="Caminho_19230" data-name="Caminho 19230" d="M2752.9,870.451l-1393.839,697.2h58.053S2752.9,900.323,2752.9,898.069Z" transform="translate(-1359.06 -852.415)" fill="#ccc"/>
        <path id="Caminho_19231" data-name="Caminho 19231" d="M2752.9,870.292l-1393.839,697.2h58.053S2752.9,900.164,2752.9,897.91Z" transform="translate(-1359.06 -852.344)" fill="#cbcbcb"/>
        <path id="Caminho_19232" data-name="Caminho 19232" d="M2752.9,870.133l-1393.839,697.2h58.053S2752.9,900.005,2752.9,897.751Z" transform="translate(-1359.06 -852.274)" fill="#cacaca"/>
        <path id="Caminho_19233" data-name="Caminho 19233" d="M2752.9,869.974l-1393.839,697.2h58.053S2752.9,899.846,2752.9,897.592Z" transform="translate(-1359.06 -852.203)" fill="#c9c9c9"/>
        <path id="Caminho_19234" data-name="Caminho 19234" d="M2752.9,869.815l-1393.839,697.2h58.053S2752.9,899.687,2752.9,897.432Z" transform="translate(-1359.06 -852.133)" fill="#c8c8c8"/>
        <path id="Caminho_19235" data-name="Caminho 19235" d="M2752.9,869.656l-1393.839,697.2h58.053S2752.9,899.528,2752.9,897.273Z" transform="translate(-1359.06 -852.062)" fill="#c7c7c7"/>
        <path id="Caminho_19236" data-name="Caminho 19236" d="M2752.9,869.5,1359.06,1566.7h58.053S2752.9,899.369,2752.9,897.114Z" transform="translate(-1359.06 -851.991)" fill="#c6c6c6"/>
        <path id="Caminho_19237" data-name="Caminho 19237" d="M2752.9,869.338l-1393.839,697.2h58.053S2752.9,899.21,2752.9,896.955Z" transform="translate(-1359.06 -851.921)" fill="#c5c5c5"/>
        <path id="Caminho_19238" data-name="Caminho 19238" d="M2752.9,869.179,1359.06,1566.38h58.053S2752.9,899.051,2752.9,896.8Z" transform="translate(-1359.06 -851.85)" fill="#c4c4c4"/>
        <path id="Caminho_19239" data-name="Caminho 19239" d="M2752.9,869.019l-1393.839,697.2h58.053S2752.9,898.892,2752.9,896.637Z" transform="translate(-1359.06 -851.779)" fill="#c3c3c3"/>
        <path id="Caminho_19240" data-name="Caminho 19240" d="M2752.9,868.86l-1393.839,697.2h58.053S2752.9,898.732,2752.9,896.478Z" transform="translate(-1359.06 -851.708)" fill="#c2c2c2"/>
        <path id="Caminho_19241" data-name="Caminho 19241" d="M2752.9,868.7,1359.06,1565.9h58.053S2752.9,898.573,2752.9,896.319Z" transform="translate(-1359.06 -851.638)" fill="#c1c1c1"/>
        <path id="Caminho_19242" data-name="Caminho 19242" d="M2752.9,868.542l-1393.839,697.2h58.053S2752.9,898.414,2752.9,896.16Z" transform="translate(-1359.06 -851.567)" fill="silver"/>
        <path id="Caminho_19243" data-name="Caminho 19243" d="M2752.9,868.383l-1393.839,697.2h58.053S2752.9,898.255,2752.9,896Z" transform="translate(-1359.06 -851.497)" fill="#bfbfbf"/>
        <path id="Caminho_19244" data-name="Caminho 19244" d="M2752.9,868.224l-1393.839,697.2h58.053S2752.9,898.1,2752.9,895.842Z" transform="translate(-1359.06 -851.426)" fill="#bebebe"/>
        <path id="Caminho_19245" data-name="Caminho 19245" d="M2752.9,868.065l-1393.839,697.2h58.053S2752.9,897.937,2752.9,895.683Z" transform="translate(-1359.06 -851.355)" fill="#bdbdbd"/>
        <path id="Caminho_19246" data-name="Caminho 19246" d="M2752.9,867.906l-1393.839,697.2h58.053S2752.9,897.778,2752.9,895.524Z" transform="translate(-1359.06 -851.285)" fill="#bcbcbc"/>
        <path id="Caminho_19247" data-name="Caminho 19247" d="M2752.9,867.747l-1393.839,697.2h58.053S2752.9,897.619,2752.9,895.365Z" transform="translate(-1359.06 -851.214)" fill="#bbb"/>
        <path id="Caminho_19248" data-name="Caminho 19248" d="M2752.9,867.588l-1393.839,697.2h58.053S2752.9,897.46,2752.9,895.205Z" transform="translate(-1359.06 -851.143)" fill="#bababa"/>
        <path id="Caminho_19249" data-name="Caminho 19249" d="M2752.9,867.429,1359.06,1564.63h58.053S2752.9,897.3,2752.9,895.046Z" transform="translate(-1359.06 -851.073)" fill="#b9b9b9"/>
        <path id="Caminho_19250" data-name="Caminho 19250" d="M2752.9,867.27l-1393.839,697.2h58.053S2752.9,897.142,2752.9,894.887Z" transform="translate(-1359.06 -851.002)" fill="#b8b8b8"/>
        <path id="Caminho_19251" data-name="Caminho 19251" d="M2752.9,867.111l-1393.839,697.2h58.053S2752.9,896.983,2752.9,894.728Z" transform="translate(-1359.06 -850.931)" fill="#b7b7b7"/>
        <path id="Caminho_19252" data-name="Caminho 19252" d="M2752.9,866.951l-1393.839,697.2h58.053S2752.9,896.823,2752.9,894.569Z" transform="translate(-1359.06 -850.86)" fill="#b6b6b6"/>
        <path id="Caminho_19253" data-name="Caminho 19253" d="M2752.9,866.792l-1393.839,697.2h58.053S2752.9,896.664,2752.9,894.41Z" transform="translate(-1359.06 -850.79)" fill="#b5b5b5"/>
        <path id="Caminho_19254" data-name="Caminho 19254" d="M2752.9,866.633l-1393.839,697.2h58.053S2752.9,896.505,2752.9,894.251Z" transform="translate(-1359.06 -850.719)" fill="#b4b4b4"/>
        <path id="Caminho_19255" data-name="Caminho 19255" d="M2752.9,866.474l-1393.839,697.2h58.053S2752.9,896.346,2752.9,894.092Z" transform="translate(-1359.06 -850.648)" fill="#b3b3b3"/>
        <path id="Caminho_19256" data-name="Caminho 19256" d="M2752.9,866.315l-1393.839,697.2h58.053S2752.9,896.187,2752.9,893.933Z" transform="translate(-1359.06 -850.578)" fill="#b2b2b2"/>
        <path id="Caminho_19257" data-name="Caminho 19257" d="M2752.9,866.156l-1393.839,697.2h58.053S2752.9,896.028,2752.9,893.774Z" transform="translate(-1359.06 -850.507)" fill="#b1b1b1"/>
        <path id="Caminho_19258" data-name="Caminho 19258" d="M2752.9,866,1359.06,1563.2h58.053S2752.9,895.869,2752.9,893.615Z" transform="translate(-1359.06 -850.437)" fill="#b0b0b0"/>
        <path id="Caminho_19259" data-name="Caminho 19259" d="M2752.9,865.838l-1393.839,697.2h58.053S2752.9,895.71,2752.9,893.456Z" transform="translate(-1359.06 -850.366)" fill="#afafaf"/>
        <path id="Caminho_19260" data-name="Caminho 19260" d="M2752.9,865.679,1359.06,1562.88h58.053S2752.9,895.551,2752.9,893.3Z" transform="translate(-1359.06 -850.295)" fill="#aeaeae"/>
        <path id="Caminho_19261" data-name="Caminho 19261" d="M2752.9,865.52l-1393.839,697.2h58.053S2752.9,895.392,2752.9,893.138Z" transform="translate(-1359.06 -850.225)" fill="#adadad"/>
        <path id="Caminho_19262" data-name="Caminho 19262" d="M2752.9,865.361l-1393.839,697.2h58.053S2752.9,895.233,2752.9,892.978Z" transform="translate(-1359.06 -850.154)" fill="#acacac"/>
        <path id="Caminho_19263" data-name="Caminho 19263" d="M2752.9,865.2,1359.06,1562.4h58.053S2752.9,895.074,2752.9,892.819Z" transform="translate(-1359.06 -850.083)" fill="#ababab"/>
        <path id="Caminho_19264" data-name="Caminho 19264" d="M2752.9,865.043l-1393.839,697.2h58.053S2752.9,894.915,2752.9,892.66Z" transform="translate(-1359.06 -850.013)" fill="#aaa"/>
        <path id="Caminho_19265" data-name="Caminho 19265" d="M2752.9,864.884l-1393.839,697.2h58.053S2752.9,894.756,2752.9,892.5Z" transform="translate(-1359.06 -849.942)" fill="#a9a9a9"/>
        <path id="Caminho_19266" data-name="Caminho 19266" d="M2752.9,864.724l-1393.839,697.2h58.053S2752.9,894.6,2752.9,892.342Z" transform="translate(-1359.06 -849.871)" fill="#a8a8a8"/>
        <path id="Caminho_19267" data-name="Caminho 19267" d="M2752.9,864.565l-1393.839,697.2h58.053S2752.9,894.437,2752.9,892.183Z" transform="translate(-1359.06 -849.8)" fill="#a7a7a7"/>
        <path id="Caminho_19268" data-name="Caminho 19268" d="M2752.9,864.406l-1393.839,697.2h58.053S2752.9,894.278,2752.9,892.024Z" transform="translate(-1359.06 -849.73)" fill="#a6a6a6"/>
        <path id="Caminho_19269" data-name="Caminho 19269" d="M2752.9,864.247l-1393.839,697.2h58.053S2752.9,894.119,2752.9,891.865Z" transform="translate(-1359.06 -849.659)" fill="#a5a5a5"/>
        <path id="Caminho_19270" data-name="Caminho 19270" d="M2752.9,864.088l-1393.839,697.2h58.053S2752.9,893.96,2752.9,891.706Z" transform="translate(-1359.06 -849.589)" fill="#a4a4a4"/>
        <path id="Caminho_19271" data-name="Caminho 19271" d="M2752.9,863.929,1359.06,1561.13h58.053S2752.9,893.8,2752.9,891.547Z" transform="translate(-1359.06 -849.518)" fill="#a3a3a3"/>
        <path id="Caminho_19272" data-name="Caminho 19272" d="M2752.9,863.77l-1393.839,697.2h58.053S2752.9,893.642,2752.9,891.388Z" transform="translate(-1359.06 -849.447)" fill="#a2a2a2"/>
        <path id="Caminho_19273" data-name="Caminho 19273" d="M2752.9,863.611l-1393.839,697.2h58.053S2752.9,893.483,2752.9,891.229Z" transform="translate(-1359.06 -849.377)" fill="#a1a1a1"/>
        <path id="Caminho_19274" data-name="Caminho 19274" d="M2752.9,863.452l-1393.839,697.2h58.053S2752.9,893.324,2752.9,891.07Z" transform="translate(-1359.06 -849.306)" fill="#a0a0a0"/>
        <path id="Caminho_19275" data-name="Caminho 19275" d="M2752.9,863.293l-1393.839,697.2h58.053S2752.9,893.165,2752.9,890.91Z" transform="translate(-1359.06 -849.236)" fill="#9f9f9f"/>
        <path id="Caminho_19276" data-name="Caminho 19276" d="M2752.9,863.134l-1393.839,697.2h58.053S2752.9,893.006,2752.9,890.751Z" transform="translate(-1359.06 -849.165)" fill="#9e9e9e"/>
        <path id="Caminho_19277" data-name="Caminho 19277" d="M2752.9,862.975l-1393.839,697.2h58.053S2752.9,892.847,2752.9,890.592Z" transform="translate(-1359.06 -849.094)" fill="#9d9d9d"/>
        <path id="Caminho_19278" data-name="Caminho 19278" d="M2752.9,862.816l-1393.839,697.2h58.053S2752.9,892.688,2752.9,890.433Z" transform="translate(-1359.06 -849.024)" fill="#9c9c9c"/>
        <path id="Caminho_19279" data-name="Caminho 19279" d="M2752.9,862.656l-1393.839,697.2h58.053S2752.9,892.529,2752.9,890.274Z" transform="translate(-1359.06 -848.953)" fill="#9b9b9b"/>
        <path id="Caminho_19280" data-name="Caminho 19280" d="M2752.9,862.5,1359.06,1559.7h58.053S2752.9,892.369,2752.9,890.115Z" transform="translate(-1359.06 -848.882)" fill="#9a9a9a"/>
        <path id="Caminho_19281" data-name="Caminho 19281" d="M2752.9,862.338l-1393.839,697.2h58.053S2752.9,892.21,2752.9,889.956Z" transform="translate(-1359.06 -848.811)" fill="#999"/>
        <path id="Caminho_19282" data-name="Caminho 19282" d="M2752.9,862.179,1359.06,1559.38h58.053S2752.9,892.051,2752.9,889.8Z" transform="translate(-1359.06 -848.741)" fill="#989898"/>
        <path id="Caminho_19283" data-name="Caminho 19283" d="M2752.9,862.02l-1393.839,697.2h58.053S2752.9,891.892,2752.9,889.638Z" transform="translate(-1359.06 -848.67)" fill="#979797"/>
        <path id="Caminho_19284" data-name="Caminho 19284" d="M2752.9,861.861l-1393.839,697.2h58.053S2752.9,891.733,2752.9,889.479Z" transform="translate(-1359.06 -848.599)" fill="#969696"/>
        <path id="Caminho_19285" data-name="Caminho 19285" d="M2752.9,861.7,1359.06,1558.9h58.053S2752.9,891.574,2752.9,889.32Z" transform="translate(-1359.06 -848.529)" fill="#959595"/>
        <path id="Caminho_19286" data-name="Caminho 19286" d="M2752.9,861.543l-1393.839,697.2h58.053S2752.9,891.415,2752.9,889.161Z" transform="translate(-1359.06 -848.458)" fill="#949494"/>
        <path id="Caminho_19287" data-name="Caminho 19287" d="M2752.9,861.384l-1393.839,697.2h58.053S2752.9,891.256,2752.9,889Z" transform="translate(-1359.06 -848.388)" fill="#939393"/>
        <path id="Caminho_19288" data-name="Caminho 19288" d="M2752.9,861.225l-1393.839,697.2h58.053S2752.9,891.1,2752.9,888.843Z" transform="translate(-1359.06 -848.317)" fill="#929292"/>
        <path id="Caminho_19289" data-name="Caminho 19289" d="M2752.9,861.066l-1393.839,697.2h58.053S2752.9,890.938,2752.9,888.683Z" transform="translate(-1359.06 -848.246)" fill="#919191"/>
        <path id="Caminho_19290" data-name="Caminho 19290" d="M2752.9,860.907l-1393.839,697.2h58.053S2752.9,890.779,2752.9,888.524Z" transform="translate(-1359.06 -848.176)" fill="#909090"/>
        <path id="Caminho_19291" data-name="Caminho 19291" d="M2752.9,860.748l-1393.839,697.2h58.053S2752.9,890.62,2752.9,888.365Z" transform="translate(-1359.06 -848.105)" fill="#8f8f8f"/>
        <path id="Caminho_19292" data-name="Caminho 19292" d="M2752.9,860.589,1359.06,1557.79h58.053S2752.9,890.461,2752.9,888.206Z" transform="translate(-1359.06 -848.034)" fill="#8e8e8e"/>
        <path id="Caminho_19293" data-name="Caminho 19293" d="M2752.9,860.429l-1393.839,697.2h58.053S2752.9,890.3,2752.9,888.047Z" transform="translate(-1359.06 -847.963)" fill="#8d8d8d"/>
        <path id="Caminho_19294" data-name="Caminho 19294" d="M2752.9,860.27l-1393.839,697.2h58.053S2752.9,890.142,2752.9,887.888Z" transform="translate(-1359.06 -847.893)" fill="#8c8c8c"/>
        <path id="Caminho_19295" data-name="Caminho 19295" d="M2752.9,860.111l-1393.839,697.2h58.053S2752.9,889.983,2752.9,887.729Z" transform="translate(-1359.06 -847.822)" fill="#8b8b8b"/>
        <path id="Caminho_19296" data-name="Caminho 19296" d="M2752.9,859.952l-1393.839,697.2h58.053S2752.9,889.824,2752.9,887.57Z" transform="translate(-1359.06 -847.751)" fill="#8a8a8a"/>
        <path id="Caminho_19297" data-name="Caminho 19297" d="M2752.9,859.793l-1393.839,697.2h58.053S2752.9,889.665,2752.9,887.411Z" transform="translate(-1359.06 -847.681)" fill="#898989"/>
        <path id="Caminho_19298" data-name="Caminho 19298" d="M2752.9,859.634l-1393.839,697.2h58.053S2752.9,889.506,2752.9,887.252Z" transform="translate(-1359.06 -847.61)" fill="#888"/>
        <path id="Caminho_19299" data-name="Caminho 19299" d="M2752.9,859.475l-1393.839,697.2h58.053S2752.9,889.347,2752.9,887.093Z" transform="translate(-1359.06 -847.539)" fill="#878787"/>
        <path id="Caminho_19300" data-name="Caminho 19300" d="M2752.9,859.316l-1393.839,697.2h58.053S2752.9,889.188,2752.9,886.934Z" transform="translate(-1359.06 -847.469)" fill="#868686"/>
        <path id="Caminho_19301" data-name="Caminho 19301" d="M2752.9,859.157l-1393.839,697.2h58.053S2752.9,889.029,2752.9,886.775Z" transform="translate(-1359.06 -847.398)" fill="#858585"/>
        <path id="Caminho_19302" data-name="Caminho 19302" d="M2752.9,859,1359.06,1556.2h58.053S2752.9,888.87,2752.9,886.615Z" transform="translate(-1359.06 -847.328)" fill="#848484"/>
        <path id="Caminho_19303" data-name="Caminho 19303" d="M2752.9,858.839,1359.06,1556.04h58.053S2752.9,888.711,2752.9,886.456Z" transform="translate(-1359.06 -847.257)" fill="#838383"/>
        <path id="Caminho_19304" data-name="Caminho 19304" d="M2752.9,858.68l-1393.839,697.2h58.053S2752.9,888.552,2752.9,886.3Z" transform="translate(-1359.06 -847.186)" fill="#828282"/>
        <path id="Caminho_19305" data-name="Caminho 19305" d="M2752.9,858.521l-1393.839,697.2h58.053S2752.9,888.393,2752.9,886.138Z" transform="translate(-1359.06 -847.116)" fill="#818181"/>
        <path id="Caminho_19306" data-name="Caminho 19306" d="M2752.9,858.361l-1393.839,697.2h58.053S2752.9,888.234,2752.9,885.979Z" transform="translate(-1359.06 -847.045)" fill="gray"/>
        <path id="Caminho_19307" data-name="Caminho 19307" d="M2752.9,858.2,1359.06,1555.4h58.053S2752.9,888.074,2752.9,885.82Z" transform="translate(-1359.06 -846.974)" fill="#7f7f7f"/>
        <path id="Caminho_19308" data-name="Caminho 19308" d="M2752.9,858.043l-1393.839,697.2h58.053S2752.9,887.915,2752.9,885.661Z" transform="translate(-1359.06 -846.903)" fill="#7e7e7e"/>
        <path id="Caminho_19309" data-name="Caminho 19309" d="M2752.9,857.884l-1393.839,697.2h58.053S2752.9,887.756,2752.9,885.5Z" transform="translate(-1359.06 -846.833)" fill="#7d7d7d"/>
        <path id="Caminho_19310" data-name="Caminho 19310" d="M2752.9,857.725l-1393.839,697.2h58.053S2752.9,887.6,2752.9,885.343Z" transform="translate(-1359.06 -846.762)" fill="#7c7c7c"/>
        <path id="Caminho_19311" data-name="Caminho 19311" d="M2752.9,857.566l-1393.839,697.2h58.053S2752.9,887.438,2752.9,885.184Z" transform="translate(-1359.06 -846.691)" fill="#7b7b7b"/>
        <path id="Caminho_19312" data-name="Caminho 19312" d="M2752.9,857.407l-1393.839,697.2h58.053S2752.9,887.279,2752.9,885.025Z" transform="translate(-1359.06 -846.621)" fill="#7a7a7a"/>
        <path id="Caminho_19313" data-name="Caminho 19313" d="M2752.9,857.248l-1393.839,697.2h58.053S2752.9,887.12,2752.9,884.866Z" transform="translate(-1359.06 -846.55)" fill="#797979"/>
        <path id="Caminho_19314" data-name="Caminho 19314" d="M2752.9,857.089,1359.06,1554.29h58.053S2752.9,886.961,2752.9,884.707Z" transform="translate(-1359.06 -846.48)" fill="#787878"/>
        <path id="Caminho_19315" data-name="Caminho 19315" d="M2752.9,856.93l-1393.839,697.2h58.053S2752.9,886.8,2752.9,884.548Z" transform="translate(-1359.06 -846.409)" fill="#777"/>
        <path id="Caminho_19316" data-name="Caminho 19316" d="M2752.9,856.771l-1393.839,697.2h58.053S2752.9,886.643,2752.9,884.388Z" transform="translate(-1359.06 -846.338)" fill="#767676"/>
        <path id="Caminho_19317" data-name="Caminho 19317" d="M2752.9,856.612l-1393.839,697.2h58.053S2752.9,886.484,2752.9,884.229Z" transform="translate(-1359.06 -846.268)" fill="#757575"/>
        <path id="Caminho_19318" data-name="Caminho 19318" d="M2752.9,856.453l-1393.839,697.2h58.053S2752.9,886.325,2752.9,884.07Z" transform="translate(-1359.06 -846.197)" fill="#747474"/>
        <path id="Caminho_19319" data-name="Caminho 19319" d="M2752.9,856.294,1359.06,1553.5h58.053S2752.9,886.166,2752.9,883.911Z" transform="translate(-1359.06 -846.126)" fill="#737373"/>
        <path id="Caminho_19320" data-name="Caminho 19320" d="M2752.9,856.134l-1393.839,697.2h58.053S2752.9,886.006,2752.9,883.752Z" transform="translate(-1359.06 -846.055)" fill="#727272"/>
        <path id="Caminho_19321" data-name="Caminho 19321" d="M2752.9,855.975l-1393.839,697.2h58.053S2752.9,885.847,2752.9,883.593Z" transform="translate(-1359.06 -845.985)" fill="#717171"/>
        <path id="Caminho_19322" data-name="Caminho 19322" d="M2752.9,855.816l-1393.839,697.2h58.053S2752.9,885.688,2752.9,883.434Z" transform="translate(-1359.06 -845.914)" fill="#707070"/>
        <path id="Caminho_19323" data-name="Caminho 19323" d="M2752.9,855.657l-1393.839,697.2h58.053S2752.9,885.529,2752.9,883.275Z" transform="translate(-1359.06 -845.843)" fill="#6f6f6f"/>
        <path id="Caminho_19324" data-name="Caminho 19324" d="M2752.9,855.5,1359.06,1552.7h58.053S2752.9,885.37,2752.9,883.116Z" transform="translate(-1359.06 -845.773)" fill="#6e6e6e"/>
        <path id="Caminho_19325" data-name="Caminho 19325" d="M2752.9,855.339,1359.06,1552.54h58.053S2752.9,885.211,2752.9,882.957Z" transform="translate(-1359.06 -845.702)" fill="#6d6d6d"/>
        <path id="Caminho_19326" data-name="Caminho 19326" d="M2752.9,855.18l-1393.839,697.2h58.053S2752.9,885.052,2752.9,882.8Z" transform="translate(-1359.06 -845.632)" fill="#6c6c6c"/>
        <path id="Caminho_19327" data-name="Caminho 19327" d="M2752.9,855.021l-1393.839,697.2h58.053S2752.9,884.893,2752.9,882.639Z" transform="translate(-1359.06 -845.561)" fill="#6b6b6b"/>
        <path id="Caminho_19328" data-name="Caminho 19328" d="M2752.9,854.862l-1393.839,697.2h58.053S2752.9,884.734,2752.9,882.48Z" transform="translate(-1359.06 -845.49)" fill="#6a6a6a"/>
        <path id="Caminho_19329" data-name="Caminho 19329" d="M2752.9,854.7,1359.06,1551.9h58.053S2752.9,884.575,2752.9,882.32Z" transform="translate(-1359.06 -845.42)" fill="#696969"/>
        <path id="Caminho_19330" data-name="Caminho 19330" d="M2752.9,854.544l-1393.839,697.2h58.053S2752.9,884.416,2752.9,882.161Z" transform="translate(-1359.06 -845.349)" fill="#686868"/>
        <path id="Caminho_19331" data-name="Caminho 19331" d="M2752.9,854.385l-1393.839,697.2h58.053S2752.9,884.257,2752.9,882Z" transform="translate(-1359.06 -845.278)" fill="#676767"/>
        <path id="Caminho_19332" data-name="Caminho 19332" d="M2752.9,854.226l-1393.839,697.2h58.053S2752.9,884.1,2752.9,881.843Z" transform="translate(-1359.06 -845.208)" fill="#666"/>
        <path id="Caminho_19333" data-name="Caminho 19333" d="M2752.9,854.067l-1393.839,697.2h58.053S2752.9,883.939,2752.9,881.684Z" transform="translate(-1359.06 -845.137)" fill="#656565"/>
        <path id="Caminho_19334" data-name="Caminho 19334" d="M2752.9,853.907l-1393.839,697.2h58.053S2752.9,883.779,2752.9,881.525Z" transform="translate(-1359.06 -845.066)" fill="#646464"/>
        <path id="Caminho_19335" data-name="Caminho 19335" d="M2752.9,853.748l-1393.839,697.2h58.053S2752.9,883.62,2752.9,881.366Z" transform="translate(-1359.06 -844.995)" fill="#636363"/>
        <path id="Caminho_19336" data-name="Caminho 19336" d="M2752.9,853.589,1359.06,1550.79h58.053S2752.9,883.461,2752.9,881.207Z" transform="translate(-1359.06 -844.925)" fill="#626262"/>
        <path id="Caminho_19337" data-name="Caminho 19337" d="M2752.9,853.43l-1393.839,697.2h58.053S2752.9,883.3,2752.9,881.048Z" transform="translate(-1359.06 -844.854)" fill="#616161"/>
        <path id="Caminho_19338" data-name="Caminho 19338" d="M2752.9,853.271l-1393.839,697.2h58.053S2752.9,883.143,2752.9,880.889Z" transform="translate(-1359.06 -844.784)" fill="#606060"/>
        <path id="Caminho_19339" data-name="Caminho 19339" d="M2752.9,853.112l-1393.839,697.2h58.053S2752.9,882.984,2752.9,880.73Z" transform="translate(-1359.06 -844.713)" fill="#5f5f5f"/>
        <path id="Caminho_19340" data-name="Caminho 19340" d="M2752.9,852.953l-1393.839,697.2h58.053S2752.9,882.825,2752.9,880.571Z" transform="translate(-1359.06 -844.642)" fill="#5e5e5e"/>
        <path id="Caminho_19341" data-name="Caminho 19341" d="M2752.9,852.794,1359.06,1550h58.053S2752.9,882.666,2752.9,880.412Z" transform="translate(-1359.06 -844.572)" fill="#5d5d5d"/>
        <path id="Caminho_19342" data-name="Caminho 19342" d="M2752.9,852.635l-1393.839,697.2h58.053S2752.9,882.507,2752.9,880.253Z" transform="translate(-1359.06 -844.501)" fill="#5c5c5c"/>
        <path id="Caminho_19343" data-name="Caminho 19343" d="M2752.9,852.476l-1393.839,697.2h58.053S2752.9,882.348,2752.9,880.093Z" transform="translate(-1359.06 -844.43)" fill="#5b5b5b"/>
        <path id="Caminho_19344" data-name="Caminho 19344" d="M2752.9,852.317l-1393.839,697.2h58.053S2752.9,882.189,2752.9,879.934Z" transform="translate(-1359.06 -844.36)" fill="#5a5a5a"/>
        <path id="Caminho_19345" data-name="Caminho 19345" d="M2752.9,852.158l-1393.839,697.2h58.053S2752.9,882.03,2752.9,879.775Z" transform="translate(-1359.06 -844.289)" fill="#595959"/>
        <path id="Caminho_19346" data-name="Caminho 19346" d="M2752.9,852,1359.06,1549.2h58.053S2752.9,881.871,2752.9,879.616Z" transform="translate(-1359.06 -844.219)" fill="#585858"/>
        <path id="Caminho_19347" data-name="Caminho 19347" d="M2752.9,851.839l-1393.839,697.2h58.053S2752.9,881.712,2752.9,879.457Z" transform="translate(-1359.06 -844.147)" fill="#575757"/>
        <path id="Caminho_19348" data-name="Caminho 19348" d="M2752.9,851.68l-1393.839,697.2h58.053S2752.9,881.552,2752.9,879.3Z" transform="translate(-1359.06 -844.077)" fill="#565656"/>
        <path id="Caminho_19349" data-name="Caminho 19349" d="M2752.9,851.521l-1393.839,697.2h58.053S2752.9,881.393,2752.9,879.139Z" transform="translate(-1359.06 -844.006)" fill="#555"/>
        <path id="Caminho_19350" data-name="Caminho 19350" d="M2752.9,851.362l-1393.839,697.2h58.053S2752.9,881.234,2752.9,878.98Z" transform="translate(-1359.06 -843.935)" fill="#545454"/>
        <path id="Caminho_19351" data-name="Caminho 19351" d="M2752.9,851.2,1359.06,1548.4h58.053S2752.9,881.075,2752.9,878.821Z" transform="translate(-1359.06 -843.865)" fill="#535353"/>
        <path id="Caminho_19352" data-name="Caminho 19352" d="M2752.9,851.044l-1393.839,697.2h58.053S2752.9,880.916,2752.9,878.662Z" transform="translate(-1359.06 -843.794)" fill="#525252"/>
        <path id="Caminho_19353" data-name="Caminho 19353" d="M2752.9,850.885l-1393.839,697.2h58.053S2752.9,880.757,2752.9,878.5Z" transform="translate(-1359.06 -843.724)" fill="#515151"/>
        <path id="Caminho_19354" data-name="Caminho 19354" d="M2752.9,850.726l-1393.839,697.2h58.053S2752.9,880.6,2752.9,878.344Z" transform="translate(-1359.06 -843.653)" fill="#505050"/>
        <path id="Caminho_19355" data-name="Caminho 19355" d="M2752.9,850.567l-1393.839,697.2h58.053S2752.9,880.439,2752.9,878.185Z" transform="translate(-1359.06 -843.582)" fill="#4f4f4f"/>
        <path id="Caminho_19356" data-name="Caminho 19356" d="M2752.9,850.408l-1393.839,697.2h58.053S2752.9,880.28,2752.9,878.025Z" transform="translate(-1359.06 -843.512)" fill="#4e4e4e"/>
        <path id="Caminho_19357" data-name="Caminho 19357" d="M2752.9,850.249,1359.06,1547.45h58.053S2752.9,880.121,2752.9,877.866Z" transform="translate(-1359.06 -843.441)" fill="#4d4d4d"/>
        <path id="Caminho_19358" data-name="Caminho 19358" d="M2752.9,850.09l-1393.839,697.2h58.053S2752.9,879.962,2752.9,877.707Z" transform="translate(-1359.06 -843.371)" fill="#4c4c4c"/>
        <path id="Caminho_19359" data-name="Caminho 19359" d="M2752.9,849.931l-1393.839,697.2h58.053S2752.9,879.8,2752.9,877.548Z" transform="translate(-1359.06 -843.3)" fill="#4b4b4b"/>
        <path id="Caminho_19360" data-name="Caminho 19360" d="M2752.9,849.772l-1393.839,697.2h58.053S2752.9,879.644,2752.9,877.389Z" transform="translate(-1359.06 -843.229)" fill="#4a4a4a"/>
        <path id="Caminho_19361" data-name="Caminho 19361" d="M2752.9,849.612l-1393.839,697.2h58.053S2752.9,879.484,2752.9,877.23Z" transform="translate(-1359.06 -843.158)" fill="#494949"/>
        <path id="Caminho_19362" data-name="Caminho 19362" d="M2752.9,849.453l-1393.839,697.2h58.053S2752.9,879.325,2752.9,877.071Z" transform="translate(-1359.06 -843.088)" fill="#484848"/>
        <path id="Caminho_19363" data-name="Caminho 19363" d="M2752.9,849.294,1359.06,1546.5h58.053S2752.9,879.166,2752.9,876.912Z" transform="translate(-1359.06 -843.017)" fill="#474747"/>
        <path id="Caminho_19364" data-name="Caminho 19364" d="M2752.9,849.135l-1393.839,697.2h58.053S2752.9,879.007,2752.9,876.753Z" transform="translate(-1359.06 -842.946)" fill="#464646"/>
        <path id="Caminho_19365" data-name="Caminho 19365" d="M2752.9,848.976l-1393.839,697.2h58.053S2752.9,878.848,2752.9,876.594Z" transform="translate(-1359.06 -842.876)" fill="#454545"/>
        <path id="Caminho_19366" data-name="Caminho 19366" d="M2752.9,848.817l-1393.839,697.2h58.053S2752.9,878.689,2752.9,876.435Z" transform="translate(-1359.06 -842.805)" fill="#444"/>
        <path id="Caminho_19367" data-name="Caminho 19367" d="M2752.9,848.658l-1393.839,697.2h58.053S2752.9,878.53,2752.9,876.276Z" transform="translate(-1359.06 -842.734)" fill="#434343"/>
        <path id="Caminho_19368" data-name="Caminho 19368" d="M2752.9,848.5,1359.06,1545.7h58.053S2752.9,878.371,2752.9,876.117Z" transform="translate(-1359.06 -842.664)" fill="#424242"/>
        <path id="Caminho_19369" data-name="Caminho 19369" d="M2752.9,848.34l-1393.839,697.2h58.053S2752.9,878.212,2752.9,875.958Z" transform="translate(-1359.06 -842.593)" fill="#414141"/>
        <path id="Caminho_19370" data-name="Caminho 19370" d="M2752.9,848.181l-1393.839,697.2h58.053S2752.9,878.053,2752.9,875.8Z" transform="translate(-1359.06 -842.523)" fill="#404040"/>
        <path id="Caminho_19371" data-name="Caminho 19371" d="M2752.9,848.022l-1393.839,697.2h58.053S2752.9,877.894,2752.9,875.639Z" transform="translate(-1359.06 -842.452)" fill="#3f3f3f"/>
        <path id="Caminho_19372" data-name="Caminho 19372" d="M2752.9,847.863l-1393.839,697.2h58.053S2752.9,877.735,2752.9,875.48Z" transform="translate(-1359.06 -842.381)" fill="#3e3e3e"/>
        <path id="Caminho_19373" data-name="Caminho 19373" d="M2752.9,847.7l-1393.839,697.2h58.053S2752.9,877.576,2752.9,875.321Z" transform="translate(-1359.06 -842.311)" fill="#3d3d3d"/>
        <path id="Caminho_19374" data-name="Caminho 19374" d="M2752.9,847.544l-1393.839,697.2h58.053S2752.9,877.417,2752.9,875.162Z" transform="translate(-1359.06 -842.24)" fill="#3c3c3c"/>
        <path id="Caminho_19375" data-name="Caminho 19375" d="M2752.9,847.385l-1393.839,697.2h58.053S2752.9,877.257,2752.9,875Z" transform="translate(-1359.06 -842.169)" fill="#3b3b3b"/>
        <path id="Caminho_19376" data-name="Caminho 19376" d="M2752.9,847.226l-1393.839,697.2h58.053S2752.9,877.1,2752.9,874.844Z" transform="translate(-1359.06 -842.098)" fill="#3a3a3a"/>
        <path id="Caminho_19377" data-name="Caminho 19377" d="M2752.9,847.067l-1393.839,697.2h58.053S2752.9,876.939,2752.9,874.685Z" transform="translate(-1359.06 -842.028)" fill="#393939"/>
        <path id="Caminho_19378" data-name="Caminho 19378" d="M2752.9,846.908l-1393.839,697.2h58.053S2752.9,876.78,2752.9,874.526Z" transform="translate(-1359.06 -841.957)" fill="#383838"/>
        <path id="Caminho_19379" data-name="Caminho 19379" d="M2752.9,846.749,1359.06,1543.95h58.053S2752.9,876.621,2752.9,874.367Z" transform="translate(-1359.06 -841.886)" fill="#373737"/>
        <path id="Caminho_19380" data-name="Caminho 19380" d="M2752.9,846.59l-1393.839,697.2h58.053S2752.9,876.462,2752.9,874.208Z" transform="translate(-1359.06 -841.816)" fill="#363636"/>
        <path id="Caminho_19381" data-name="Caminho 19381" d="M2752.9,846.431l-1393.839,697.2h58.053S2752.9,876.3,2752.9,874.049Z" transform="translate(-1359.06 -841.745)" fill="#353535"/>
        <path id="Caminho_19382" data-name="Caminho 19382" d="M2752.9,846.272l-1393.839,697.2h58.053S2752.9,876.144,2752.9,873.89Z" transform="translate(-1359.06 -841.674)" fill="#343434"/>
        <path id="Caminho_19383" data-name="Caminho 19383" d="M2752.9,846.113l-1393.839,697.2h58.053S2752.9,875.985,2752.9,873.73Z" transform="translate(-1359.06 -841.604)" fill="#333"/>
        <path id="Caminho_19384" data-name="Caminho 19384" d="M2752.9,845.954l-1393.839,697.2h58.053S2752.9,875.826,2752.9,873.571Z" transform="translate(-1359.06 -841.533)" fill="#323232"/>
        <path id="Caminho_19385" data-name="Caminho 19385" d="M2752.9,845.795,1359.06,1543h58.053S2752.9,875.667,2752.9,873.412Z" transform="translate(-1359.06 -841.463)" fill="#313131"/>
        <path id="Caminho_19386" data-name="Caminho 19386" d="M2752.9,845.636l-1393.839,697.2h58.053S2752.9,875.508,2752.9,873.253Z" transform="translate(-1359.06 -841.392)" fill="#303030"/>
        <path id="Caminho_19387" data-name="Caminho 19387" d="M2752.9,845.477l-1393.839,697.2h58.053S2752.9,875.349,2752.9,873.094Z" transform="translate(-1359.06 -841.321)" fill="#2f2f2f"/>
        <path id="Caminho_19388" data-name="Caminho 19388" d="M2752.9,845.317l-1393.839,697.2h58.053S2752.9,875.19,2752.9,872.935Z" transform="translate(-1359.06 -841.25)" fill="#2e2e2e"/>
        <path id="Caminho_19389" data-name="Caminho 19389" d="M2752.9,845.158l-1393.839,697.2h58.053S2752.9,875.03,2752.9,872.776Z" transform="translate(-1359.06 -841.18)" fill="#2d2d2d"/>
        <path id="Caminho_19390" data-name="Caminho 19390" d="M2752.9,845,1359.06,1542.2h58.053S2752.9,874.871,2752.9,872.617Z" transform="translate(-1359.06 -841.109)" fill="#2c2c2c"/>
        <path id="Caminho_19391" data-name="Caminho 19391" d="M2752.9,844.84l-1393.839,697.2h58.053S2752.9,874.712,2752.9,872.458Z" transform="translate(-1359.06 -841.038)" fill="#2b2b2b"/>
        <path id="Caminho_19392" data-name="Caminho 19392" d="M2752.9,844.681l-1393.839,697.2h58.053S2752.9,874.553,2752.9,872.3Z" transform="translate(-1359.06 -840.968)" fill="#2a2a2a"/>
        <path id="Caminho_19393" data-name="Caminho 19393" d="M2752.9,844.522l-1393.839,697.2h58.053S2752.9,874.394,2752.9,872.14Z" transform="translate(-1359.06 -840.897)" fill="#292929"/>
        <path id="Caminho_19394" data-name="Caminho 19394" d="M2752.9,844.363l-1393.839,697.2h58.053S2752.9,874.235,2752.9,871.981Z" transform="translate(-1359.06 -840.826)" fill="#282828"/>
        <path id="Caminho_19395" data-name="Caminho 19395" d="M2752.9,844.2l-1393.839,697.2h58.053S2752.9,874.076,2752.9,871.822Z" transform="translate(-1359.06 -840.756)" fill="#272727"/>
        <path id="Caminho_19396" data-name="Caminho 19396" d="M2752.9,844.045l-1393.839,697.2h58.053S2752.9,873.917,2752.9,871.663Z" transform="translate(-1359.06 -840.685)" fill="#262626"/>
        <path id="Caminho_19397" data-name="Caminho 19397" d="M2752.9,843.886l-1393.839,697.2h58.053S2752.9,873.758,2752.9,871.5Z" transform="translate(-1359.06 -840.615)" fill="#252525"/>
        <path id="Caminho_19398" data-name="Caminho 19398" d="M2752.9,843.727l-1393.839,697.2h58.053S2752.9,873.6,2752.9,871.344Z" transform="translate(-1359.06 -840.544)" fill="#242424"/>
        <path id="Caminho_19399" data-name="Caminho 19399" d="M2752.9,843.568l-1393.839,697.2h58.053S2752.9,873.44,2752.9,871.185Z" transform="translate(-1359.06 -840.473)" fill="#232323"/>
        <path id="Caminho_19400" data-name="Caminho 19400" d="M2752.9,843.409,1359.06,1540.61h58.053S2752.9,873.281,2752.9,871.026Z" transform="translate(-1359.06 -840.403)" fill="#222"/>
        <path id="Caminho_19401" data-name="Caminho 19401" d="M2752.9,843.249l-1393.839,697.2h58.053S2752.9,873.122,2752.9,870.867Z" transform="translate(-1359.06 -840.332)" fill="#212121"/>
        <path id="Caminho_19402" data-name="Caminho 19402" d="M2752.9,843.09l-1393.839,697.2h58.053S2752.9,872.962,2752.9,870.708Z" transform="translate(-1359.06 -840.261)" fill="#202020"/>
        <path id="Caminho_19403" data-name="Caminho 19403" d="M2752.9,842.931l-1393.839,697.2h58.053S2752.9,872.8,2752.9,870.549Z" transform="translate(-1359.06 -840.19)" fill="#1f1f1f"/>
        <path id="Caminho_19404" data-name="Caminho 19404" d="M2752.9,842.772l-1393.839,697.2h58.053S2752.9,872.644,2752.9,870.39Z" transform="translate(-1359.06 -840.12)" fill="#1e1e1e"/>
        <path id="Caminho_19405" data-name="Caminho 19405" d="M2752.9,842.613l-1393.839,697.2h58.053S2752.9,872.485,2752.9,870.231Z" transform="translate(-1359.06 -840.049)" fill="#1d1d1d"/>
        <path id="Caminho_19406" data-name="Caminho 19406" d="M2752.9,842.454l-1393.839,697.2h58.053S2752.9,872.326,2752.9,870.072Z" transform="translate(-1359.06 -839.979)" fill="#1c1c1c"/>
        <path id="Caminho_19407" data-name="Caminho 19407" d="M2752.9,842.295,1359.06,1539.5h58.053S2752.9,872.167,2752.9,869.913Z" transform="translate(-1359.06 -839.908)" fill="#1b1b1b"/>
        <path id="Caminho_19408" data-name="Caminho 19408" d="M2752.9,842.136l-1393.839,697.2h58.053S2752.9,872.008,2752.9,869.754Z" transform="translate(-1359.06 -839.837)" fill="#1a1a1a"/>
        <path id="Caminho_19409" data-name="Caminho 19409" d="M2752.9,841.977l-1393.839,697.2h58.053S2752.9,871.849,2752.9,869.595Z" transform="translate(-1359.06 -839.767)" fill="#191919"/>
        <path id="Caminho_19410" data-name="Caminho 19410" d="M2752.9,841.818l-1393.839,697.2h58.053S2752.9,871.69,2752.9,869.436Z" transform="translate(-1359.06 -839.696)" fill="#181818"/>
        <path id="Caminho_19411" data-name="Caminho 19411" d="M2752.9,841.659,1359.06,1538.86h58.053S2752.9,871.531,2752.9,869.276Z" transform="translate(-1359.06 -839.625)" fill="#171717"/>
        <path id="Caminho_19412" data-name="Caminho 19412" d="M2752.9,841.5,1359.06,1538.7h58.053S2752.9,871.372,2752.9,869.117Z" transform="translate(-1359.06 -839.555)" fill="#161616"/>
        <path id="Caminho_19413" data-name="Caminho 19413" d="M2752.9,841.341l-1393.839,697.2h58.053S2752.9,871.213,2752.9,868.958Z" transform="translate(-1359.06 -839.484)" fill="#151515"/>
        <path id="Caminho_19414" data-name="Caminho 19414" d="M2752.9,841.182l-1393.839,697.2h58.053S2752.9,871.054,2752.9,868.8Z" transform="translate(-1359.06 -839.413)" fill="#141414"/>
        <path id="Caminho_19415" data-name="Caminho 19415" d="M2752.9,841.022l-1393.839,697.2h58.053S2752.9,870.895,2752.9,868.64Z" transform="translate(-1359.06 -839.342)" fill="#131313"/>
        <path id="Caminho_19416" data-name="Caminho 19416" d="M2752.9,840.863l-1393.839,697.2h58.053S2752.9,870.735,2752.9,868.481Z" transform="translate(-1359.06 -839.272)" fill="#121212"/>
        <path id="Caminho_19417" data-name="Caminho 19417" d="M2752.9,840.7l-1393.839,697.2h58.053S2752.9,870.576,2752.9,868.322Z" transform="translate(-1359.06 -839.201)" fill="#111"/>
        <path id="Caminho_19418" data-name="Caminho 19418" d="M2752.9,840.545l-1393.839,697.2h58.053S2752.9,870.417,2752.9,868.163Z" transform="translate(-1359.06 -839.131)" fill="#101010"/>
        <path id="Caminho_19419" data-name="Caminho 19419" d="M2752.9,840.386l-1393.839,697.2h58.053S2752.9,870.258,2752.9,868Z" transform="translate(-1359.06 -839.06)" fill="#0f0f0f"/>
        <path id="Caminho_19420" data-name="Caminho 19420" d="M2752.9,840.227l-1393.839,697.2h58.053S2752.9,870.1,2752.9,867.845Z" transform="translate(-1359.06 -838.989)" fill="#0e0e0e"/>
        <path id="Caminho_19421" data-name="Caminho 19421" d="M2752.9,840.068l-1393.839,697.2h58.053S2752.9,869.94,2752.9,867.686Z" transform="translate(-1359.06 -838.919)" fill="#0d0d0d"/>
        <path id="Caminho_19422" data-name="Caminho 19422" d="M2752.9,839.909,1359.06,1537.11h58.053S2752.9,869.781,2752.9,867.527Z" transform="translate(-1359.06 -838.848)" fill="#0c0c0c"/>
        <path id="Caminho_19423" data-name="Caminho 19423" d="M2752.9,839.75l-1393.839,697.2h58.053S2752.9,869.622,2752.9,867.368Z" transform="translate(-1359.06 -838.777)" fill="#0b0b0b"/>
        <path id="Caminho_19424" data-name="Caminho 19424" d="M2752.9,839.591l-1393.839,697.2h58.053S2752.9,869.463,2752.9,867.208Z" transform="translate(-1359.06 -838.707)" fill="#0a0a0a"/>
        <path id="Caminho_19425" data-name="Caminho 19425" d="M2752.9,839.432l-1393.839,697.2h58.053S2752.9,869.3,2752.9,867.049Z" transform="translate(-1359.06 -838.636)" fill="#090909"/>
        <path id="Caminho_19426" data-name="Caminho 19426" d="M2752.9,839.273l-1393.839,697.2h58.053S2752.9,869.145,2752.9,866.89Z" transform="translate(-1359.06 -838.565)" fill="#080808"/>
        <path id="Caminho_19427" data-name="Caminho 19427" d="M2752.9,839.114l-1393.839,697.2h58.053S2752.9,868.986,2752.9,866.731Z" transform="translate(-1359.06 -838.495)" fill="#070707"/>
        <path id="Caminho_19428" data-name="Caminho 19428" d="M2752.9,838.954l-1393.839,697.2h58.053S2752.9,868.826,2752.9,866.572Z" transform="translate(-1359.06 -838.424)" fill="#060606"/>
        <path id="Caminho_19429" data-name="Caminho 19429" d="M2752.9,838.795,1359.06,1536h58.053S2752.9,868.667,2752.9,866.413Z" transform="translate(-1359.06 -838.353)" fill="#050505"/>
        <path id="Caminho_19430" data-name="Caminho 19430" d="M2752.9,838.636l-1393.839,697.2h58.053S2752.9,868.508,2752.9,866.254Z" transform="translate(-1359.06 -838.283)" fill="#040404"/>
        <path id="Caminho_19431" data-name="Caminho 19431" d="M2752.9,838.477l-1393.839,697.2h58.053S2752.9,868.349,2752.9,866.095Z" transform="translate(-1359.06 -838.212)" fill="#030303"/>
        <path id="Caminho_19432" data-name="Caminho 19432" d="M2752.9,838.318l-1393.839,697.2h58.053S2752.9,868.19,2752.9,865.936Z" transform="translate(-1359.06 -838.141)" fill="#020202"/>
        <path id="Caminho_19433" data-name="Caminho 19433" d="M2752.9,838.159,1359.06,1535.36h58.053S2752.9,868.031,2752.9,865.777Z" transform="translate(-1359.06 -838.071)" fill="#010101"/>
        <path id="Caminho_19434" data-name="Caminho 19434" d="M2752.9,838,1359.06,1535.2h58.053S2752.9,867.872,2752.9,865.618Z" transform="translate(-1359.06 -838)"/>
      </g>
      <path id="Caminho_19435" data-name="Caminho 19435" d="M68,1560.611l252.493,126.273L2695.2,499.274,2442.708,373Z" transform="translate(-255.573 -300.748)" fill="url(#linear-gradient)" style="mix-blend-mode: screen;isolation: isolate"/>
    </g>
  </g>
</svg>
