<svg xmlns="http://www.w3.org/2000/svg" width="110" height="117" viewBox="0 0 110 117">
  <g id="Grupo_5251" data-name="Grupo 5251" transform="translate(-771 -213)">
    <rect id="Retângulo_25" data-name="Retângulo 25" width="15" height="15" rx="7.5" transform="translate(815 213)" fill="#f5f5f7"/>
    <rect id="Retângulo_26" data-name="Retângulo 26" width="15" height="15" rx="7.5" transform="translate(815 315)" fill="#263875"/>
    <rect id="Retângulo_27" data-name="Retângulo 27" width="15" height="15" rx="7.5" transform="translate(771 279) rotate(-90)" fill="#f5f5f7" opacity="0.4"/>
    <rect id="Retângulo_28" data-name="Retângulo 28" width="15" height="15" rx="7.5" transform="translate(866 279) rotate(-90)" fill="#44599e"/>
    <rect id="Retângulo_29" data-name="Retângulo 29" width="15" height="15" rx="7.5" transform="translate(775.831 235.438) rotate(-45)" fill="#f5f5f7" opacity="0.35"/>
    <rect id="Retângulo_30" data-name="Retângulo 30" width="15" height="15" rx="7.5" transform="translate(847.956 307.563) rotate(-45)" fill="#3c5299"/>
    <rect id="Retângulo_31" data-name="Retângulo 31" width="15" height="15" rx="7.5" transform="translate(786.438 318.169) rotate(-135)" fill="#f5f5f7"/>
    <rect id="Retângulo_32" data-name="Retângulo 32" width="15" height="15" rx="7.5" transform="translate(858.563 246.044) rotate(-135)" fill="#4f6dce"/>
    <g id="Grupo_46" data-name="Grupo 46" transform="translate(206.031 -1353)">
      <rect id="Retângulo_20" data-name="Retângulo 20" width="38" height="54" rx="3" transform="translate(598.969 1596)" fill="#f5f5f7"/>
      <g id="Grupo_44" data-name="Grupo 44" transform="translate(604.495 1600.996)">
        <rect id="Retângulo_21" data-name="Retângulo 21" width="27" height="15" rx="3" transform="translate(0.473 0.004)" fill="#dce0e6"/>
        <rect id="Retângulo_22" data-name="Retângulo 22" width="27" height="2" rx="1" transform="translate(0.473 20.004)" fill="#dce0e6"/>
        <rect id="Retângulo_23" data-name="Retângulo 23" width="27" height="2" rx="1" transform="translate(0.473 26.004)" fill="#dce0e6"/>
      </g>
    </g>
  </g>
</svg>
