<svg xmlns="http://www.w3.org/2000/svg" width="95" height="124" viewBox="0 0 95 124">
  <g id="Grupo_5251" data-name="Grupo 5251" transform="translate(-1357 -345)">
    <g id="Grupo_5249" data-name="Grupo 5249" transform="translate(758 -1235)">
      <rect id="Retângulo_20" data-name="Retângulo 20" width="76" height="108" rx="3" transform="translate(599 1596)" fill="#f5f5f7"/>
      <g id="Grupo_44" data-name="Grupo 44" transform="translate(224 -6)">
        <rect id="Retângulo_21" data-name="Retângulo 21" width="54" height="30" rx="3" transform="translate(386 1612)" fill="#dce0e6"/>
        <rect id="Retângulo_22" data-name="Retângulo 22" width="54" height="4" rx="2" transform="translate(386 1653)" fill="#dce0e6"/>
        <rect id="Retângulo_23" data-name="Retângulo 23" width="54" height="4" rx="2" transform="translate(386 1664)" fill="#dce0e6"/>
      </g>
    </g>
    <circle id="Elipse_79" data-name="Elipse 79" cx="16.5" cy="16.5" r="16.5" transform="translate(1419 345)" fill="#4bc24b"/>
    <g id="interface_2_" data-name="interface (2)" transform="translate(1430.104 289.003)">
      <g id="Grupo_5250" data-name="Grupo 5250" transform="translate(0 67.997)">
        <path id="Caminho_25606" data-name="Caminho 25606" d="M12.08,68.177a.613.613,0,0,0-.867,0L3.869,75.521,1.046,72.7a.613.613,0,1,0-.867.867l3.256,3.256a.613.613,0,0,0,.867,0l7.778-7.778A.613.613,0,0,0,12.08,68.177Z" transform="translate(0 -67.997)" fill="#fff"/>
      </g>
    </g>
  </g>
</svg>
