<svg id="Grupo_2974" data-name="Grupo 2974" xmlns="http://www.w3.org/2000/svg" xmlns:xlink="http://www.w3.org/1999/xlink" width="746.705" height="438.639" viewBox="0 0 746.705 438.639">
  <defs>
    <linearGradient id="linear-gradient" x1="-2.163" y1="-2.741" x2="9.293" y2="11.188" gradientUnits="objectBoundingBox">
      <stop offset="0" stop-color="#ffe9a5"/>
      <stop offset="0.208" stop-color="#f1cdaa"/>
      <stop offset="0.558" stop-color="#dda3b2"/>
      <stop offset="0.834" stop-color="#d08ab7"/>
      <stop offset="1" stop-color="#cc81b9"/>
    </linearGradient>
    <linearGradient id="linear-gradient-2" x1="-10.117" y1="-7.648" x2="32.238" y2="24.848" xlink:href="#linear-gradient"/>
    <linearGradient id="linear-gradient-3" x1="-2.732" y1="-3.141" x2="8.107" y2="9.057" xlink:href="#linear-gradient"/>
    <linearGradient id="linear-gradient-4" x1="-1.963" y1="-2.541" x2="4.957" y2="5.993" xlink:href="#linear-gradient"/>
    <linearGradient id="linear-gradient-5" x1="-2.542" y1="0.244" x2="28.045" y2="2.82" xlink:href="#linear-gradient"/>
    <linearGradient id="linear-gradient-6" x1="-6.606" y1="-0.099" x2="23.972" y2="2.478" xlink:href="#linear-gradient"/>
    <linearGradient id="linear-gradient-7" x1="-13.059" y1="-2.951" x2="17.53" y2="4.834" xlink:href="#linear-gradient"/>
    <linearGradient id="linear-gradient-8" x1="-17.388" y1="-4.053" x2="13.198" y2="3.732" xlink:href="#linear-gradient"/>
    <linearGradient id="linear-gradient-9" x1="-18.553" y1="-0.885" x2="12.025" y2="1.338" xlink:href="#linear-gradient"/>
    <linearGradient id="linear-gradient-10" x1="-23.893" y1="-1.364" x2="6.694" y2="0.973" xlink:href="#linear-gradient"/>
    <linearGradient id="linear-gradient-11" x1="-28.804" y1="-4.917" x2="1.782" y2="0.737" xlink:href="#linear-gradient"/>
    <linearGradient id="linear-gradient-12" x1="-3.422" y1="-3.87" x2="32.736" y2="36.418" xlink:href="#linear-gradient"/>
    <linearGradient id="linear-gradient-13" x1="-11.684" y1="-9.316" x2="83.677" y2="67.511" xlink:href="#linear-gradient"/>
    <linearGradient id="linear-gradient-14" x1="-4.281" y1="-4.827" x2="31.878" y2="35.461" xlink:href="#linear-gradient"/>
    <linearGradient id="linear-gradient-15" x1="-5.255" y1="-5.912" x2="30.905" y2="34.376" xlink:href="#linear-gradient"/>
    <linearGradient id="linear-gradient-16" x1="-6.23" y1="-6.998" x2="29.929" y2="33.289" xlink:href="#linear-gradient"/>
    <linearGradient id="linear-gradient-17" x1="-3.718" y1="-4.199" x2="32.441" y2="36.091" xlink:href="#linear-gradient"/>
    <linearGradient id="linear-gradient-18" x1="-13.306" y1="-8.473" x2="133.225" y2="86.76" xlink:href="#linear-gradient"/>
    <linearGradient id="linear-gradient-19" x1="-13.904" y1="-8.862" x2="132.626" y2="86.373" xlink:href="#linear-gradient"/>
    <linearGradient id="linear-gradient-20" x1="-3.538" y1="-3.999" x2="32.621" y2="36.289" xlink:href="#linear-gradient"/>
    <linearGradient id="linear-gradient-21" x1="-4.032" y1="-4.616" x2="30.108" y2="33.926" xlink:href="#linear-gradient"/>
    <linearGradient id="linear-gradient-22" x1="-13.266" y1="-10.861" x2="76.982" y2="63.62" xlink:href="#linear-gradient"/>
    <linearGradient id="linear-gradient-23" x1="-14.467" y1="-11.854" x2="75.779" y2="62.633" xlink:href="#linear-gradient"/>
    <linearGradient id="linear-gradient-24" x1="-43.937" y1="-19.851" x2="213.632" y2="98.108" xlink:href="#linear-gradient"/>
    <linearGradient id="linear-gradient-25" x1="-45.427" y1="-20.535" x2="212.118" y2="97.424" xlink:href="#linear-gradient"/>
    <linearGradient id="linear-gradient-26" x1="-46.926" y1="-21.222" x2="210.644" y2="96.749" xlink:href="#linear-gradient"/>
    <linearGradient id="linear-gradient-27" x1="-48.43" y1="-21.903" x2="209.192" y2="96.05" xlink:href="#linear-gradient"/>
    <linearGradient id="linear-gradient-28" x1="-15.67" y1="-12.845" x2="74.579" y2="61.641" xlink:href="#linear-gradient"/>
    <linearGradient id="linear-gradient-29" x1="-16.87" y1="-13.838" x2="73.373" y2="60.65" xlink:href="#linear-gradient"/>
    <linearGradient id="linear-gradient-30" x1="-4.171" y1="-4.774" x2="29.969" y2="33.77" xlink:href="#linear-gradient"/>
    <linearGradient id="linear-gradient-31" x1="-22.954" y1="-8.813" x2="292.24" y2="116.343" xlink:href="#linear-gradient"/>
    <linearGradient id="linear-gradient-32" x1="-24.241" y1="-9.325" x2="290.954" y2="115.846" xlink:href="#linear-gradient"/>
    <linearGradient id="linear-gradient-33" x1="-25.527" y1="-9.835" x2="289.665" y2="115.324" xlink:href="#linear-gradient"/>
    <linearGradient id="linear-gradient-34" x1="-26.814" y1="-10.349" x2="288.38" y2="114.838" xlink:href="#linear-gradient"/>
    <linearGradient id="linear-gradient-35" x1="-28.101" y1="-10.857" x2="287.093" y2="114.297" xlink:href="#linear-gradient"/>
    <linearGradient id="linear-gradient-36" x1="-29.387" y1="-11.369" x2="285.806" y2="113.799" xlink:href="#linear-gradient"/>
    <linearGradient id="linear-gradient-37" x1="-30.674" y1="-11.882" x2="284.52" y2="113.306" xlink:href="#linear-gradient"/>
    <linearGradient id="linear-gradient-38" x1="-31.961" y1="-12.39" x2="283.231" y2="112.769" xlink:href="#linear-gradient"/>
    <linearGradient id="linear-gradient-39" x1="-6.823" y1="-8.163" x2="7.037" y2="8.234" xlink:href="#linear-gradient"/>
    <linearGradient id="linear-gradient-40" x1="-7.556" y1="-9.031" x2="6.304" y2="7.366" xlink:href="#linear-gradient"/>
    <linearGradient id="linear-gradient-41" x1="-8.53" y1="-10.184" x2="5.329" y2="6.213" xlink:href="#linear-gradient"/>
    <linearGradient id="linear-gradient-42" x1="-9.505" y1="-11.336" x2="4.355" y2="5.061" xlink:href="#linear-gradient"/>
    <linearGradient id="linear-gradient-43" x1="-10.479" y1="-12.489" x2="3.38" y2="3.908" xlink:href="#linear-gradient"/>
    <linearGradient id="linear-gradient-44" x1="-8.024" y1="-9.584" x2="5.836" y2="6.813" xlink:href="#linear-gradient"/>
    <linearGradient id="linear-gradient-45" x1="-12.026" y1="-13.448" x2="6.469" y2="7.147" xlink:href="#linear-gradient"/>
    <linearGradient id="linear-gradient-46" x1="-13.029" y1="-14.566" x2="5.466" y2="6.03" xlink:href="#linear-gradient"/>
    <linearGradient id="linear-gradient-47" x1="-14.033" y1="-15.683" x2="4.462" y2="4.912" xlink:href="#linear-gradient"/>
    <linearGradient id="linear-gradient-48" x1="-23.171" y1="-20.949" x2="13.382" y2="12.172" xlink:href="#linear-gradient"/>
    <linearGradient id="linear-gradient-49" x1="-24.29" y1="-21.965" x2="12.261" y2="11.158" xlink:href="#linear-gradient"/>
    <linearGradient id="linear-gradient-50" x1="-25.411" y1="-22.98" x2="11.141" y2="10.143" xlink:href="#linear-gradient"/>
    <linearGradient id="linear-gradient-51" x1="-26.532" y1="-23.993" x2="10.021" y2="9.127" xlink:href="#linear-gradient"/>
    <linearGradient id="linear-gradient-52" x1="-58.002" y1="-27.871" x2="62.776" y2="30.701" xlink:href="#linear-gradient"/>
    <linearGradient id="linear-gradient-53" x1="-58.968" y1="-28.336" x2="61.809" y2="30.229" xlink:href="#linear-gradient"/>
    <linearGradient id="linear-gradient-54" x1="-59.934" y1="-28.806" x2="60.843" y2="29.762" xlink:href="#linear-gradient"/>
    <linearGradient id="linear-gradient-55" x1="-3.177" y1="-2.427" x2="65.83" y2="52.506" xlink:href="#linear-gradient"/>
    <linearGradient id="linear-gradient-56" x1="-0.046" y1="-0.047" x2="3.978" y2="3.989" xlink:href="#linear-gradient"/>
    <linearGradient id="linear-gradient-57" x1="-0.722" y1="-0.738" x2="3.077" y2="3.11" xlink:href="#linear-gradient"/>
    <linearGradient id="linear-gradient-58" x1="-4.641" y1="-3.614" x2="5.402" y2="4.423" xlink:href="#linear-gradient"/>
    <linearGradient id="linear-gradient-59" x1="-4.87" y1="-3.797" x2="5.173" y2="4.239" xlink:href="#linear-gradient"/>
    <linearGradient id="linear-gradient-60" x1="-5.927" y1="-4.642" x2="4.117" y2="3.394" xlink:href="#linear-gradient"/>
    <linearGradient id="linear-gradient-61" x1="-17.61" y1="-8.414" x2="11.052" y2="5.694" xlink:href="#linear-gradient"/>
    <linearGradient id="linear-gradient-62" x1="-19.209" y1="-9.201" x2="9.454" y2="4.907" xlink:href="#linear-gradient"/>
    <linearGradient id="linear-gradient-63" x1="-20.807" y1="-9.987" x2="7.855" y2="4.12" xlink:href="#linear-gradient"/>
    <linearGradient id="linear-gradient-64" x1="-22.402" y1="-10.775" x2="6.256" y2="3.334" xlink:href="#linear-gradient"/>
    <linearGradient id="linear-gradient-65" x1="-24.004" y1="-11.562" x2="4.659" y2="2.547" xlink:href="#linear-gradient"/>
    <linearGradient id="linear-gradient-66" x1="-7.212" y1="-5.671" x2="2.831" y2="2.366" xlink:href="#linear-gradient"/>
    <linearGradient id="linear-gradient-67" x1="-8.497" y1="-6.7" x2="1.546" y2="1.337" xlink:href="#linear-gradient"/>
    <linearGradient id="linear-gradient-68" x1="-0.809" y1="-0.826" x2="2.99" y2="3.022" xlink:href="#linear-gradient"/>
    <linearGradient id="linear-gradient-69" x1="-4.166" y1="-1.942" x2="144.256" y2="75.726" xlink:href="#linear-gradient"/>
    <linearGradient id="linear-gradient-70" x1="-5.026" y1="-2.392" x2="143.397" y2="75.284" xlink:href="#linear-gradient"/>
    <linearGradient id="linear-gradient-71" x1="-5.886" y1="-2.842" x2="142.537" y2="74.839" xlink:href="#linear-gradient"/>
    <linearGradient id="linear-gradient-72" x1="-6.745" y1="-3.292" x2="141.677" y2="74.391" xlink:href="#linear-gradient"/>
    <linearGradient id="linear-gradient-73" x1="-7.605" y1="-3.742" x2="140.817" y2="73.933" xlink:href="#linear-gradient"/>
    <linearGradient id="linear-gradient-74" x1="-48.715" y1="-9.273" x2="83.397" y2="16.962" xlink:href="#linear-gradient"/>
    <linearGradient id="linear-gradient-75" x1="-51.12" y1="-9.752" x2="80.985" y2="16.484" xlink:href="#linear-gradient"/>
    <linearGradient id="linear-gradient-76" x1="-55.936" y1="-10.708" x2="76.169" y2="15.528" xlink:href="#linear-gradient"/>
    <linearGradient id="linear-gradient-77" x1="-60.752" y1="-11.664" x2="71.353" y2="14.571" xlink:href="#linear-gradient"/>
    <linearGradient id="linear-gradient-78" x1="-54.122" y1="-10.346" x2="77.997" y2="15.888" xlink:href="#linear-gradient"/>
    <linearGradient id="linear-gradient-79" x1="-58.937" y1="-11.303" x2="73.178" y2="14.933" xlink:href="#linear-gradient"/>
    <linearGradient id="linear-gradient-80" x1="-61.34" y1="-11.781" x2="70.764" y2="14.454" xlink:href="#linear-gradient"/>
    <linearGradient id="linear-gradient-81" x1="-63.747" y1="-12.259" x2="68.355" y2="13.976" xlink:href="#linear-gradient"/>
    <linearGradient id="linear-gradient-82" x1="-66.155" y1="-12.738" x2="65.947" y2="13.498" xlink:href="#linear-gradient"/>
    <linearGradient id="linear-gradient-83" x1="-51.949" y1="-12.786" x2="80.156" y2="20.678" xlink:href="#linear-gradient"/>
    <linearGradient id="linear-gradient-84" x1="-54.365" y1="-13.396" x2="77.758" y2="20.068" xlink:href="#linear-gradient"/>
    <linearGradient id="linear-gradient-85" x1="-59.179" y1="-14.617" x2="72.939" y2="18.849" xlink:href="#linear-gradient"/>
    <linearGradient id="linear-gradient-86" x1="-63.996" y1="-15.836" x2="68.123" y2="17.628" xlink:href="#linear-gradient"/>
    <linearGradient id="linear-gradient-87" x1="-66.39" y1="-16.446" x2="65.7" y2="17.018" xlink:href="#linear-gradient"/>
    <linearGradient id="linear-gradient-88" x1="-25.508" y1="-12.518" x2="19.96" y2="10.056" xlink:href="#linear-gradient"/>
    <linearGradient id="linear-gradient-89" x1="-31.14" y1="-12.195" x2="22.172" y2="9.232" xlink:href="#linear-gradient"/>
    <linearGradient id="linear-gradient-90" x1="-17.873" y1="-10.218" x2="11.727" y2="7.052" xlink:href="#linear-gradient"/>
    <linearGradient id="linear-gradient-91" x1="-20.342" y1="-18.438" x2="20.883" y2="19.021" xlink:href="#linear-gradient"/>
    <linearGradient id="linear-gradient-92" x1="-21.255" y1="-19.268" x2="19.97" y2="18.193" xlink:href="#linear-gradient"/>
    <linearGradient id="linear-gradient-93" x1="-22.23" y1="-20.152" x2="18.997" y2="17.306" xlink:href="#linear-gradient"/>
    <linearGradient id="linear-gradient-94" x1="-23.205" y1="-21.038" x2="18.023" y2="16.421" xlink:href="#linear-gradient"/>
    <linearGradient id="linear-gradient-95" x1="-24.178" y1="-21.924" x2="17.048" y2="15.536" xlink:href="#linear-gradient"/>
    <linearGradient id="linear-gradient-96" x1="-21.902" y1="-19.856" x2="19.324" y2="17.604" xlink:href="#linear-gradient"/>
    <linearGradient id="linear-gradient-97" x1="-30.547" y1="-24.565" x2="24.469" y2="19.85" xlink:href="#linear-gradient"/>
    <linearGradient id="linear-gradient-98" x1="-31.55" y1="-25.372" x2="23.465" y2="19.038" xlink:href="#linear-gradient"/>
    <linearGradient id="linear-gradient-99" x1="-32.555" y1="-26.183" x2="22.463" y2="18.229" xlink:href="#linear-gradient"/>
    <linearGradient id="linear-gradient-100" x1="-175.788" y1="-40.629" x2="183.409" y2="43.174" xlink:href="#linear-gradient"/>
    <linearGradient id="linear-gradient-101" x1="-178.318" y1="-41.221" x2="180.88" y2="42.585" xlink:href="#linear-gradient"/>
    <linearGradient id="linear-gradient-102" x1="-180.847" y1="-41.812" x2="178.35" y2="41.996" xlink:href="#linear-gradient"/>
  </defs>
  <g id="Grupo_2883" data-name="Grupo 2883" transform="translate(260.374)">
    <g id="Grupo_2882" data-name="Grupo 2882">
      <path id="Caminho_20625" data-name="Caminho 20625" d="M2778.634,612.039l-58.724-28.544,1.221-6.871,58.536,28.315Z" transform="translate(-2666 -569.966)" fill="#df4640"/>
      <path id="Caminho_20626" data-name="Caminho 20626" d="M2774.51,637.821,2715.4,608.8l1.239-6.97,58.92,28.784Z" transform="translate(-2663.996 -581.163)" fill="url(#linear-gradient)"/>
      <path id="Caminho_20627" data-name="Caminho 20627" d="M2846.208,701.475l-61.086-30.29,1.123-7.241,60.881,30.041Z" transform="translate(-2694.968 -608.755)" fill="#91beff"/>
      <path id="Caminho_20628" data-name="Caminho 20628" d="M2969.107,762.2l-63.693-31.584.9-7.513,63.47,31.318Z" transform="translate(-2748.403 -635.033)" fill="#91beff"/>
      <path id="Caminho_20629" data-name="Caminho 20629" d="M3097.318,825.542l-66.471-32.961.654-7.8,66.227,32.679Z" transform="translate(-2804.122 -662.43)" fill="#91beff"/>
      <path id="Caminho_20630" data-name="Caminho 20630" d="M3231.188,891.677l-69.434-34.43.387-8.114,69.169,34.131Z" transform="translate(-2862.272 -691.017)" fill="#91beff"/>
      <path id="Caminho_20631" data-name="Caminho 20631" d="M2887.2,750.979,2824.742,719.7l1.059-7.448,62.241,31.021Z" transform="translate(-2712.568 -630.212)" fill="#91beff"/>
      <path id="Caminho_20632" data-name="Caminho 20632" d="M2996.323,805.41l-48.589-24.338.825-7.734,48.415,24.13Z" transform="translate(-2767.202 -657.349)" fill="#91beff"/>
      <path id="Caminho_20633" data-name="Caminho 20633" d="M3096.521,855.41l-50.234-25.162.628-7.967,50.048,24.944Z" transform="translate(-2810.98 -679.09)" fill="#91beff"/>
      <path id="Caminho_20634" data-name="Caminho 20634" d="M3200.143,907.117l-51.965-26.028.419-8.213,51.766,25.8Z" transform="translate(-2856.241 -701.565)" fill="#91beff"/>
      <path id="Caminho_20635" data-name="Caminho 20635" d="M2838.688,756.257l-61.932-31.335,1.158-7.458,61.72,31.074Z" transform="translate(-2691.252 -632.529)" fill="#91beff"/>
      <path id="Caminho_20636" data-name="Caminho 20636" d="M2922.92,798.648l-24.2-12.246.927-7.745,24.118,12.142Z" transform="translate(-2745.428 -659.712)" fill="#91beff"/>
      <path id="Caminho_20637" data-name="Caminho 20637" d="M2978.173,826.5l-24.659-12.477.82-7.876,24.572,12.371Z" transform="translate(-2769.77 -671.923)" fill="#91beff"/>
      <path id="Caminho_20638" data-name="Caminho 20638" d="M3034.472,854.879l-25.128-12.715.709-8.01,25.036,12.6Z" transform="translate(-2794.57 -684.364)" fill="#91beff"/>
      <path id="Caminho_20639" data-name="Caminho 20639" d="M3091.849,883.8l-25.611-12.958.593-8.148,25.515,12.846Z" transform="translate(-2819.843 -697.041)" fill="#91beff"/>
      <path id="Caminho_20640" data-name="Caminho 20640" d="M2925.878,830.64l-64.333-32.884,1.007-7.783,64.1,32.6Z" transform="translate(-2728.916 -664.738)" fill="#91beff"/>
      <path id="Caminho_20641" data-name="Caminho 20641" d="M3055.43,896.616l-67.189-34.345.756-8.091,66.941,34.045Z" transform="translate(-2785.196 -693.26)" fill="#91beff"/>
      <path id="Caminho_20642" data-name="Caminho 20642" d="M3190.807,965.553l-70.24-35.9.484-8.418,69.968,35.586Z" transform="translate(-2843.976 -723.044)" fill="#91beff"/>
      <path id="Caminho_20643" data-name="Caminho 20643" d="M2830.938,812.727l-62.8-32.431,1.192-7.687,62.584,32.157Z" transform="translate(-2687.423 -657.024)" fill="#91beff"/>
      <path id="Caminho_20644" data-name="Caminho 20644" d="M2701.866,776.491l-14.967-7.809,1.354-7.618,14.917,7.744Z" transform="translate(-2651.336 -651.896)" fill="url(#linear-gradient-2)"/>
      <path id="Caminho_20645" data-name="Caminho 20645" d="M2696.964,804.695,2681.9,796.75l1.375-7.735,15.018,7.878Z" transform="translate(-2649.114 -664.312)" fill="#df4640"/>
      <path id="Caminho_20646" data-name="Caminho 20646" d="M2739.212,858.495l-62.4-33.244,1.4-7.854,62.184,32.96Z" transform="translate(-2646.857 -676.92)" fill="url(#linear-gradient-3)"/>
      <path id="Caminho_20647" data-name="Caminho 20647" d="M2814.1,930.738l-68.409-36.833,1.278-8.166,68.167,36.511Z" transform="translate(-2677.454 -707.278)" fill="#91beff"/>
      <path id="Caminho_20648" data-name="Caminho 20648" d="M2904.111,978.924l-26.733-14.393,1.018-8.509,26.635,14.266Z" transform="translate(-2735.949 -738.499)" fill="#91beff"/>
      <path id="Caminho_20649" data-name="Caminho 20649" d="M2900.547,1010.553,2873.612,995.9l1.035-8.648,26.835,14.526Z" transform="translate(-2734.276 -752.371)" fill="#91beff"/>
      <path id="Caminho_20650" data-name="Caminho 20650" d="M2969.7,1014.1l-27.333-14.717.885-8.681,27.231,14.586Z" transform="translate(-2764.82 -753.905)" fill="#91beff"/>
      <path id="Caminho_20651" data-name="Caminho 20651" d="M2948.694,1036.611l-9.6-5.223.9-8.824,9.563,5.177Z" transform="translate(-2763.365 -768.058)" fill="#91beff"/>
      <path id="Caminho_20652" data-name="Caminho 20652" d="M2977.782,1052.377l-9.693-5.275.839-8.9,9.656,5.227Z" transform="translate(-2776.244 -775.003)" fill="#91beff"/>
      <path id="Caminho_20653" data-name="Caminho 20653" d="M3007.158,1068.3l-9.791-5.328.778-8.982,9.752,5.279Z" transform="translate(-2789.25 -782.017)" fill="#91beff"/>
      <path id="Caminho_20654" data-name="Caminho 20654" d="M3036.826,1084.377l-9.887-5.38.713-9.062,9.849,5.331Z" transform="translate(-2802.386 -789.1)" fill="#91beff"/>
      <path id="Caminho_20655" data-name="Caminho 20655" d="M3066.788,1100.616l-9.986-5.433.65-9.144,9.947,5.384Z" transform="translate(-2815.652 -796.254)" fill="#91beff"/>
      <path id="Caminho_20656" data-name="Caminho 20656" d="M3036.779,1050.074l-27.954-15.05.747-8.859,27.847,14.916Z" transform="translate(-2794.339 -769.657)" fill="#91beff"/>
      <path id="Caminho_20657" data-name="Caminho 20657" d="M3105.388,1086.867l-28.6-15.4.6-9.043,28.484,15.258Z" transform="translate(-2824.531 -785.766)" fill="#91beff"/>
      <path id="Caminho_20658" data-name="Caminho 20658" d="M2809.876,961.5,2740.971,924l1.3-8.3,68.659,37.167Z" transform="translate(-2675.356 -720.59)" fill="#91beff"/>
      <path id="Caminho_20659" data-name="Caminho 20659" d="M2761.179,968.331l-25.006-13.753,1.318-8.429,24.918,13.633Z" transform="translate(-2673.224 -734.114)" fill="#df4640"/>
      <path id="Caminho_20660" data-name="Caminho 20660" d="M2753.075,997.3l-98.782-50.322,1.168-8.418,98.423,49.86Z" transform="translate(-2636.852 -730.742)" fill="url(#linear-gradient-4)"/>
      <path id="Caminho_20661" data-name="Caminho 20661" d="M2661.3,980.832l-11.11-6.244,1.51-8.495,11.071,6.189Z" transform="translate(-2635.029 -742.973)" fill="#df4640"/>
      <path id="Caminho_20662" data-name="Caminho 20662" d="M2689.673,996.716l-11.222-6.307,1.455-8.572,11.183,6.252Z" transform="translate(-2647.583 -749.966)" fill="#df4640"/>
      <path id="Caminho_20663" data-name="Caminho 20663" d="M2701.638,574.657l-6.572-3.194,1.264-6.818,6.551,3.169Z" transform="translate(-2654.964 -564.645)" fill="#91beff"/>
      <path id="Caminho_20664" data-name="Caminho 20664" d="M2697.01,599.816l-6.613-3.247,1.282-6.917,6.593,3.222Z" transform="translate(-2652.89 -575.753)" fill="#91beff"/>
      <path id="Caminho_20665" data-name="Caminho 20665" d="M2692.314,625.343l-6.656-3.3,1.3-7.017,6.635,3.275Z" transform="translate(-2650.785 -587.024)" fill="#91beff"/>
      <path id="Caminho_20666" data-name="Caminho 20666" d="M2687.55,651.243l-6.7-3.356,1.32-7.12,6.679,3.328Z" transform="translate(-2648.649 -598.459)" fill="#91beff"/>
      <path id="Caminho_20667" data-name="Caminho 20667" d="M2682.716,677.525l-6.743-3.412,1.339-7.226,6.722,3.385Z" transform="translate(-2646.483 -610.062)" fill="#91beff"/>
      <path id="Caminho_20668" data-name="Caminho 20668" d="M2677.809,704.2l-6.788-3.469,1.36-7.334,6.766,3.442Z" transform="translate(-2644.283 -621.837)" fill="#91beff"/>
      <path id="Caminho_20669" data-name="Caminho 20669" d="M2672.829,731.271,2666,727.742l1.379-7.443,6.81,3.5Z" transform="translate(-2642.051 -633.788)" fill="#91beff"/>
      <path id="Caminho_20670" data-name="Caminho 20670" d="M2667.774,758.751l-6.878-3.589,1.4-7.555,6.856,3.559Z" transform="translate(-2639.785 -645.918)" fill="#91beff"/>
      <path id="Caminho_20671" data-name="Caminho 20671" d="M2662.641,786.65,2655.718,783l1.422-7.67,6.9,3.62Z" transform="translate(-2637.485 -658.233)" fill="#91beff"/>
      <path id="Caminho_20672" data-name="Caminho 20672" d="M2657.43,814.976l-6.971-3.714,1.444-7.789,6.947,3.683Z" transform="translate(-2635.149 -670.735)" fill="#91beff"/>
      <path id="Caminho_20673" data-name="Caminho 20673" d="M2652.138,843.739l-7.018-3.778,1.466-7.909,6.995,3.747Z" transform="translate(-2632.778 -683.43)" fill="#91beff"/>
      <path id="Caminho_20674" data-name="Caminho 20674" d="M2646.764,872.95l-7.067-3.845,1.49-8.032,7.042,3.811Z" transform="translate(-2630.369 -696.321)" fill="#91beff"/>
      <path id="Caminho_20675" data-name="Caminho 20675" d="M2641.3,902.617l-7.115-3.912,1.513-8.159,7.091,3.879Z" transform="translate(-2627.922 -709.414)" fill="#91beff"/>
      <path id="Caminho_20676" data-name="Caminho 20676" d="M2635.76,932.756l-7.163-3.982,1.536-8.288,7.139,3.947Z" transform="translate(-2625.438 -722.713)" fill="#91beff"/>
      <path id="Caminho_20677" data-name="Caminho 20677" d="M2630.126,963.373l-7.213-4.053,1.562-8.42,7.188,4.018Z" transform="translate(-2622.913 -736.224)" fill="#91beff"/>
    </g>
  </g>
  <g id="Grupo_2973" data-name="Grupo 2973" transform="translate(0 5.342)">
    <g id="Grupo_2895" data-name="Grupo 2895" transform="translate(78.343 50.36)">
      <path id="Caminho_20678" data-name="Caminho 20678" d="M2439.372,807.715,2301.266,736.7a7.851,7.851,0,0,1-4.173-6.259l-1.629-62.52c0-2.3,3.5-3.814,5.8-2.661l139.775,69.9a7.85,7.85,0,0,1,4.172,6.258v63.1C2445.213,806.822,2441.677,808.868,2439.372,807.715Z" transform="translate(-2295.426 -664.865)" fill="#91beff"/>
      <path id="Caminho_20679" data-name="Caminho 20679" d="M2439.342,808.526l-139.774-69.9a7.85,7.85,0,0,1-4.173-6.259V669.27c0-2.3,1.867-3.238,4.173-2.085l139.774,69.9a7.851,7.851,0,0,1,4.173,6.259v63.1C2443.514,808.745,2441.646,809.679,2439.342,808.526Z" transform="translate(-2295.395 -665.676)" fill="#2742a8"/>
      <g id="Grupo_2894" data-name="Grupo 2894" transform="translate(9.297 30.52)">
        <g id="Grupo_2893" data-name="Grupo 2893">
          <g id="Grupo_2890" data-name="Grupo 2890">
            <path id="Caminho_20680" data-name="Caminho 20680" d="M2314.324,758.349h0a4.144,4.144,0,0,1-2.2-3.3V721.139c0-1.216.986-1.709,2.2-1.1h0a4.144,4.144,0,0,1,2.2,3.3v33.906C2316.525,758.464,2315.539,758.957,2314.324,758.349Z" transform="translate(-2312.122 -719.778)" fill="url(#linear-gradient-5)"/>
            <g id="Grupo_2884" data-name="Grupo 2884" transform="translate(5.284 23.779)">
              <path id="Caminho_20681" data-name="Caminho 20681" d="M2323.832,780h0a4.139,4.139,0,0,1-2.2-3.3V763.925c0-1.218.986-1.71,2.2-1.1h0a4.144,4.144,0,0,1,2.2,3.3V778.9C2326.032,780.112,2325.047,780.6,2323.832,780Z" transform="translate(-2321.629 -762.562)" fill="#df4640"/>
            </g>
            <path id="Caminho_20682" data-name="Caminho 20682" d="M2350.769,776.575h0a4.145,4.145,0,0,1-2.2-3.3V739.365c0-1.216.986-1.708,2.2-1.1h0a4.143,4.143,0,0,1,2.2,3.3v33.906C2352.971,776.691,2351.985,777.183,2350.769,776.575Z" transform="translate(-2328.311 -727.874)" fill="url(#linear-gradient-6)"/>
            <g id="Grupo_2885" data-name="Grupo 2885" transform="translate(25.54 23.341)">
              <path id="Caminho_20683" data-name="Caminho 20683" d="M2360.277,789.777h0a4.141,4.141,0,0,1-2.2-3.3V763.135c0-1.216.985-1.709,2.2-1.1h0a4.143,4.143,0,0,1,2.2,3.3v23.339C2362.479,789.892,2361.493,790.385,2360.277,789.777Z" transform="translate(-2358.075 -761.774)" fill="#df4640"/>
            </g>
            <g id="Grupo_2886" data-name="Grupo 2886" transform="translate(40.072 35.012)">
              <path id="Caminho_20684" data-name="Caminho 20684" d="M2386.422,806.372h0a4.142,4.142,0,0,1-2.2-3.3V784.134c0-1.216.986-1.708,2.2-1.1h0a4.141,4.141,0,0,1,2.2,3.3v18.936C2388.625,806.488,2387.639,806.98,2386.422,806.372Z" transform="translate(-2384.221 -782.773)" fill="#df4640"/>
            </g>
            <path id="Caminho_20685" data-name="Caminho 20685" d="M2395.931,819.925h0a4.141,4.141,0,0,1-2.2-3.3V808.7c0-1.215.985-1.71,2.2-1.1h0a4.146,4.146,0,0,1,2.2,3.3v7.926C2398.133,820.04,2397.148,820.533,2395.931,819.925Z" transform="translate(-2348.373 -758.671)" fill="url(#linear-gradient-7)"/>
            <g id="Grupo_2887" data-name="Grupo 2887" transform="translate(61.649 24.666)">
              <path id="Caminho_20686" data-name="Caminho 20686" d="M2425.246,808.894h0a4.145,4.145,0,0,1-2.2-3.3V765.518c0-1.215.986-1.707,2.2-1.1h0a4.144,4.144,0,0,1,2.2,3.3v40.072C2427.447,809.009,2426.461,809.5,2425.246,808.894Z" transform="translate(-2423.044 -764.158)" fill="#df4640"/>
            </g>
            <path id="Caminho_20687" data-name="Caminho 20687" d="M2434.753,839.34h0a4.142,4.142,0,0,1-2.2-3.3v-7.926c0-1.215.985-1.709,2.2-1.1h0a4.144,4.144,0,0,1,2.2,3.3v7.925C2436.956,839.456,2435.969,839.949,2434.753,839.34Z" transform="translate(-2365.618 -767.296)" fill="url(#linear-gradient-8)"/>
            <path id="Caminho_20688" data-name="Caminho 20688" d="M2460.9,826.725h0a4.144,4.144,0,0,1-2.2-3.3V783.349c0-1.215.986-1.707,2.2-1.1h0a4.144,4.144,0,0,1,2.2,3.3v40.073C2463.1,826.84,2462.115,827.332,2460.9,826.725Z" transform="translate(-2377.232 -747.413)" fill="url(#linear-gradient-9)"/>
            <g id="Grupo_2888" data-name="Grupo 2888" transform="translate(86.749 47.347)">
              <path id="Caminho_20689" data-name="Caminho 20689" d="M2470.406,839.574h0a4.142,4.142,0,0,1-2.2-3.3V806.327c0-1.216.986-1.708,2.2-1.1h0a4.141,4.141,0,0,1,2.2,3.3v29.943C2472.608,839.69,2471.623,840.183,2470.406,839.574Z" transform="translate(-2468.205 -804.967)" fill="#df4640"/>
            </g>
            <g id="Grupo_2889" data-name="Grupo 2889" transform="translate(102.161 44.926)">
              <path id="Caminho_20690" data-name="Caminho 20690" d="M2498.137,845.348h0a4.145,4.145,0,0,1-2.2-3.3V801.972c0-1.215.986-1.708,2.2-1.1h0a4.142,4.142,0,0,1,2.2,3.3v40.072C2500.338,845.463,2499.353,845.956,2498.137,845.348Z" transform="translate(-2495.935 -800.611)" fill="#df4640"/>
            </g>
            <path id="Caminho_20691" data-name="Caminho 20691" d="M2507.645,851.862h0a4.144,4.144,0,0,1-2.2-3.3V810.689c0-1.216.986-1.71,2.2-1.1h0a4.146,4.146,0,0,1,2.2,3.3v37.871C2509.846,851.977,2508.861,852.47,2507.645,851.862Z" transform="translate(-2397.997 -759.557)" fill="url(#linear-gradient-10)"/>
          </g>
          <g id="Grupo_2892" data-name="Grupo 2892" transform="translate(119.84 59.932)">
            <g id="Grupo_2891" data-name="Grupo 2891">
              <path id="Caminho_20692" data-name="Caminho 20692" d="M2529.943,866.181h0a4.139,4.139,0,0,1-2.2-3.3V828.972c0-1.215.984-1.71,2.2-1.1h0a4.145,4.145,0,0,1,2.2,3.3v33.907C2532.146,866.3,2531.159,866.789,2529.943,866.181Z" transform="translate(-2527.743 -827.61)" fill="#df4640"/>
            </g>
            <path id="Caminho_20693" data-name="Caminho 20693" d="M2539.45,887.829h0a4.145,4.145,0,0,1-2.2-3.3v-12.77c0-1.218.987-1.71,2.2-1.1h0a4.145,4.145,0,0,1,2.2,3.3v12.77C2541.653,887.944,2540.667,888.438,2539.45,887.829Z" transform="translate(-2531.966 -846.615)" fill="url(#linear-gradient-11)"/>
          </g>
        </g>
      </g>
    </g>
    <g id="Grupo_2903" data-name="Grupo 2903" transform="translate(85.931 145.372)">
      <path id="Caminho_20694" data-name="Caminho 20694" d="M2406.968,935.607l-92.906-48.848a5.452,5.452,0,0,1-2.9-4.346l-2.12-43.639c0-1.6,3.416-3.574,5.015-2.774l95.025,47.523a5.449,5.449,0,0,1,2.9,4.344v44.966C2411.983,934.432,2408.568,936.407,2406.968,935.607Z" transform="translate(-2309.047 -835.816)" fill="#91beff"/>
      <path id="Caminho_20695" data-name="Caminho 20695" d="M2406.968,936.54l-95.025-47.522a5.449,5.449,0,0,1-2.9-4.345V839.707c0-1.6,1.3-2.248,2.9-1.448l95.025,47.523a5.452,5.452,0,0,1,2.9,4.345v44.965C2409.865,936.692,2408.568,937.339,2406.968,936.54Z" transform="translate(-2309.047 -836.749)" fill="#2742a8"/>
      <g id="Grupo_2902" data-name="Grupo 2902" transform="translate(2.571 3.627)">
        <g id="Grupo_2901" data-name="Grupo 2901">
          <path id="Caminho_20696" data-name="Caminho 20696" d="M2364.915,870.881l-19.06-9.531v-2.912l19.06,9.532Z" transform="translate(-2327.969 -849.492)" fill="url(#linear-gradient-12)"/>
          <path id="Caminho_20697" data-name="Caminho 20697" d="M2390.549,883.7l-7.227-3.614v-2.911l7.227,3.615Z" transform="translate(-2344.612 -857.815)" fill="url(#linear-gradient-13)"/>
          <g id="Grupo_2896" data-name="Grupo 2896" transform="translate(47.787 23.899)">
            <path id="Caminho_20698" data-name="Caminho 20698" d="M2406.881,891.869l-7.227-3.615v-2.912l7.227,3.615Z" transform="translate(-2399.654 -885.342)" fill="#df4640"/>
          </g>
          <g id="Grupo_2897" data-name="Grupo 2897" transform="translate(56.863 28.438)">
            <path id="Caminho_20699" data-name="Caminho 20699" d="M2423.211,900.035l-7.227-3.614V893.51l7.227,3.614Z" transform="translate(-2415.984 -893.51)" fill="#df4640"/>
          </g>
          <g id="Grupo_2898" data-name="Grupo 2898" transform="translate(65.94 32.978)">
            <path id="Caminho_20700" data-name="Caminho 20700" d="M2439.543,908.2l-7.227-3.614v-2.911l7.227,3.615Z" transform="translate(-2432.316 -901.677)" fill="#df4640"/>
          </g>
          <path id="Caminho_20701" data-name="Caminho 20701" d="M2392.244,895.189l-19.06-9.532v-2.912l19.06,9.532Z" transform="translate(-2340.108 -860.29)" fill="url(#linear-gradient-14)"/>
          <path id="Caminho_20702" data-name="Caminho 20702" d="M2429.711,913.927l-19.059-9.532v-2.911l19.059,9.532Z" transform="translate(-2356.752 -868.613)" fill="url(#linear-gradient-15)"/>
          <path id="Caminho_20703" data-name="Caminho 20703" d="M2467.177,932.663l-19.06-9.532v-2.912l19.06,9.533Z" transform="translate(-2373.395 -876.936)" fill="url(#linear-gradient-16)"/>
          <path id="Caminho_20704" data-name="Caminho 20704" d="M2364.915,892.162l-19.06-9.532v-2.911l19.06,9.532Z" transform="translate(-2327.969 -858.945)" fill="url(#linear-gradient-17)"/>
          <path id="Caminho_20705" data-name="Caminho 20705" d="M2326.625,883.654l-4.7-2.353V878.39l4.7,2.352Z" transform="translate(-2317.337 -858.355)" fill="url(#linear-gradient-18)"/>
          <path id="Caminho_20706" data-name="Caminho 20706" d="M2326.625,894.295l-4.7-2.353v-2.911l4.7,2.352Z" transform="translate(-2317.337 -863.082)" fill="url(#linear-gradient-19)"/>
          <path id="Caminho_20707" data-name="Caminho 20707" d="M2340.981,912.114l-19.06-9.531V899.67l19.06,9.532Z" transform="translate(-2317.337 -867.808)" fill="url(#linear-gradient-20)"/>
          <path id="Caminho_20708" data-name="Caminho 20708" d="M2364.72,934.627l-20.187-10.1V921.62l20.187,10.1Z" transform="translate(-2327.381 -877.558)" fill="url(#linear-gradient-21)"/>
          <path id="Caminho_20709" data-name="Caminho 20709" d="M2390.971,947.756l-7.636-3.819v-2.912l7.636,3.819Z" transform="translate(-2344.617 -886.178)" fill="url(#linear-gradient-22)"/>
          <g id="Grupo_2899" data-name="Grupo 2899" transform="translate(38.717 60.76)">
            <path id="Caminho_20710" data-name="Caminho 20710" d="M2390.971,958.4l-7.636-3.819v-2.912l7.636,3.82Z" transform="translate(-2383.334 -951.665)" fill="#df4640"/>
          </g>
          <path id="Caminho_20711" data-name="Caminho 20711" d="M2409.484,957.013l-7.637-3.818v-2.912l7.637,3.82Z" transform="translate(-2352.841 -890.291)" fill="url(#linear-gradient-23)"/>
          <g id="Grupo_2900" data-name="Grupo 2900" transform="translate(49.006 65.907)">
            <path id="Caminho_20712" data-name="Caminho 20712" d="M2404.523,965.174l-2.676-1.338v-2.912l2.676,1.338Z" transform="translate(-2401.847 -960.924)" fill="#df4640"/>
          </g>
          <path id="Caminho_20713" data-name="Caminho 20713" d="M2412.59,969.208l-2.676-1.339v-2.911l2.676,1.338Z" transform="translate(-2356.425 -896.81)" fill="url(#linear-gradient-24)"/>
          <path id="Caminho_20714" data-name="Caminho 20714" d="M2420.656,973.243l-2.676-1.338v-2.912l2.676,1.338Z" transform="translate(-2360.007 -898.602)" fill="url(#linear-gradient-25)"/>
          <path id="Caminho_20715" data-name="Caminho 20715" d="M2428.722,977.276l-2.676-1.338v-2.911l2.676,1.338Z" transform="translate(-2363.591 -900.393)" fill="url(#linear-gradient-26)"/>
          <path id="Caminho_20716" data-name="Caminho 20716" d="M2436.788,981.31l-2.675-1.338V977.06l2.675,1.339Z" transform="translate(-2367.174 -902.185)" fill="url(#linear-gradient-27)"/>
          <path id="Caminho_20717" data-name="Caminho 20717" d="M2428,966.273l-7.636-3.819v-2.912l7.636,3.819Z" transform="translate(-2361.065 -894.404)" fill="url(#linear-gradient-28)"/>
          <path id="Caminho_20718" data-name="Caminho 20718" d="M2446.51,975.532l-7.637-3.82V968.8l7.637,3.818Z" transform="translate(-2369.288 -898.517)" fill="url(#linear-gradient-29)"/>
          <path id="Caminho_20719" data-name="Caminho 20719" d="M2364.72,945.268l-20.187-10.095v-2.911l20.187,10.1Z" transform="translate(-2327.381 -882.285)" fill="url(#linear-gradient-30)"/>
          <path id="Caminho_20720" data-name="Caminho 20720" d="M2315.86,846.348l-2.187-1.094v-2.912l2.187,1.094Z" transform="translate(-2313.673 -842.342)" fill="url(#linear-gradient-31)"/>
          <path id="Caminho_20721" data-name="Caminho 20721" d="M2315.86,856.988l-2.187-1.094v-2.911l2.187,1.094Z" transform="translate(-2313.673 -847.069)" fill="url(#linear-gradient-32)"/>
          <path id="Caminho_20722" data-name="Caminho 20722" d="M2315.86,867.629l-2.187-1.094v-2.911l2.187,1.094Z" transform="translate(-2313.673 -851.795)" fill="url(#linear-gradient-33)"/>
          <path id="Caminho_20723" data-name="Caminho 20723" d="M2315.86,878.27l-2.187-1.094v-2.911l2.187,1.093Z" transform="translate(-2313.673 -856.523)" fill="url(#linear-gradient-34)"/>
          <path id="Caminho_20724" data-name="Caminho 20724" d="M2315.86,888.911l-2.187-1.095V884.9L2315.86,886Z" transform="translate(-2313.673 -861.249)" fill="url(#linear-gradient-35)"/>
          <path id="Caminho_20725" data-name="Caminho 20725" d="M2315.86,899.552l-2.187-1.094v-2.911l2.187,1.093Z" transform="translate(-2313.673 -865.976)" fill="url(#linear-gradient-36)"/>
          <path id="Caminho_20726" data-name="Caminho 20726" d="M2315.86,910.192l-2.187-1.094v-2.911l2.187,1.094Z" transform="translate(-2313.673 -870.703)" fill="url(#linear-gradient-37)"/>
          <path id="Caminho_20727" data-name="Caminho 20727" d="M2315.86,920.832l-2.187-1.094v-2.912l2.187,1.094Z" transform="translate(-2313.673 -875.429)" fill="url(#linear-gradient-38)"/>
        </g>
      </g>
    </g>
    <g id="Grupo_2910" data-name="Grupo 2910" transform="translate(457.397 185.437)">
      <path id="Caminho_20728" data-name="Caminho 20728" d="M3258.6,1125.755l-273.09-140.384c-3.212-1.606-5.814-5.511-5.814-8.723l-2.3-63.088c0-3.211,4.9-6.872,8.11-5.266L3260.9,1046.016c3.211,1.606,5.814,5.511,5.814,8.723v65.448C3266.714,1126.125,3261.816,1127.361,3258.6,1125.755Z" transform="translate(-2977.405 -907.903)" fill="#91beff"/>
      <path id="Caminho_20729" data-name="Caminho 20729" d="M3258.6,1127.645,2983.22,989.924c-3.211-1.606-5.814-5.511-5.814-8.723V915.753c0-3.211,2.6-4.513,5.814-2.906L3258.6,1050.568c3.211,1.606,5.814,5.512,5.814,8.723v65.447C3264.419,1127.95,3261.816,1129.251,3258.6,1127.645Z" transform="translate(-2977.405 -909.793)" fill="#2742a8"/>
      <g id="Grupo_2909" data-name="Grupo 2909" transform="translate(13.713 15.232)">
        <g id="Grupo_2908" data-name="Grupo 2908">
          <g id="Grupo_2904" data-name="Grupo 2904" transform="translate(11.961 5.982)">
            <path id="Caminho_20730" data-name="Caminho 20730" d="M3073.325,976.646,3023.6,951.778v-5.706l49.725,24.868Z" transform="translate(-3023.6 -946.072)" fill="#df4640"/>
          </g>
          <path id="Caminho_20731" data-name="Caminho 20731" d="M3073.325,997.5,3023.6,972.633v-5.706l49.725,24.868Z" transform="translate(-3011.638 -949.354)" fill="url(#linear-gradient-39)"/>
          <path id="Caminho_20732" data-name="Caminho 20732" d="M3135.769,1049.586l-49.726-24.869v-5.706l49.726,24.869Z" transform="translate(-3039.376 -972.49)" fill="url(#linear-gradient-40)"/>
          <path id="Caminho_20733" data-name="Caminho 20733" d="M3233.518,1098.47l-49.725-24.868V1067.9l49.725,24.868Z" transform="translate(-3082.798 -994.206)" fill="url(#linear-gradient-41)"/>
          <path id="Caminho_20734" data-name="Caminho 20734" d="M3331.266,1147.354l-49.726-24.868v-5.706l49.726,24.869Z" transform="translate(-3126.219 -1015.921)" fill="url(#linear-gradient-42)"/>
          <path id="Caminho_20735" data-name="Caminho 20735" d="M3429.015,1196.24l-49.726-24.869v-5.706l49.726,24.869Z" transform="translate(-3169.64 -1037.635)" fill="url(#linear-gradient-43)"/>
          <path id="Caminho_20736" data-name="Caminho 20736" d="M3171.565,1088.342l-49.725-24.868v-5.706l49.725,24.868Z" transform="translate(-3055.278 -989.707)" fill="url(#linear-gradient-44)"/>
          <path id="Caminho_20737" data-name="Caminho 20737" d="M3256.851,1130.994l-37.262-18.635v-5.706l37.262,18.636Z" transform="translate(-3098.699 -1011.421)" fill="url(#linear-gradient-45)"/>
          <path id="Caminho_20738" data-name="Caminho 20738" d="M3332.29,1168.722l-37.263-18.635v-5.706l37.263,18.634Z" transform="translate(-3132.209 -1028.181)" fill="url(#linear-gradient-46)"/>
          <path id="Caminho_20739" data-name="Caminho 20739" d="M3407.728,1206.45l-37.263-18.635v-5.707l37.263,18.635Z" transform="translate(-3165.72 -1044.94)" fill="url(#linear-gradient-47)"/>
          <g id="Grupo_2905" data-name="Grupo 2905" transform="translate(46.667 69.703)">
            <path id="Caminho_20740" data-name="Caminho 20740" d="M3135.769,1091.3l-49.726-24.868v-5.706l49.726,24.868Z" transform="translate(-3086.043 -1060.722)" fill="#df4640"/>
          </g>
          <path id="Caminho_20741" data-name="Caminho 20741" d="M3202.647,1124.742l-18.854-9.43v-5.706l18.854,9.43Z" transform="translate(-3082.798 -1012.733)" fill="url(#linear-gradient-48)"/>
          <path id="Caminho_20742" data-name="Caminho 20742" d="M3245.254,1146.05l-18.855-9.43v-5.706l18.855,9.429Z" transform="translate(-3101.724 -1022.199)" fill="url(#linear-gradient-49)"/>
          <path id="Caminho_20743" data-name="Caminho 20743" d="M3287.861,1167.358l-18.855-9.428v-5.706l18.855,9.43Z" transform="translate(-3120.651 -1031.664)" fill="url(#linear-gradient-50)"/>
          <path id="Caminho_20744" data-name="Caminho 20744" d="M3330.468,1188.666l-18.854-9.43v-5.706l18.854,9.43Z" transform="translate(-3139.577 -1041.129)" fill="url(#linear-gradient-51)"/>
          <g id="Grupo_2906" data-name="Grupo 2906">
            <path id="Caminho_20745" data-name="Caminho 20745" d="M3007.785,943.868l-5.707-2.854v-5.706l5.707,2.853Z" transform="translate(-3002.078 -935.309)" fill="#df4640"/>
          </g>
          <path id="Caminho_20746" data-name="Caminho 20746" d="M3007.785,964.724l-5.707-2.853v-5.706l5.707,2.853Z" transform="translate(-3002.078 -944.573)" fill="url(#linear-gradient-52)"/>
          <path id="Caminho_20747" data-name="Caminho 20747" d="M3007.785,985.579l-5.707-2.854v-5.706l5.707,2.853Z" transform="translate(-3002.078 -953.837)" fill="url(#linear-gradient-53)"/>
          <path id="Caminho_20748" data-name="Caminho 20748" d="M3007.785,1006.434l-5.707-2.853v-5.706l5.707,2.853Z" transform="translate(-3002.078 -963.101)" fill="url(#linear-gradient-54)"/>
          <g id="Grupo_2907" data-name="Grupo 2907" transform="translate(0 46.364)">
            <path id="Caminho_20749" data-name="Caminho 20749" d="M3007.785,1027.289l-5.707-2.853v-5.706l5.707,2.854Z" transform="translate(-3002.078 -1018.729)" fill="#df4640"/>
          </g>
        </g>
      </g>
    </g>
    <g id="Grupo_2916" data-name="Grupo 2916" transform="translate(137.87)">
      <path id="Caminho_20750" data-name="Caminho 20750" d="M2572.868,714.557l-162.121-84.283c-2.946-1.474-5.335-5.058-5.335-8.005l-2.913-43.711c0-2.947,5.3-5.327,8.248-3.853l165.032,82.533c2.947,1.473,5.336,5.058,5.336,8.006v44.9C2581.115,713.086,2577.059,716.588,2572.868,714.557Z" transform="translate(-2402.499 -574.256)" fill="#91beff"/>
      <path id="Caminho_20751" data-name="Caminho 20751" d="M2572.868,715.709l-165.031-82.534c-2.947-1.474-5.336-5.058-5.336-8.005v-44.9c-.09-3.529,2.385-4.163,5.336-2.668l165.031,82.534c2.948,1.474,5.337,5.058,5.337,8.006v44.9C2578.2,715.988,2575.816,717.183,2572.868,715.709Z" transform="translate(-2402.499 -575.408)" fill="#2742a8"/>
      <g id="Grupo_2915" data-name="Grupo 2915" transform="translate(7.092 6.21)">
        <g id="Grupo_2914" data-name="Grupo 2914">
          <g id="Grupo_2911" data-name="Grupo 2911" transform="translate(9.734 4.869)">
            <path id="Caminho_20752" data-name="Caminho 20752" d="M2442.761,603.315l-9.987-4.994V594.19l9.987,4.994Z" transform="translate(-2432.774 -594.19)" fill="#df4640"/>
          </g>
          <path id="Caminho_20753" data-name="Caminho 20753" d="M2442.761,618.415l-9.987-4.994v-4.132l9.987,4.995Z" transform="translate(-2423.039 -596.028)" fill="url(#linear-gradient-55)"/>
          <path id="Caminho_20754" data-name="Caminho 20754" d="M2473.242,648.759l-40.468-20.238v-4.131l40.468,20.238Z" transform="translate(-2423.039 -602.735)" fill="url(#linear-gradient-56)"/>
          <path id="Caminho_20755" data-name="Caminho 20755" d="M2523.646,689.067l-42.861-21.436V663.5l42.861,21.436Z" transform="translate(-2444.366 -620.109)" fill="url(#linear-gradient-57)"/>
          <path id="Caminho_20756" data-name="Caminho 20756" d="M2579.385,716.941l-16.215-8.109V704.7l16.215,8.11Z" transform="translate(-2480.963 -638.411)" fill="url(#linear-gradient-58)"/>
          <path id="Caminho_20757" data-name="Caminho 20757" d="M2579.385,732.042l-16.215-8.11V719.8l16.215,8.11Z" transform="translate(-2480.963 -645.118)" fill="url(#linear-gradient-59)"/>
          <path id="Caminho_20758" data-name="Caminho 20758" d="M2618.691,736.6l-16.215-8.11v-4.131l16.215,8.11Z" transform="translate(-2498.423 -647.143)" fill="url(#linear-gradient-60)"/>
          <path id="Caminho_20759" data-name="Caminho 20759" d="M2608.158,746.432l-5.682-2.842v-4.131l5.682,2.841Z" transform="translate(-2498.423 -653.851)" fill="url(#linear-gradient-61)"/>
          <path id="Caminho_20760" data-name="Caminho 20760" d="M2625.284,755l-5.682-2.842v-4.131l5.682,2.842Z" transform="translate(-2506.031 -657.656)" fill="url(#linear-gradient-62)"/>
          <path id="Caminho_20761" data-name="Caminho 20761" d="M2642.412,763.563l-5.682-2.842v-4.132l5.682,2.842Z" transform="translate(-2513.639 -661.46)" fill="url(#linear-gradient-63)"/>
          <path id="Caminho_20762" data-name="Caminho 20762" d="M2659.539,772.129l-5.682-2.841v-4.132l5.682,2.841Z" transform="translate(-2521.247 -665.266)" fill="url(#linear-gradient-64)"/>
          <path id="Caminho_20763" data-name="Caminho 20763" d="M2676.666,780.693l-5.681-2.841v-4.131l5.681,2.841Z" transform="translate(-2528.855 -669.07)" fill="url(#linear-gradient-65)"/>
          <path id="Caminho_20764" data-name="Caminho 20764" d="M2658,756.258l-16.215-8.109v-4.131L2658,752.127Z" transform="translate(-2515.884 -655.876)" fill="url(#linear-gradient-66)"/>
          <path id="Caminho_20765" data-name="Caminho 20765" d="M2697.307,775.916l-16.215-8.109v-4.131l16.215,8.109Z" transform="translate(-2533.345 -664.608)" fill="url(#linear-gradient-67)"/>
          <path id="Caminho_20766" data-name="Caminho 20766" d="M2523.646,704.167l-42.861-21.436V678.6l42.861,21.435Z" transform="translate(-2444.366 -626.816)" fill="url(#linear-gradient-68)"/>
          <g id="Grupo_2912" data-name="Grupo 2912" transform="translate(36.418 60.176)">
            <path id="Caminho_20767" data-name="Caminho 20767" d="M2496.441,705.662l-15.657-7.83V693.7l15.657,7.83Z" transform="translate(-2480.785 -693.7)" fill="#df4640"/>
          </g>
          <path id="Caminho_20768" data-name="Caminho 20768" d="M2419.9,591.883l-4.643-2.323v-4.132l4.643,2.323Z" transform="translate(-2415.259 -585.429)" fill="url(#linear-gradient-69)"/>
          <path id="Caminho_20769" data-name="Caminho 20769" d="M2419.9,606.983l-4.643-2.323v-4.132l4.643,2.323Z" transform="translate(-2415.259 -592.136)" fill="url(#linear-gradient-70)"/>
          <path id="Caminho_20770" data-name="Caminho 20770" d="M2419.9,622.083l-4.643-2.322V615.63l4.643,2.322Z" transform="translate(-2415.259 -598.844)" fill="url(#linear-gradient-71)"/>
          <path id="Caminho_20771" data-name="Caminho 20771" d="M2419.9,637.183l-4.643-2.322V630.73l4.643,2.322Z" transform="translate(-2415.259 -605.552)" fill="url(#linear-gradient-72)"/>
          <path id="Caminho_20772" data-name="Caminho 20772" d="M2419.9,652.284l-4.643-2.323V645.83l4.643,2.322Z" transform="translate(-2415.259 -612.26)" fill="url(#linear-gradient-73)"/>
          <g id="Grupo_2913" data-name="Grupo 2913" transform="translate(0 41.963)">
            <path id="Caminho_20773" data-name="Caminho 20773" d="M2419.9,667.384l-4.643-2.322V660.93l4.643,2.323Z" transform="translate(-2415.259 -660.93)" fill="#df4640"/>
          </g>
        </g>
      </g>
    </g>
    <g id="Grupo_2947" data-name="Grupo 2947" transform="translate(0 74.899)">
      <path id="Caminho_20774" data-name="Caminho 20774" d="M2265.622,879.667l-104.788-55.3a7.256,7.256,0,0,1-3.856-5.786l-2.541-105.707c0-2.807,4.267-4.615,6.4-3.549L2268.163,763a7.255,7.255,0,0,1,3.857,5.786V876.119C2272.02,878.248,2268.657,881.234,2265.622,879.667Z" transform="translate(-2154.436 -709.018)" fill="#91beff"/>
      <path id="Caminho_20775" data-name="Caminho 20775" d="M2265.622,880.846,2158.293,827.17a7.258,7.258,0,0,1-3.857-5.786V714.055c0-2.13,1.727-2.993,3.857-1.928L2265.622,765.8a7.258,7.258,0,0,1,3.858,5.785V878.918C2269.479,881.048,2267.752,881.911,2265.622,880.846Z" transform="translate(-2154.436 -710.197)" fill="#2742a8"/>
      <g id="Grupo_2946" data-name="Grupo 2946" transform="translate(3.998 14.241)">
        <g id="Grupo_2945" data-name="Grupo 2945">
          <g id="Grupo_2917" data-name="Grupo 2917" transform="translate(53.523 29.495)">
            <path id="Caminho_20776" data-name="Caminho 20776" d="M2301.51,868.685l-38.258-19.133c-2.939-1.47-5.322-5.044-5.322-7.983V791c0-2.94,2.383-4.13,5.322-2.661l38.258,19.133c2.939,1.47,5.322,5.045,5.322,7.984v50.567C2306.833,868.963,2304.449,870.154,2301.51,868.685Z" transform="translate(-2257.931 -787.711)" fill="#91beff"/>
          </g>
          <g id="Grupo_2918" data-name="Grupo 2918">
            <path id="Caminho_20777" data-name="Caminho 20777" d="M2171.931,745.01l-10.3-5.151v-5.217l10.3,5.152Z" transform="translate(-2161.63 -734.641)" fill="#91beff"/>
          </g>
          <g id="Grupo_2919" data-name="Grupo 2919" transform="translate(0 10.101)">
            <path id="Caminho_20778" data-name="Caminho 20778" d="M2178.13,766.285l-16.5-8.252v-5.217l16.5,8.251Z" transform="translate(-2161.63 -752.816)" fill="#df4640"/>
          </g>
          <g id="Grupo_2920" data-name="Grupo 2920" transform="translate(0 20.201)">
            <path id="Caminho_20779" data-name="Caminho 20779" d="M2171.931,781.357l-10.3-5.152v-5.216l10.3,5.152Z" transform="translate(-2161.63 -770.989)" fill="#91beff"/>
          </g>
          <g id="Grupo_2921" data-name="Grupo 2921" transform="translate(11.349 25.877)">
            <path id="Caminho_20780" data-name="Caminho 20780" d="M2192.351,791.57l-10.3-5.152V781.2l10.3,5.152Z" transform="translate(-2182.05 -781.201)" fill="#91beff"/>
          </g>
          <g id="Grupo_2922" data-name="Grupo 2922" transform="translate(23.348 31.878)">
            <path id="Caminho_20781" data-name="Caminho 20781" d="M2213.939,802.366l-10.3-5.152V792l10.3,5.152Z" transform="translate(-2203.639 -791.997)" fill="#91beff"/>
          </g>
          <g id="Grupo_2923" data-name="Grupo 2923" transform="translate(18.499 19.352)">
            <path id="Caminho_20782" data-name="Caminho 20782" d="M2205.215,779.83l-10.3-5.151v-5.217l10.3,5.152Z" transform="translate(-2194.914 -769.461)" fill="#df4640"/>
          </g>
          <g id="Grupo_2924" data-name="Grupo 2924" transform="translate(35.347 37.879)">
            <path id="Caminho_20783" data-name="Caminho 20783" d="M2235.529,813.163l-10.3-5.152v-5.216l10.3,5.151Z" transform="translate(-2225.228 -802.795)" fill="#91beff"/>
          </g>
          <g id="Grupo_2925" data-name="Grupo 2925" transform="translate(0 30.301)">
            <path id="Caminho_20784" data-name="Caminho 20784" d="M2171.931,799.53l-10.3-5.151v-5.217l10.3,5.152Z" transform="translate(-2161.63 -789.161)" fill="#91beff"/>
          </g>
          <g id="Grupo_2926" data-name="Grupo 2926" transform="translate(11.349 35.977)">
            <path id="Caminho_20785" data-name="Caminho 20785" d="M2192.351,809.742l-10.3-5.152v-5.217l10.3,5.152Z" transform="translate(-2182.05 -799.373)" fill="#91beff"/>
          </g>
          <g id="Grupo_2927" data-name="Grupo 2927" transform="translate(18.197 49.503)">
            <path id="Caminho_20786" data-name="Caminho 20786" d="M2204.673,834.077l-10.3-5.151v-5.217l10.3,5.152Z" transform="translate(-2194.371 -823.709)" fill="#91beff"/>
          </g>
          <g id="Grupo_2928" data-name="Grupo 2928" transform="translate(0 40.402)">
            <path id="Caminho_20787" data-name="Caminho 20787" d="M2177.28,820.378l-15.65-7.827v-5.217l15.65,7.827Z" transform="translate(-2161.63 -807.334)" fill="#91beff"/>
          </g>
          <g id="Grupo_2929" data-name="Grupo 2929" transform="translate(0 50.503)">
            <path id="Caminho_20788" data-name="Caminho 20788" d="M2171.931,835.877l-10.3-5.152v-5.216l10.3,5.151Z" transform="translate(-2161.63 -825.508)" fill="#91beff"/>
          </g>
          <g id="Grupo_2930" data-name="Grupo 2930" transform="translate(13.047 57.027)">
            <path id="Caminho_20789" data-name="Caminho 20789" d="M2195.406,847.615l-10.3-5.152v-5.216l10.3,5.151Z" transform="translate(-2185.105 -837.247)" fill="#91beff"/>
          </g>
          <g id="Grupo_2931" data-name="Grupo 2931" transform="translate(26.094 63.553)">
            <path id="Caminho_20790" data-name="Caminho 20790" d="M2218.88,859.357l-10.3-5.152v-5.216l10.3,5.151Z" transform="translate(-2208.579 -848.988)" fill="#91beff"/>
          </g>
          <g id="Grupo_2932" data-name="Grupo 2932" transform="translate(39.14 70.077)">
            <path id="Caminho_20791" data-name="Caminho 20791" d="M2242.354,871.1l-10.3-5.151v-5.217l10.3,5.152Z" transform="translate(-2232.053 -860.728)" fill="#91beff"/>
          </g>
          <g id="Grupo_2933" data-name="Grupo 2933" transform="translate(0 60.603)">
            <path id="Caminho_20792" data-name="Caminho 20792" d="M2171.931,854.049l-10.3-5.152v-5.216l10.3,5.151Z" transform="translate(-2161.63 -843.681)" fill="#91beff"/>
          </g>
          <g id="Grupo_2934" data-name="Grupo 2934" transform="translate(13.047 67.127)">
            <path id="Caminho_20793" data-name="Caminho 20793" d="M2195.406,865.789l-10.3-5.151V855.42l10.3,5.152Z" transform="translate(-2185.105 -855.42)" fill="#91beff"/>
          </g>
          <g id="Grupo_2935" data-name="Grupo 2935" transform="translate(26.094 73.652)">
            <path id="Caminho_20794" data-name="Caminho 20794" d="M2218.88,877.528l-10.3-5.151V867.16l10.3,5.152Z" transform="translate(-2208.579 -867.16)" fill="#91beff"/>
          </g>
          <g id="Grupo_2936" data-name="Grupo 2936" transform="translate(0 70.703)">
            <path id="Caminho_20795" data-name="Caminho 20795" d="M2185.889,879.2,2161.63,867.07v-5.217l24.259,12.132Z" transform="translate(-2161.63 -861.853)" fill="#91beff"/>
          </g>
          <g id="Grupo_2937" data-name="Grupo 2937" transform="translate(26.094 83.753)">
            <path id="Caminho_20796" data-name="Caminho 20796" d="M2232.838,902.683l-24.259-12.132v-5.217l24.259,12.132Z" transform="translate(-2208.579 -885.334)" fill="#91beff"/>
          </g>
          <g id="Grupo_2938" data-name="Grupo 2938" transform="translate(52.188 96.803)">
            <path id="Caminho_20797" data-name="Caminho 20797" d="M2279.787,926.162l-24.258-12.133v-5.216l24.258,12.132Z" transform="translate(-2255.529 -908.813)" fill="#91beff"/>
          </g>
          <g id="Grupo_2939" data-name="Grupo 2939" transform="translate(82.818 112.121)">
            <path id="Caminho_20798" data-name="Caminho 20798" d="M2319.267,945.906l-8.627-4.315v-5.217l8.627,4.315Z" transform="translate(-2310.64 -936.375)" fill="#91beff"/>
          </g>
          <g id="Grupo_2940" data-name="Grupo 2940" transform="translate(0 80.804)">
            <path id="Caminho_20799" data-name="Caminho 20799" d="M2171.931,890.4l-10.3-5.151v-5.217l10.3,5.151Z" transform="translate(-2161.63 -880.027)" fill="#91beff"/>
          </g>
          <g id="Grupo_2941" data-name="Grupo 2941" transform="translate(13.047 87.329)">
            <path id="Caminho_20800" data-name="Caminho 20800" d="M2195.406,902.136l-10.3-5.152v-5.216l10.3,5.151Z" transform="translate(-2185.105 -891.767)" fill="#91beff"/>
          </g>
          <g id="Grupo_2942" data-name="Grupo 2942" transform="translate(26.094 93.854)">
            <path id="Caminho_20801" data-name="Caminho 20801" d="M2218.88,913.875l-10.3-5.152v-5.216l10.3,5.151Z" transform="translate(-2208.579 -903.507)" fill="#91beff"/>
          </g>
          <g id="Grupo_2943" data-name="Grupo 2943" transform="translate(39.14 100.379)">
            <path id="Caminho_20802" data-name="Caminho 20802" d="M2242.354,925.616l-10.3-5.152v-5.216l10.3,5.151Z" transform="translate(-2232.053 -915.247)" fill="#91beff"/>
          </g>
          <g id="Grupo_2944" data-name="Grupo 2944" transform="translate(0 90.904)">
            <path id="Caminho_20803" data-name="Caminho 20803" d="M2171.931,908.568l-10.3-5.152V898.2l10.3,5.151Z" transform="translate(-2161.63 -898.2)" fill="#df4640"/>
          </g>
        </g>
      </g>
    </g>
    <g id="Grupo_2957" data-name="Grupo 2957" transform="translate(303.172 266.966)">
      <path id="Caminho_20804" data-name="Caminho 20804" d="M2798.63,1154.323l-94.095-48.749a5.45,5.45,0,0,1-2.9-4.345l-1.722-44.111c0-1.6,3.019-3.1,4.618-2.3l95.024,47.523a5.448,5.448,0,0,1,2.9,4.344v44.967C2802.455,1153.248,2800.229,1155.122,2798.63,1154.323Z" transform="translate(-2699.917 -1054.593)" fill="#91beff"/>
      <path id="Caminho_20805" data-name="Caminho 20805" d="M2797.839,1154.539l-95.025-47.522a5.454,5.454,0,0,1-2.9-4.345v-44.966c0-1.6,1.3-2.247,2.9-1.448l95.025,47.523a5.449,5.449,0,0,1,2.9,4.345v44.966C2800.734,1154.691,2799.438,1155.339,2797.839,1154.539Z" transform="translate(-2699.917 -1055.18)" fill="#2742a8"/>
      <g id="Grupo_2956" data-name="Grupo 2956" transform="translate(3.438 4.448)">
        <g id="Grupo_2955" data-name="Grupo 2955">
          <path id="Caminho_20806" data-name="Caminho 20806" d="M2706.1,1079.1v-16.5l5.217,2.609v16.5Z" transform="translate(-2706.103 -1062.596)" fill="url(#linear-gradient-74)"/>
          <path id="Caminho_20807" data-name="Caminho 20807" d="M2731.445,1091.771v-16.5l5.217,2.608v16.5Z" transform="translate(-2717.36 -1068.227)" fill="url(#linear-gradient-75)"/>
          <g id="Grupo_2948" data-name="Grupo 2948" transform="translate(28.171 14.089)">
            <path id="Caminho_20808" data-name="Caminho 20808" d="M2756.789,1104.445v-16.5l5.217,2.609v16.5Z" transform="translate(-2756.789 -1087.945)" fill="#df4640"/>
          </g>
          <path id="Caminho_20809" data-name="Caminho 20809" d="M2782.132,1117.119v-16.5l5.217,2.609v16.5Z" transform="translate(-2739.876 -1079.487)" fill="url(#linear-gradient-76)"/>
          <g id="Grupo_2949" data-name="Grupo 2949" transform="translate(56.341 28.177)">
            <path id="Caminho_20810" data-name="Caminho 20810" d="M2807.474,1129.794v-16.5l5.218,2.609v16.5Z" transform="translate(-2807.474 -1113.294)" fill="#df4640"/>
          </g>
          <path id="Caminho_20811" data-name="Caminho 20811" d="M2832.819,1142.467v-16.5l5.217,2.609v16.5Z" transform="translate(-2762.391 -1090.747)" fill="url(#linear-gradient-77)"/>
          <g id="Grupo_2950" data-name="Grupo 2950" transform="translate(84.513 42.266)">
            <path id="Caminho_20812" data-name="Caminho 20812" d="M2858.163,1155.143v-16.5l5.217,2.609v16.5Z" transform="translate(-2858.163 -1138.643)" fill="#df4640"/>
          </g>
          <g id="Grupo_2951" data-name="Grupo 2951" transform="translate(7.649 22.343)">
            <path id="Caminho_20813" data-name="Caminho 20813" d="M2719.866,1119.3v-16.5l5.216,2.609v16.5Z" transform="translate(-2719.866 -1102.797)" fill="#df4640"/>
          </g>
          <path id="Caminho_20814" data-name="Caminho 20814" d="M2745.209,1131.972v-16.5l5.216,2.609v16.5Z" transform="translate(-2723.474 -1086.084)" fill="url(#linear-gradient-78)"/>
          <g id="Grupo_2952" data-name="Grupo 2952" transform="translate(35.82 36.432)">
            <path id="Caminho_20815" data-name="Caminho 20815" d="M2770.552,1144.647v-16.5l5.217,2.609v16.5Z" transform="translate(-2770.552 -1128.147)" fill="#df4640"/>
          </g>
          <path id="Caminho_20816" data-name="Caminho 20816" d="M2795.9,1157.321v-16.5l5.216,2.609v16.5Z" transform="translate(-2745.99 -1097.345)" fill="url(#linear-gradient-79)"/>
          <path id="Caminho_20817" data-name="Caminho 20817" d="M2821.239,1170v-16.5l5.217,2.609v16.5Z" transform="translate(-2757.248 -1102.975)" fill="url(#linear-gradient-80)"/>
          <path id="Caminho_20818" data-name="Caminho 20818" d="M2846.582,1182.67v-16.5l5.217,2.609v16.5Z" transform="translate(-2768.506 -1108.605)" fill="url(#linear-gradient-81)"/>
          <path id="Caminho_20819" data-name="Caminho 20819" d="M2871.925,1195.345v-16.5l5.217,2.609v16.5Z" transform="translate(-2779.763 -1114.235)" fill="url(#linear-gradient-82)"/>
          <path id="Caminho_20820" data-name="Caminho 20820" d="M2708.291,1139.552V1127.18l5.217,2.61v12.371Z" transform="translate(-2707.075 -1091.285)" fill="url(#linear-gradient-83)"/>
          <path id="Caminho_20821" data-name="Caminho 20821" d="M2733.635,1152.226v-12.372l5.216,2.609v12.372Z" transform="translate(-2718.333 -1096.915)" fill="url(#linear-gradient-84)"/>
          <g id="Grupo_2953" data-name="Grupo 2953" transform="translate(29.387 49.984)">
            <path id="Caminho_20822" data-name="Caminho 20822" d="M2758.978,1164.9v-12.372l5.217,2.609v12.372Z" transform="translate(-2758.978 -1152.529)" fill="#df4640"/>
          </g>
          <path id="Caminho_20823" data-name="Caminho 20823" d="M2784.322,1177.576V1165.2l5.217,2.609v12.371Z" transform="translate(-2740.848 -1108.176)" fill="url(#linear-gradient-85)"/>
          <g id="Grupo_2954" data-name="Grupo 2954" transform="translate(57.558 64.073)">
            <path id="Caminho_20824" data-name="Caminho 20824" d="M2809.665,1190.25v-12.371l5.217,2.608v12.372Z" transform="translate(-2809.665 -1177.879)" fill="#df4640"/>
          </g>
          <path id="Caminho_20825" data-name="Caminho 20825" d="M2835.008,1202.924v-12.372l5.216,2.609v12.372Z" transform="translate(-2763.364 -1119.436)" fill="url(#linear-gradient-86)"/>
          <path id="Caminho_20826" data-name="Caminho 20826" d="M2860.351,1215.6v-12.371l5.217,2.609v12.372Z" transform="translate(-2774.622 -1125.066)" fill="url(#linear-gradient-87)"/>
        </g>
      </g>
    </g>
    <g id="Grupo_2965" data-name="Grupo 2965" transform="translate(451.668 321.053)">
      <path id="Caminho_20827" data-name="Caminho 20827" d="M3065.659,1242.649l-95.013-48.69a4.52,4.52,0,0,1-2.4-3.606l-1.146-36.694c0-1.328,2.221-2.185,3.549-1.521l95.927,47.975a4.523,4.523,0,0,1,2.4,3.605v37.013A2.5,2.5,0,0,1,3065.659,1242.649Z" transform="translate(-2967.097 -1151.908)" fill="#91beff"/>
      <path id="Caminho_20828" data-name="Caminho 20828" d="M3065.429,1242.988l-95.928-47.974a4.525,4.525,0,0,1-2.4-3.606v-37.013c0-1.327,1.076-1.866,2.4-1.2l95.928,47.975a4.524,4.524,0,0,1,2.4,3.605v37.013C3067.833,1243.114,3066.756,1243.652,3065.429,1242.988Z" transform="translate(-2967.097 -1152.353)" fill="#2742a8"/>
      <g id="Grupo_2960" data-name="Grupo 2960" transform="translate(10.192 19.91)">
        <g id="Grupo_2959" data-name="Grupo 2959">
          <g id="Grupo_2958" data-name="Grupo 2958">
            <path id="Caminho_20829" data-name="Caminho 20829" d="M2995.049,1208.616v-5.634l-9.614-4.808v-1.845l9.235-8.6,3.022,1.511v12.867l2.9,1.451v2.2l-2.9-1.451v5.635Zm0-7.828v-6.908c0-1.092.027-2.152.09-3.207l-.09-.045c-.637.894-1.148,1.528-1.718,2.2l-5.062,4.5v.069Z" transform="translate(-2985.435 -1187.731)" fill="url(#linear-gradient-88)"/>
            <path id="Caminho_20830" data-name="Caminho 20830" d="M3017.151,1214.006a17.049,17.049,0,0,0,4.581,3.6c3.6,1.8,4.719.069,4.683-1.679-.032-2.911-2.643-5.46-5.345-6.811l-1.56-.78v-2.094l1.56.779c2.034,1.018,4.615,1.259,4.615-1.2,0-1.653-1.048-3.639-3.629-4.93a6.652,6.652,0,0,0-4.143-.7l-.731-2.4a9.075,9.075,0,0,1,5.414,1.111c4.074,2.038,5.923,5.389,5.923,7.907,0,2.129-1.272,3.31-3.821,2.958v.056c2.549,1.786,4.616,4.736,4.616,7.627,0,3.309-2.579,4.924-7.545,2.44a18.763,18.763,0,0,1-5.382-4.094Z" transform="translate(-2999.184 -1192.156)" fill="url(#linear-gradient-89)"/>
            <path id="Caminho_20831" data-name="Caminho 20831" d="M3054.906,1221.272c0,4.368-2.292,5.387-4.973,4.047a9.636,9.636,0,0,1-4.839-8.659c0-4.14,2.263-5.337,5-3.967A9.287,9.287,0,0,1,3054.906,1221.272Zm-7.578-3.593c-.07,2.606.922,5.11,2.677,5.988,1.847.924,2.67-.639,2.67-3.375,0-2.522-.731-4.978-2.67-5.948C3048.25,1213.467,3047.327,1215.068,3047.327,1217.679Zm2.416,16.24,12.17-15.316,1.78.891-12.164,15.319Zm18.633,2.664c0,4.361-2.294,5.379-4.937,4.059a9.634,9.634,0,0,1-4.843-8.631c0-4.174,2.268-5.365,5-4C3066.495,1229.462,3068.376,1232.628,3068.376,1236.583Zm-7.575-3.6c-.037,2.621.987,5.135,2.705,5.994,1.838.919,2.666-.64,2.666-3.376,0-2.519-.728-4.985-2.666-5.955C3061.753,1228.774,3060.8,1230.376,3060.8,1232.986Z" transform="translate(-3011.936 -1198.579)" fill="url(#linear-gradient-90)"/>
          </g>
        </g>
      </g>
      <g id="Grupo_2964" data-name="Grupo 2964" transform="translate(70.471 51.657)">
        <g id="Grupo_2963" data-name="Grupo 2963">
          <g id="Grupo_2961" data-name="Grupo 2961">
            <path id="Caminho_20832" data-name="Caminho 20832" d="M3103.967,1247.606l-1.836-2.754-8.239,4.119.011.016-.011.005,8.239,12.359,1.836-.919-6.414-9.62Z" transform="translate(-3093.891 -1244.851)" fill="#df4640"/>
          </g>
          <g id="Grupo_2962" data-name="Grupo 2962" transform="translate(16.64 5.12)">
            <path id="Caminho_20833" data-name="Caminho 20833" d="M3123.831,1267.808l1.836,2.755,8.24-4.118-.01-.017.01,0-8.24-12.36-1.836.918,6.414,9.621Z" transform="translate(-3123.831 -1254.063)" fill="#df4640"/>
          </g>
        </g>
      </g>
    </g>
    <g id="Grupo_2972" data-name="Grupo 2972" transform="translate(374.071 333.832)">
      <path id="Caminho_20834" data-name="Caminho 20834" d="M2925.6,1274.111l-93.727-48.171a5.449,5.449,0,0,1-2.9-4.345l-1.478-44.608c0-1.6,2.775-2.6,4.374-1.805L2926.9,1222.7a5.451,5.451,0,0,1,2.9,4.345v44.966C2929.794,1273.615,2927.2,1274.911,2925.6,1274.111Z" transform="translate(-2827.49 -1174.902)" fill="#91beff"/>
      <path id="Caminho_20835" data-name="Caminho 20835" d="M2925.4,1274.423l-95.024-47.523a5.45,5.45,0,0,1-2.9-4.345v-44.967c0-1.6,1.3-2.247,2.9-1.447l95.024,47.522a5.45,5.45,0,0,1,2.9,4.345v44.967C2928.3,1274.574,2927,1275.223,2925.4,1274.423Z" transform="translate(-2827.481 -1175.301)" fill="#2742a8"/>
      <g id="Grupo_2971" data-name="Grupo 2971" transform="translate(4.183 9.048)">
        <g id="Grupo_2970" data-name="Grupo 2970">
          <g id="Grupo_2966" data-name="Grupo 2966" transform="translate(4.021 2.011)">
            <path id="Caminho_20836" data-name="Caminho 20836" d="M2850.6,1204l-8.358-4.181V1194.8l8.358,4.18Z" transform="translate(-2842.242 -1194.801)" fill="#df4640"/>
          </g>
          <g id="Grupo_2967" data-name="Grupo 2967" transform="translate(16.339 8.171)">
            <path id="Caminho_20837" data-name="Caminho 20837" d="M2872.764,1215.088l-8.359-4.18v-5.023l8.359,4.18Z" transform="translate(-2864.406 -1205.885)" fill="#df4640"/>
          </g>
          <g id="Grupo_2968" data-name="Grupo 2968" transform="translate(28.657 14.332)">
            <path id="Caminho_20838" data-name="Caminho 20838" d="M2894.927,1226.172l-8.359-4.18v-5.022l8.359,4.18Z" transform="translate(-2886.569 -1216.969)" fill="#df4640"/>
          </g>
          <path id="Caminho_20839" data-name="Caminho 20839" d="M2858.96,1226.542l-16.718-8.36v-5.023l16.718,8.36Z" transform="translate(-2838.221 -1200.944)" fill="url(#linear-gradient-91)"/>
          <path id="Caminho_20840" data-name="Caminho 20840" d="M2879.952,1255.4l-16.718-8.36v-5.022l16.718,8.361Z" transform="translate(-2847.547 -1213.762)" fill="url(#linear-gradient-92)"/>
          <path id="Caminho_20841" data-name="Caminho 20841" d="M2912.815,1271.831l-16.717-8.36v-5.023l16.717,8.36Z" transform="translate(-2862.145 -1221.062)" fill="url(#linear-gradient-93)"/>
          <path id="Caminho_20842" data-name="Caminho 20842" d="M2945.676,1288.265l-16.716-8.36v-5.023l16.716,8.36Z" transform="translate(-2876.742 -1228.363)" fill="url(#linear-gradient-94)"/>
          <path id="Caminho_20843" data-name="Caminho 20843" d="M2978.537,1304.7l-16.717-8.36v-5.022l16.717,8.36Z" transform="translate(-2891.339 -1235.664)" fill="url(#linear-gradient-95)"/>
          <path id="Caminho_20844" data-name="Caminho 20844" d="M2891.987,1279.773l-16.717-8.36v-5.022l16.717,8.36Z" transform="translate(-2852.893 -1224.59)" fill="url(#linear-gradient-96)"/>
          <path id="Caminho_20845" data-name="Caminho 20845" d="M2920.658,1294.112l-12.527-6.265v-5.023l12.527,6.265Z" transform="translate(-2867.49 -1231.891)" fill="url(#linear-gradient-97)"/>
          <path id="Caminho_20846" data-name="Caminho 20846" d="M2946.019,1306.8l-12.527-6.265v-5.023l12.527,6.265Z" transform="translate(-2878.755 -1237.525)" fill="url(#linear-gradient-98)"/>
          <path id="Caminho_20847" data-name="Caminho 20847" d="M2971.381,1319.479l-12.526-6.265v-5.023l12.526,6.265Z" transform="translate(-2890.022 -1243.159)" fill="url(#linear-gradient-99)"/>
          <g id="Grupo_2969" data-name="Grupo 2969">
            <path id="Caminho_20848" data-name="Caminho 20848" d="M2836.927,1197.164l-1.919-.959v-5.023l1.919.96Z" transform="translate(-2835.008 -1191.182)" fill="#df4640"/>
          </g>
          <path id="Caminho_20849" data-name="Caminho 20849" d="M2836.927,1215.522l-1.919-.959v-5.023l1.919.96Z" transform="translate(-2835.008 -1199.337)" fill="url(#linear-gradient-100)"/>
          <path id="Caminho_20850" data-name="Caminho 20850" d="M2836.927,1233.88l-1.919-.959V1227.9l1.919.959Z" transform="translate(-2835.008 -1207.492)" fill="url(#linear-gradient-101)"/>
          <path id="Caminho_20851" data-name="Caminho 20851" d="M2836.927,1252.237l-1.919-.959v-5.023l1.919.959Z" transform="translate(-2835.008 -1215.646)" fill="url(#linear-gradient-102)"/>
        </g>
      </g>
    </g>
  </g>
</svg>
